M48
; DRILL file {KiCad 7.0.7} date Wed Sep 20 21:46:06 2023
; FORMAT={-:-/ absolute / inch / decimal}
; #@! TF.CreationDate,2023-09-20T21:46:06-04:00
; #@! TF.GenerationSoftware,Kicad,Pcbnew,7.0.7
; #@! TF.FileFunction,Plated,1,2,PTH
FMAT,2
INCH
; #@! TA.AperFunction,Plated,PTH,ViaDrill
T1C0.0157
; #@! TA.AperFunction,Plated,PTH,ComponentDrill
T2C0.0276
; #@! TA.AperFunction,Plated,PTH,ComponentDrill
T3C0.0295
; #@! TA.AperFunction,Plated,PTH,ComponentDrill
T4C0.0315
; #@! TA.AperFunction,Plated,PTH,ComponentDrill
T5C0.0394
; #@! TA.AperFunction,Plated,PTH,ComponentDrill
T6C0.0866
%
G90
G05
T1
X2.32Y-2.365
X2.535Y-2.15
X2.645Y-1.795
X2.655Y-1.92
X2.8Y-2.035
X2.8Y-2.11
T2
X3.0757Y-2.1535
X3.0757Y-2.2535
X3.0757Y-2.3535
X3.0757Y-2.5535
X3.0757Y-2.6535
T3
X2.4506Y-1.7933
X2.5294Y-1.7933
X2.7606Y-1.7933
X2.8394Y-1.7933
X3.0713Y-1.7983
X3.1156Y-3.3683
X3.15Y-1.7983
X3.1944Y-3.3683
X3.2287Y-1.7983
T4
X2.295Y-1.855
X2.295Y-2.155
X2.355Y-2.785
X2.355Y-3.085
X2.389Y-2.04
X2.389Y-2.5
X2.39Y-2.265
X2.4Y-3.175
X2.4Y-3.475
X2.4874Y-2.04
X2.4874Y-2.5
X2.4884Y-2.265
X2.525Y-3.18
X2.525Y-3.48
X2.57Y-2.395
X2.57Y-2.695
X2.6504Y-2.0204
X2.6504Y-2.1204
X2.6504Y-2.2204
X2.6504Y-2.3204
X2.9504Y-2.0204
X2.9504Y-2.1204
X2.9504Y-2.2204
X2.9504Y-2.3204
X3.03Y-3.23
X3.285Y-2.815
X3.285Y-3.115
X3.305Y-1.98
X3.305Y-2.28
X3.33Y-3.23
T5
X2.545Y-2.8366
X2.545Y-3.0334
X2.79Y-3.1768
X2.79Y-3.3736
X2.805Y-2.5068
X2.805Y-2.7036
X3.09Y-2.8581
X3.09Y-3.055
T6
X2.235Y-2.56
X3.405Y-2.56
T0
M30
