%TF.GenerationSoftware,KiCad,Pcbnew,7.0.7*%
%TF.CreationDate,2023-09-20T21:46:06-04:00*%
%TF.ProjectId,DIYmic,4449596d-6963-42e6-9b69-6361645f7063,rev?*%
%TF.SameCoordinates,Original*%
%TF.FileFunction,Drillmap*%
%TF.FilePolarity,Positive*%
%FSLAX45Y45*%
G04 Gerber Fmt 4.5, Leading zero omitted, Abs format (unit mm)*
G04 Created by KiCad (PCBNEW 7.0.7) date 2023-09-20 21:46:06*
%MOMM*%
%LPD*%
G01*
G04 APERTURE LIST*
%ADD10C,0.100000*%
%ADD11C,0.200000*%
%ADD12C,0.040000*%
%ADD13C,0.070000*%
%ADD14C,0.075000*%
%ADD15C,0.080000*%
%ADD16C,0.220000*%
G04 APERTURE END LIST*
D10*
X5560000Y-8765000D02*
G75*
G03*
X5709613Y-8965011I208500J0D01*
G01*
X8627441Y-8964996D02*
G75*
G03*
X8777000Y-8765000I-58941J199996D01*
G01*
X8962050Y-4414617D02*
G75*
G03*
X8768500Y-4265000I-193550J-50383D01*
G01*
X5568500Y-4265000D02*
G75*
G03*
X5374892Y-4414842I0J-200000D01*
G01*
X8962050Y-4414617D02*
X8777000Y-8765000D01*
X7168500Y-8965000D02*
X8627441Y-8964996D01*
X5568500Y-4265000D02*
X8768500Y-4265000D01*
X7168500Y-8965000D02*
X5709613Y-8965012D01*
X5560000Y-8765000D02*
X5374892Y-4414842D01*
D11*
D12*
X5872800Y-5987100D02*
X5912800Y-6027100D01*
X5912800Y-5987100D02*
X5872800Y-6027100D01*
X6418900Y-5441000D02*
X6458900Y-5481000D01*
X6458900Y-5441000D02*
X6418900Y-5481000D01*
X6698300Y-4539300D02*
X6738300Y-4579300D01*
X6738300Y-4539300D02*
X6698300Y-4579300D01*
X6723700Y-4856800D02*
X6763700Y-4896800D01*
X6763700Y-4856800D02*
X6723700Y-4896800D01*
X7092000Y-5148900D02*
X7132000Y-5188900D01*
X7132000Y-5148900D02*
X7092000Y-5188900D01*
X7092000Y-5339400D02*
X7132000Y-5379400D01*
X7132000Y-5339400D02*
X7092000Y-5379400D01*
D13*
X7847350Y-5469950D02*
G75*
G03*
X7847350Y-5469950I-35000J0D01*
G01*
X7847350Y-5723950D02*
G75*
G03*
X7847350Y-5723950I-35000J0D01*
G01*
X7847350Y-5977950D02*
G75*
G03*
X7847350Y-5977950I-35000J0D01*
G01*
X7847350Y-6485950D02*
G75*
G03*
X7847350Y-6485950I-35000J0D01*
G01*
X7847350Y-6739950D02*
G75*
G03*
X7847350Y-6739950I-35000J0D01*
G01*
D14*
X6224600Y-4517600D02*
X6224600Y-4592600D01*
X6187100Y-4555100D02*
X6262100Y-4555100D01*
X6424600Y-4517600D02*
X6424600Y-4592600D01*
X6387100Y-4555100D02*
X6462100Y-4555100D01*
X7012000Y-4517600D02*
X7012000Y-4592600D01*
X6974500Y-4555100D02*
X7049500Y-4555100D01*
X7212000Y-4517600D02*
X7212000Y-4592600D01*
X7174500Y-4555100D02*
X7249500Y-4555100D01*
X7801000Y-4530300D02*
X7801000Y-4605300D01*
X7763500Y-4567800D02*
X7838500Y-4567800D01*
X7913700Y-8518100D02*
X7913700Y-8593100D01*
X7876200Y-8555600D02*
X7951200Y-8555600D01*
X8001000Y-4530300D02*
X8001000Y-4605300D01*
X7963500Y-4567800D02*
X8038500Y-4567800D01*
X8113700Y-8518100D02*
X8113700Y-8593100D01*
X8076200Y-8555600D02*
X8151200Y-8555600D01*
X8201000Y-4530300D02*
X8201000Y-4605300D01*
X8163500Y-4567800D02*
X8238500Y-4567800D01*
D15*
X5857584Y-4739985D02*
X5857584Y-4683416D01*
X5801015Y-4683416D01*
X5801015Y-4739985D01*
X5857584Y-4739985D01*
X5857584Y-5501985D02*
X5857584Y-5445416D01*
X5801015Y-5445416D01*
X5801015Y-5501985D01*
X5857584Y-5501985D01*
X6009984Y-7102184D02*
X6009984Y-7045615D01*
X5953415Y-7045615D01*
X5953415Y-7102184D01*
X6009984Y-7102184D01*
X6009984Y-7864184D02*
X6009984Y-7807615D01*
X5953415Y-7807615D01*
X5953415Y-7864184D01*
X6009984Y-7864184D01*
X6096396Y-5209885D02*
X6096396Y-5153316D01*
X6039827Y-5153316D01*
X6039827Y-5209885D01*
X6096396Y-5209885D01*
X6096396Y-6378284D02*
X6096396Y-6321715D01*
X6039827Y-6321715D01*
X6039827Y-6378284D01*
X6096396Y-6378284D01*
X6098884Y-5781384D02*
X6098884Y-5724815D01*
X6042315Y-5724815D01*
X6042315Y-5781384D01*
X6098884Y-5781384D01*
X6124284Y-8092784D02*
X6124284Y-8036215D01*
X6067715Y-8036215D01*
X6067715Y-8092784D01*
X6124284Y-8092784D01*
X6124284Y-8854785D02*
X6124284Y-8798216D01*
X6067715Y-8798216D01*
X6067715Y-8854785D01*
X6124284Y-8854785D01*
X6346396Y-5209885D02*
X6346396Y-5153316D01*
X6289827Y-5153316D01*
X6289827Y-5209885D01*
X6346396Y-5209885D01*
X6346396Y-6378284D02*
X6346396Y-6321715D01*
X6289827Y-6321715D01*
X6289827Y-6378284D01*
X6346396Y-6378284D01*
X6348884Y-5781384D02*
X6348884Y-5724815D01*
X6292315Y-5724815D01*
X6292315Y-5781384D01*
X6348884Y-5781384D01*
X6441784Y-8105484D02*
X6441784Y-8048915D01*
X6385215Y-8048915D01*
X6385215Y-8105484D01*
X6441784Y-8105484D01*
X6441784Y-8867485D02*
X6441784Y-8810916D01*
X6385215Y-8810916D01*
X6385215Y-8867485D01*
X6441784Y-8867485D01*
X6556084Y-6111584D02*
X6556084Y-6055015D01*
X6499515Y-6055015D01*
X6499515Y-6111584D01*
X6556084Y-6111584D01*
X6556084Y-6873584D02*
X6556084Y-6817015D01*
X6499515Y-6817015D01*
X6499515Y-6873584D01*
X6556084Y-6873584D01*
X6760284Y-5160085D02*
X6760284Y-5103516D01*
X6703715Y-5103516D01*
X6703715Y-5160085D01*
X6760284Y-5160085D01*
X6760284Y-5414085D02*
X6760284Y-5357516D01*
X6703715Y-5357516D01*
X6703715Y-5414085D01*
X6760284Y-5414085D01*
X6760284Y-5668084D02*
X6760284Y-5611515D01*
X6703715Y-5611515D01*
X6703715Y-5668084D01*
X6760284Y-5668084D01*
X6760284Y-5922084D02*
X6760284Y-5865515D01*
X6703715Y-5865515D01*
X6703715Y-5922084D01*
X6760284Y-5922084D01*
X7522284Y-5160085D02*
X7522284Y-5103516D01*
X7465715Y-5103516D01*
X7465715Y-5160085D01*
X7522284Y-5160085D01*
X7522284Y-5414085D02*
X7522284Y-5357516D01*
X7465715Y-5357516D01*
X7465715Y-5414085D01*
X7522284Y-5414085D01*
X7522284Y-5668084D02*
X7522284Y-5611515D01*
X7465715Y-5611515D01*
X7465715Y-5668084D01*
X7522284Y-5668084D01*
X7522284Y-5922084D02*
X7522284Y-5865515D01*
X7465715Y-5865515D01*
X7465715Y-5922084D01*
X7522284Y-5922084D01*
X7724484Y-8232484D02*
X7724484Y-8175915D01*
X7667915Y-8175915D01*
X7667915Y-8232484D01*
X7724484Y-8232484D01*
X8372184Y-7178384D02*
X8372184Y-7121815D01*
X8315615Y-7121815D01*
X8315615Y-7178384D01*
X8372184Y-7178384D01*
X8372184Y-7940384D02*
X8372184Y-7883815D01*
X8315615Y-7883815D01*
X8315615Y-7940384D01*
X8372184Y-7940384D01*
X8422985Y-5057485D02*
X8422985Y-5000916D01*
X8366415Y-5000916D01*
X8366415Y-5057485D01*
X8422985Y-5057485D01*
X8422985Y-5819484D02*
X8422985Y-5762915D01*
X8366415Y-5762915D01*
X8366415Y-5819484D01*
X8422985Y-5819484D01*
X8486485Y-8232484D02*
X8486485Y-8175915D01*
X8429916Y-8175915D01*
X8429916Y-8232484D01*
X8486485Y-8232484D01*
D10*
X6464300Y-7254900D02*
X6514300Y-7204900D01*
X6464300Y-7154900D01*
X6414300Y-7204900D01*
X6464300Y-7254900D01*
X6464300Y-7754900D02*
X6514300Y-7704900D01*
X6464300Y-7654900D01*
X6414300Y-7704900D01*
X6464300Y-7754900D01*
X7086600Y-8119032D02*
X7136600Y-8069032D01*
X7086600Y-8019032D01*
X7036600Y-8069032D01*
X7086600Y-8119032D01*
X7086600Y-8619032D02*
X7136600Y-8569032D01*
X7086600Y-8519032D01*
X7036600Y-8569032D01*
X7086600Y-8619032D01*
X7124700Y-6417232D02*
X7174700Y-6367232D01*
X7124700Y-6317232D01*
X7074700Y-6367232D01*
X7124700Y-6417232D01*
X7124700Y-6917232D02*
X7174700Y-6867232D01*
X7124700Y-6817232D01*
X7074700Y-6867232D01*
X7124700Y-6917232D01*
X7848600Y-7309700D02*
X7898600Y-7259700D01*
X7848600Y-7209700D01*
X7798600Y-7259700D01*
X7848600Y-7309700D01*
X7848600Y-7809700D02*
X7898600Y-7759700D01*
X7848600Y-7709700D01*
X7798600Y-7759700D01*
X7848600Y-7809700D01*
D16*
X5566900Y-6392400D02*
X5786900Y-6612400D01*
X5786900Y-6392400D02*
X5566900Y-6612400D01*
X5786900Y-6502400D02*
G75*
G03*
X5786900Y-6502400I-110000J0D01*
G01*
X8538700Y-6392400D02*
X8758700Y-6612400D01*
X8758700Y-6392400D02*
X8538700Y-6612400D01*
X8758700Y-6502400D02*
G75*
G03*
X8758700Y-6502400I-110000J0D01*
G01*
D11*
X5630668Y-9281495D02*
X5630668Y-9081495D01*
X5630668Y-9081495D02*
X5678287Y-9081495D01*
X5678287Y-9081495D02*
X5706859Y-9091019D01*
X5706859Y-9091019D02*
X5725906Y-9110067D01*
X5725906Y-9110067D02*
X5735430Y-9129114D01*
X5735430Y-9129114D02*
X5744954Y-9167210D01*
X5744954Y-9167210D02*
X5744954Y-9195781D01*
X5744954Y-9195781D02*
X5735430Y-9233876D01*
X5735430Y-9233876D02*
X5725906Y-9252924D01*
X5725906Y-9252924D02*
X5706859Y-9271972D01*
X5706859Y-9271972D02*
X5678287Y-9281495D01*
X5678287Y-9281495D02*
X5630668Y-9281495D01*
X5830668Y-9281495D02*
X5830668Y-9148162D01*
X5830668Y-9186257D02*
X5840192Y-9167210D01*
X5840192Y-9167210D02*
X5849716Y-9157686D01*
X5849716Y-9157686D02*
X5868764Y-9148162D01*
X5868764Y-9148162D02*
X5887811Y-9148162D01*
X5954478Y-9281495D02*
X5954478Y-9148162D01*
X5954478Y-9081495D02*
X5944954Y-9091019D01*
X5944954Y-9091019D02*
X5954478Y-9100543D01*
X5954478Y-9100543D02*
X5964002Y-9091019D01*
X5964002Y-9091019D02*
X5954478Y-9081495D01*
X5954478Y-9081495D02*
X5954478Y-9100543D01*
X6078287Y-9281495D02*
X6059240Y-9271972D01*
X6059240Y-9271972D02*
X6049716Y-9252924D01*
X6049716Y-9252924D02*
X6049716Y-9081495D01*
X6183049Y-9281495D02*
X6164002Y-9271972D01*
X6164002Y-9271972D02*
X6154478Y-9252924D01*
X6154478Y-9252924D02*
X6154478Y-9081495D01*
X6411621Y-9281495D02*
X6411621Y-9081495D01*
X6411621Y-9081495D02*
X6478287Y-9224352D01*
X6478287Y-9224352D02*
X6544954Y-9081495D01*
X6544954Y-9081495D02*
X6544954Y-9281495D01*
X6725906Y-9281495D02*
X6725906Y-9176733D01*
X6725906Y-9176733D02*
X6716383Y-9157686D01*
X6716383Y-9157686D02*
X6697335Y-9148162D01*
X6697335Y-9148162D02*
X6659240Y-9148162D01*
X6659240Y-9148162D02*
X6640192Y-9157686D01*
X6725906Y-9271972D02*
X6706859Y-9281495D01*
X6706859Y-9281495D02*
X6659240Y-9281495D01*
X6659240Y-9281495D02*
X6640192Y-9271972D01*
X6640192Y-9271972D02*
X6630668Y-9252924D01*
X6630668Y-9252924D02*
X6630668Y-9233876D01*
X6630668Y-9233876D02*
X6640192Y-9214829D01*
X6640192Y-9214829D02*
X6659240Y-9205305D01*
X6659240Y-9205305D02*
X6706859Y-9205305D01*
X6706859Y-9205305D02*
X6725906Y-9195781D01*
X6821145Y-9148162D02*
X6821145Y-9348162D01*
X6821145Y-9157686D02*
X6840192Y-9148162D01*
X6840192Y-9148162D02*
X6878287Y-9148162D01*
X6878287Y-9148162D02*
X6897335Y-9157686D01*
X6897335Y-9157686D02*
X6906859Y-9167210D01*
X6906859Y-9167210D02*
X6916383Y-9186257D01*
X6916383Y-9186257D02*
X6916383Y-9243400D01*
X6916383Y-9243400D02*
X6906859Y-9262448D01*
X6906859Y-9262448D02*
X6897335Y-9271972D01*
X6897335Y-9271972D02*
X6878287Y-9281495D01*
X6878287Y-9281495D02*
X6840192Y-9281495D01*
X6840192Y-9281495D02*
X6821145Y-9271972D01*
X7002097Y-9262448D02*
X7011621Y-9271972D01*
X7011621Y-9271972D02*
X7002097Y-9281495D01*
X7002097Y-9281495D02*
X6992573Y-9271972D01*
X6992573Y-9271972D02*
X7002097Y-9262448D01*
X7002097Y-9262448D02*
X7002097Y-9281495D01*
X7002097Y-9157686D02*
X7011621Y-9167210D01*
X7011621Y-9167210D02*
X7002097Y-9176733D01*
X7002097Y-9176733D02*
X6992573Y-9167210D01*
X6992573Y-9167210D02*
X7002097Y-9157686D01*
X7002097Y-9157686D02*
X7002097Y-9176733D01*
D12*
X5329892Y-9590012D02*
X5369892Y-9630012D01*
X5369892Y-9590012D02*
X5329892Y-9630012D01*
D11*
X5668764Y-9501495D02*
X5687811Y-9501495D01*
X5687811Y-9501495D02*
X5706859Y-9511019D01*
X5706859Y-9511019D02*
X5716383Y-9520543D01*
X5716383Y-9520543D02*
X5725906Y-9539591D01*
X5725906Y-9539591D02*
X5735430Y-9577686D01*
X5735430Y-9577686D02*
X5735430Y-9625305D01*
X5735430Y-9625305D02*
X5725906Y-9663400D01*
X5725906Y-9663400D02*
X5716383Y-9682448D01*
X5716383Y-9682448D02*
X5706859Y-9691972D01*
X5706859Y-9691972D02*
X5687811Y-9701495D01*
X5687811Y-9701495D02*
X5668764Y-9701495D01*
X5668764Y-9701495D02*
X5649716Y-9691972D01*
X5649716Y-9691972D02*
X5640192Y-9682448D01*
X5640192Y-9682448D02*
X5630668Y-9663400D01*
X5630668Y-9663400D02*
X5621145Y-9625305D01*
X5621145Y-9625305D02*
X5621145Y-9577686D01*
X5621145Y-9577686D02*
X5630668Y-9539591D01*
X5630668Y-9539591D02*
X5640192Y-9520543D01*
X5640192Y-9520543D02*
X5649716Y-9511019D01*
X5649716Y-9511019D02*
X5668764Y-9501495D01*
X5821145Y-9682448D02*
X5830668Y-9691972D01*
X5830668Y-9691972D02*
X5821145Y-9701495D01*
X5821145Y-9701495D02*
X5811621Y-9691972D01*
X5811621Y-9691972D02*
X5821145Y-9682448D01*
X5821145Y-9682448D02*
X5821145Y-9701495D01*
X6002097Y-9568162D02*
X6002097Y-9701495D01*
X5954478Y-9491972D02*
X5906859Y-9634829D01*
X5906859Y-9634829D02*
X6030668Y-9634829D01*
X6144954Y-9501495D02*
X6164002Y-9501495D01*
X6164002Y-9501495D02*
X6183049Y-9511019D01*
X6183049Y-9511019D02*
X6192573Y-9520543D01*
X6192573Y-9520543D02*
X6202097Y-9539591D01*
X6202097Y-9539591D02*
X6211621Y-9577686D01*
X6211621Y-9577686D02*
X6211621Y-9625305D01*
X6211621Y-9625305D02*
X6202097Y-9663400D01*
X6202097Y-9663400D02*
X6192573Y-9682448D01*
X6192573Y-9682448D02*
X6183049Y-9691972D01*
X6183049Y-9691972D02*
X6164002Y-9701495D01*
X6164002Y-9701495D02*
X6144954Y-9701495D01*
X6144954Y-9701495D02*
X6125906Y-9691972D01*
X6125906Y-9691972D02*
X6116383Y-9682448D01*
X6116383Y-9682448D02*
X6106859Y-9663400D01*
X6106859Y-9663400D02*
X6097335Y-9625305D01*
X6097335Y-9625305D02*
X6097335Y-9577686D01*
X6097335Y-9577686D02*
X6106859Y-9539591D01*
X6106859Y-9539591D02*
X6116383Y-9520543D01*
X6116383Y-9520543D02*
X6125906Y-9511019D01*
X6125906Y-9511019D02*
X6144954Y-9501495D01*
X6335430Y-9501495D02*
X6354478Y-9501495D01*
X6354478Y-9501495D02*
X6373526Y-9511019D01*
X6373526Y-9511019D02*
X6383049Y-9520543D01*
X6383049Y-9520543D02*
X6392573Y-9539591D01*
X6392573Y-9539591D02*
X6402097Y-9577686D01*
X6402097Y-9577686D02*
X6402097Y-9625305D01*
X6402097Y-9625305D02*
X6392573Y-9663400D01*
X6392573Y-9663400D02*
X6383049Y-9682448D01*
X6383049Y-9682448D02*
X6373526Y-9691972D01*
X6373526Y-9691972D02*
X6354478Y-9701495D01*
X6354478Y-9701495D02*
X6335430Y-9701495D01*
X6335430Y-9701495D02*
X6316383Y-9691972D01*
X6316383Y-9691972D02*
X6306859Y-9682448D01*
X6306859Y-9682448D02*
X6297335Y-9663400D01*
X6297335Y-9663400D02*
X6287811Y-9625305D01*
X6287811Y-9625305D02*
X6287811Y-9577686D01*
X6287811Y-9577686D02*
X6297335Y-9539591D01*
X6297335Y-9539591D02*
X6306859Y-9520543D01*
X6306859Y-9520543D02*
X6316383Y-9511019D01*
X6316383Y-9511019D02*
X6335430Y-9501495D01*
X6487811Y-9701495D02*
X6487811Y-9568162D01*
X6487811Y-9587210D02*
X6497335Y-9577686D01*
X6497335Y-9577686D02*
X6516383Y-9568162D01*
X6516383Y-9568162D02*
X6544954Y-9568162D01*
X6544954Y-9568162D02*
X6564002Y-9577686D01*
X6564002Y-9577686D02*
X6573526Y-9596733D01*
X6573526Y-9596733D02*
X6573526Y-9701495D01*
X6573526Y-9596733D02*
X6583049Y-9577686D01*
X6583049Y-9577686D02*
X6602097Y-9568162D01*
X6602097Y-9568162D02*
X6630668Y-9568162D01*
X6630668Y-9568162D02*
X6649716Y-9577686D01*
X6649716Y-9577686D02*
X6659240Y-9596733D01*
X6659240Y-9596733D02*
X6659240Y-9701495D01*
X6754478Y-9701495D02*
X6754478Y-9568162D01*
X6754478Y-9587210D02*
X6764002Y-9577686D01*
X6764002Y-9577686D02*
X6783049Y-9568162D01*
X6783049Y-9568162D02*
X6811621Y-9568162D01*
X6811621Y-9568162D02*
X6830668Y-9577686D01*
X6830668Y-9577686D02*
X6840192Y-9596733D01*
X6840192Y-9596733D02*
X6840192Y-9701495D01*
X6840192Y-9596733D02*
X6849716Y-9577686D01*
X6849716Y-9577686D02*
X6868764Y-9568162D01*
X6868764Y-9568162D02*
X6897335Y-9568162D01*
X6897335Y-9568162D02*
X6916383Y-9577686D01*
X6916383Y-9577686D02*
X6925907Y-9596733D01*
X6925907Y-9596733D02*
X6925907Y-9701495D01*
X7316383Y-9491972D02*
X7144954Y-9749114D01*
X7573526Y-9501495D02*
X7592573Y-9501495D01*
X7592573Y-9501495D02*
X7611621Y-9511019D01*
X7611621Y-9511019D02*
X7621145Y-9520543D01*
X7621145Y-9520543D02*
X7630669Y-9539591D01*
X7630669Y-9539591D02*
X7640192Y-9577686D01*
X7640192Y-9577686D02*
X7640192Y-9625305D01*
X7640192Y-9625305D02*
X7630669Y-9663400D01*
X7630669Y-9663400D02*
X7621145Y-9682448D01*
X7621145Y-9682448D02*
X7611621Y-9691972D01*
X7611621Y-9691972D02*
X7592573Y-9701495D01*
X7592573Y-9701495D02*
X7573526Y-9701495D01*
X7573526Y-9701495D02*
X7554478Y-9691972D01*
X7554478Y-9691972D02*
X7544954Y-9682448D01*
X7544954Y-9682448D02*
X7535430Y-9663400D01*
X7535430Y-9663400D02*
X7525907Y-9625305D01*
X7525907Y-9625305D02*
X7525907Y-9577686D01*
X7525907Y-9577686D02*
X7535430Y-9539591D01*
X7535430Y-9539591D02*
X7544954Y-9520543D01*
X7544954Y-9520543D02*
X7554478Y-9511019D01*
X7554478Y-9511019D02*
X7573526Y-9501495D01*
X7725907Y-9682448D02*
X7735430Y-9691972D01*
X7735430Y-9691972D02*
X7725907Y-9701495D01*
X7725907Y-9701495D02*
X7716383Y-9691972D01*
X7716383Y-9691972D02*
X7725907Y-9682448D01*
X7725907Y-9682448D02*
X7725907Y-9701495D01*
X7859240Y-9501495D02*
X7878288Y-9501495D01*
X7878288Y-9501495D02*
X7897335Y-9511019D01*
X7897335Y-9511019D02*
X7906859Y-9520543D01*
X7906859Y-9520543D02*
X7916383Y-9539591D01*
X7916383Y-9539591D02*
X7925907Y-9577686D01*
X7925907Y-9577686D02*
X7925907Y-9625305D01*
X7925907Y-9625305D02*
X7916383Y-9663400D01*
X7916383Y-9663400D02*
X7906859Y-9682448D01*
X7906859Y-9682448D02*
X7897335Y-9691972D01*
X7897335Y-9691972D02*
X7878288Y-9701495D01*
X7878288Y-9701495D02*
X7859240Y-9701495D01*
X7859240Y-9701495D02*
X7840192Y-9691972D01*
X7840192Y-9691972D02*
X7830669Y-9682448D01*
X7830669Y-9682448D02*
X7821145Y-9663400D01*
X7821145Y-9663400D02*
X7811621Y-9625305D01*
X7811621Y-9625305D02*
X7811621Y-9577686D01*
X7811621Y-9577686D02*
X7821145Y-9539591D01*
X7821145Y-9539591D02*
X7830669Y-9520543D01*
X7830669Y-9520543D02*
X7840192Y-9511019D01*
X7840192Y-9511019D02*
X7859240Y-9501495D01*
X8116383Y-9701495D02*
X8002097Y-9701495D01*
X8059240Y-9701495D02*
X8059240Y-9501495D01*
X8059240Y-9501495D02*
X8040192Y-9530067D01*
X8040192Y-9530067D02*
X8021145Y-9549114D01*
X8021145Y-9549114D02*
X8002097Y-9558638D01*
X8297335Y-9501495D02*
X8202097Y-9501495D01*
X8202097Y-9501495D02*
X8192573Y-9596733D01*
X8192573Y-9596733D02*
X8202097Y-9587210D01*
X8202097Y-9587210D02*
X8221145Y-9577686D01*
X8221145Y-9577686D02*
X8268764Y-9577686D01*
X8268764Y-9577686D02*
X8287811Y-9587210D01*
X8287811Y-9587210D02*
X8297335Y-9596733D01*
X8297335Y-9596733D02*
X8306859Y-9615781D01*
X8306859Y-9615781D02*
X8306859Y-9663400D01*
X8306859Y-9663400D02*
X8297335Y-9682448D01*
X8297335Y-9682448D02*
X8287811Y-9691972D01*
X8287811Y-9691972D02*
X8268764Y-9701495D01*
X8268764Y-9701495D02*
X8221145Y-9701495D01*
X8221145Y-9701495D02*
X8202097Y-9691972D01*
X8202097Y-9691972D02*
X8192573Y-9682448D01*
X8373526Y-9501495D02*
X8506859Y-9501495D01*
X8506859Y-9501495D02*
X8421145Y-9701495D01*
X8573526Y-9501495D02*
X8573526Y-9539591D01*
X8649716Y-9501495D02*
X8649716Y-9539591D01*
X8944955Y-9777686D02*
X8935431Y-9768162D01*
X8935431Y-9768162D02*
X8916383Y-9739591D01*
X8916383Y-9739591D02*
X8906859Y-9720543D01*
X8906859Y-9720543D02*
X8897335Y-9691972D01*
X8897335Y-9691972D02*
X8887812Y-9644352D01*
X8887812Y-9644352D02*
X8887812Y-9606257D01*
X8887812Y-9606257D02*
X8897335Y-9558638D01*
X8897335Y-9558638D02*
X8906859Y-9530067D01*
X8906859Y-9530067D02*
X8916383Y-9511019D01*
X8916383Y-9511019D02*
X8935431Y-9482448D01*
X8935431Y-9482448D02*
X8944955Y-9472924D01*
X9106859Y-9501495D02*
X9068764Y-9501495D01*
X9068764Y-9501495D02*
X9049716Y-9511019D01*
X9049716Y-9511019D02*
X9040193Y-9520543D01*
X9040193Y-9520543D02*
X9021145Y-9549114D01*
X9021145Y-9549114D02*
X9011621Y-9587210D01*
X9011621Y-9587210D02*
X9011621Y-9663400D01*
X9011621Y-9663400D02*
X9021145Y-9682448D01*
X9021145Y-9682448D02*
X9030669Y-9691972D01*
X9030669Y-9691972D02*
X9049716Y-9701495D01*
X9049716Y-9701495D02*
X9087812Y-9701495D01*
X9087812Y-9701495D02*
X9106859Y-9691972D01*
X9106859Y-9691972D02*
X9116383Y-9682448D01*
X9116383Y-9682448D02*
X9125907Y-9663400D01*
X9125907Y-9663400D02*
X9125907Y-9615781D01*
X9125907Y-9615781D02*
X9116383Y-9596733D01*
X9116383Y-9596733D02*
X9106859Y-9587210D01*
X9106859Y-9587210D02*
X9087812Y-9577686D01*
X9087812Y-9577686D02*
X9049716Y-9577686D01*
X9049716Y-9577686D02*
X9030669Y-9587210D01*
X9030669Y-9587210D02*
X9021145Y-9596733D01*
X9021145Y-9596733D02*
X9011621Y-9615781D01*
X9364002Y-9701495D02*
X9364002Y-9501495D01*
X9449716Y-9701495D02*
X9449716Y-9596733D01*
X9449716Y-9596733D02*
X9440193Y-9577686D01*
X9440193Y-9577686D02*
X9421145Y-9568162D01*
X9421145Y-9568162D02*
X9392574Y-9568162D01*
X9392574Y-9568162D02*
X9373526Y-9577686D01*
X9373526Y-9577686D02*
X9364002Y-9587210D01*
X9573526Y-9701495D02*
X9554478Y-9691972D01*
X9554478Y-9691972D02*
X9544955Y-9682448D01*
X9544955Y-9682448D02*
X9535431Y-9663400D01*
X9535431Y-9663400D02*
X9535431Y-9606257D01*
X9535431Y-9606257D02*
X9544955Y-9587210D01*
X9544955Y-9587210D02*
X9554478Y-9577686D01*
X9554478Y-9577686D02*
X9573526Y-9568162D01*
X9573526Y-9568162D02*
X9602097Y-9568162D01*
X9602097Y-9568162D02*
X9621145Y-9577686D01*
X9621145Y-9577686D02*
X9630669Y-9587210D01*
X9630669Y-9587210D02*
X9640193Y-9606257D01*
X9640193Y-9606257D02*
X9640193Y-9663400D01*
X9640193Y-9663400D02*
X9630669Y-9682448D01*
X9630669Y-9682448D02*
X9621145Y-9691972D01*
X9621145Y-9691972D02*
X9602097Y-9701495D01*
X9602097Y-9701495D02*
X9573526Y-9701495D01*
X9754478Y-9701495D02*
X9735431Y-9691972D01*
X9735431Y-9691972D02*
X9725907Y-9672924D01*
X9725907Y-9672924D02*
X9725907Y-9501495D01*
X9906859Y-9691972D02*
X9887812Y-9701495D01*
X9887812Y-9701495D02*
X9849716Y-9701495D01*
X9849716Y-9701495D02*
X9830669Y-9691972D01*
X9830669Y-9691972D02*
X9821145Y-9672924D01*
X9821145Y-9672924D02*
X9821145Y-9596733D01*
X9821145Y-9596733D02*
X9830669Y-9577686D01*
X9830669Y-9577686D02*
X9849716Y-9568162D01*
X9849716Y-9568162D02*
X9887812Y-9568162D01*
X9887812Y-9568162D02*
X9906859Y-9577686D01*
X9906859Y-9577686D02*
X9916383Y-9596733D01*
X9916383Y-9596733D02*
X9916383Y-9615781D01*
X9916383Y-9615781D02*
X9821145Y-9634829D01*
X9992574Y-9691972D02*
X10011621Y-9701495D01*
X10011621Y-9701495D02*
X10049716Y-9701495D01*
X10049716Y-9701495D02*
X10068764Y-9691972D01*
X10068764Y-9691972D02*
X10078288Y-9672924D01*
X10078288Y-9672924D02*
X10078288Y-9663400D01*
X10078288Y-9663400D02*
X10068764Y-9644352D01*
X10068764Y-9644352D02*
X10049716Y-9634829D01*
X10049716Y-9634829D02*
X10021145Y-9634829D01*
X10021145Y-9634829D02*
X10002097Y-9625305D01*
X10002097Y-9625305D02*
X9992574Y-9606257D01*
X9992574Y-9606257D02*
X9992574Y-9596733D01*
X9992574Y-9596733D02*
X10002097Y-9577686D01*
X10002097Y-9577686D02*
X10021145Y-9568162D01*
X10021145Y-9568162D02*
X10049716Y-9568162D01*
X10049716Y-9568162D02*
X10068764Y-9577686D01*
X10144955Y-9777686D02*
X10154478Y-9768162D01*
X10154478Y-9768162D02*
X10173526Y-9739591D01*
X10173526Y-9739591D02*
X10183050Y-9720543D01*
X10183050Y-9720543D02*
X10192574Y-9691972D01*
X10192574Y-9691972D02*
X10202097Y-9644352D01*
X10202097Y-9644352D02*
X10202097Y-9606257D01*
X10202097Y-9606257D02*
X10192574Y-9558638D01*
X10192574Y-9558638D02*
X10183050Y-9530067D01*
X10183050Y-9530067D02*
X10173526Y-9511019D01*
X10173526Y-9511019D02*
X10154478Y-9482448D01*
X10154478Y-9482448D02*
X10144955Y-9472924D01*
D13*
X5369892Y-9874012D02*
G75*
G03*
X5369892Y-9874012I-35000J0D01*
G01*
D11*
X5668764Y-9765495D02*
X5687811Y-9765495D01*
X5687811Y-9765495D02*
X5706859Y-9775019D01*
X5706859Y-9775019D02*
X5716383Y-9784543D01*
X5716383Y-9784543D02*
X5725906Y-9803591D01*
X5725906Y-9803591D02*
X5735430Y-9841686D01*
X5735430Y-9841686D02*
X5735430Y-9889305D01*
X5735430Y-9889305D02*
X5725906Y-9927400D01*
X5725906Y-9927400D02*
X5716383Y-9946448D01*
X5716383Y-9946448D02*
X5706859Y-9955972D01*
X5706859Y-9955972D02*
X5687811Y-9965495D01*
X5687811Y-9965495D02*
X5668764Y-9965495D01*
X5668764Y-9965495D02*
X5649716Y-9955972D01*
X5649716Y-9955972D02*
X5640192Y-9946448D01*
X5640192Y-9946448D02*
X5630668Y-9927400D01*
X5630668Y-9927400D02*
X5621145Y-9889305D01*
X5621145Y-9889305D02*
X5621145Y-9841686D01*
X5621145Y-9841686D02*
X5630668Y-9803591D01*
X5630668Y-9803591D02*
X5640192Y-9784543D01*
X5640192Y-9784543D02*
X5649716Y-9775019D01*
X5649716Y-9775019D02*
X5668764Y-9765495D01*
X5821145Y-9946448D02*
X5830668Y-9955972D01*
X5830668Y-9955972D02*
X5821145Y-9965495D01*
X5821145Y-9965495D02*
X5811621Y-9955972D01*
X5811621Y-9955972D02*
X5821145Y-9946448D01*
X5821145Y-9946448D02*
X5821145Y-9965495D01*
X5897335Y-9765495D02*
X6030668Y-9765495D01*
X6030668Y-9765495D02*
X5944954Y-9965495D01*
X6144954Y-9765495D02*
X6164002Y-9765495D01*
X6164002Y-9765495D02*
X6183049Y-9775019D01*
X6183049Y-9775019D02*
X6192573Y-9784543D01*
X6192573Y-9784543D02*
X6202097Y-9803591D01*
X6202097Y-9803591D02*
X6211621Y-9841686D01*
X6211621Y-9841686D02*
X6211621Y-9889305D01*
X6211621Y-9889305D02*
X6202097Y-9927400D01*
X6202097Y-9927400D02*
X6192573Y-9946448D01*
X6192573Y-9946448D02*
X6183049Y-9955972D01*
X6183049Y-9955972D02*
X6164002Y-9965495D01*
X6164002Y-9965495D02*
X6144954Y-9965495D01*
X6144954Y-9965495D02*
X6125906Y-9955972D01*
X6125906Y-9955972D02*
X6116383Y-9946448D01*
X6116383Y-9946448D02*
X6106859Y-9927400D01*
X6106859Y-9927400D02*
X6097335Y-9889305D01*
X6097335Y-9889305D02*
X6097335Y-9841686D01*
X6097335Y-9841686D02*
X6106859Y-9803591D01*
X6106859Y-9803591D02*
X6116383Y-9784543D01*
X6116383Y-9784543D02*
X6125906Y-9775019D01*
X6125906Y-9775019D02*
X6144954Y-9765495D01*
X6335430Y-9765495D02*
X6354478Y-9765495D01*
X6354478Y-9765495D02*
X6373526Y-9775019D01*
X6373526Y-9775019D02*
X6383049Y-9784543D01*
X6383049Y-9784543D02*
X6392573Y-9803591D01*
X6392573Y-9803591D02*
X6402097Y-9841686D01*
X6402097Y-9841686D02*
X6402097Y-9889305D01*
X6402097Y-9889305D02*
X6392573Y-9927400D01*
X6392573Y-9927400D02*
X6383049Y-9946448D01*
X6383049Y-9946448D02*
X6373526Y-9955972D01*
X6373526Y-9955972D02*
X6354478Y-9965495D01*
X6354478Y-9965495D02*
X6335430Y-9965495D01*
X6335430Y-9965495D02*
X6316383Y-9955972D01*
X6316383Y-9955972D02*
X6306859Y-9946448D01*
X6306859Y-9946448D02*
X6297335Y-9927400D01*
X6297335Y-9927400D02*
X6287811Y-9889305D01*
X6287811Y-9889305D02*
X6287811Y-9841686D01*
X6287811Y-9841686D02*
X6297335Y-9803591D01*
X6297335Y-9803591D02*
X6306859Y-9784543D01*
X6306859Y-9784543D02*
X6316383Y-9775019D01*
X6316383Y-9775019D02*
X6335430Y-9765495D01*
X6487811Y-9965495D02*
X6487811Y-9832162D01*
X6487811Y-9851210D02*
X6497335Y-9841686D01*
X6497335Y-9841686D02*
X6516383Y-9832162D01*
X6516383Y-9832162D02*
X6544954Y-9832162D01*
X6544954Y-9832162D02*
X6564002Y-9841686D01*
X6564002Y-9841686D02*
X6573526Y-9860733D01*
X6573526Y-9860733D02*
X6573526Y-9965495D01*
X6573526Y-9860733D02*
X6583049Y-9841686D01*
X6583049Y-9841686D02*
X6602097Y-9832162D01*
X6602097Y-9832162D02*
X6630668Y-9832162D01*
X6630668Y-9832162D02*
X6649716Y-9841686D01*
X6649716Y-9841686D02*
X6659240Y-9860733D01*
X6659240Y-9860733D02*
X6659240Y-9965495D01*
X6754478Y-9965495D02*
X6754478Y-9832162D01*
X6754478Y-9851210D02*
X6764002Y-9841686D01*
X6764002Y-9841686D02*
X6783049Y-9832162D01*
X6783049Y-9832162D02*
X6811621Y-9832162D01*
X6811621Y-9832162D02*
X6830668Y-9841686D01*
X6830668Y-9841686D02*
X6840192Y-9860733D01*
X6840192Y-9860733D02*
X6840192Y-9965495D01*
X6840192Y-9860733D02*
X6849716Y-9841686D01*
X6849716Y-9841686D02*
X6868764Y-9832162D01*
X6868764Y-9832162D02*
X6897335Y-9832162D01*
X6897335Y-9832162D02*
X6916383Y-9841686D01*
X6916383Y-9841686D02*
X6925907Y-9860733D01*
X6925907Y-9860733D02*
X6925907Y-9965495D01*
X7316383Y-9755972D02*
X7144954Y-10013114D01*
X7573526Y-9765495D02*
X7592573Y-9765495D01*
X7592573Y-9765495D02*
X7611621Y-9775019D01*
X7611621Y-9775019D02*
X7621145Y-9784543D01*
X7621145Y-9784543D02*
X7630669Y-9803591D01*
X7630669Y-9803591D02*
X7640192Y-9841686D01*
X7640192Y-9841686D02*
X7640192Y-9889305D01*
X7640192Y-9889305D02*
X7630669Y-9927400D01*
X7630669Y-9927400D02*
X7621145Y-9946448D01*
X7621145Y-9946448D02*
X7611621Y-9955972D01*
X7611621Y-9955972D02*
X7592573Y-9965495D01*
X7592573Y-9965495D02*
X7573526Y-9965495D01*
X7573526Y-9965495D02*
X7554478Y-9955972D01*
X7554478Y-9955972D02*
X7544954Y-9946448D01*
X7544954Y-9946448D02*
X7535430Y-9927400D01*
X7535430Y-9927400D02*
X7525907Y-9889305D01*
X7525907Y-9889305D02*
X7525907Y-9841686D01*
X7525907Y-9841686D02*
X7535430Y-9803591D01*
X7535430Y-9803591D02*
X7544954Y-9784543D01*
X7544954Y-9784543D02*
X7554478Y-9775019D01*
X7554478Y-9775019D02*
X7573526Y-9765495D01*
X7725907Y-9946448D02*
X7735430Y-9955972D01*
X7735430Y-9955972D02*
X7725907Y-9965495D01*
X7725907Y-9965495D02*
X7716383Y-9955972D01*
X7716383Y-9955972D02*
X7725907Y-9946448D01*
X7725907Y-9946448D02*
X7725907Y-9965495D01*
X7859240Y-9765495D02*
X7878288Y-9765495D01*
X7878288Y-9765495D02*
X7897335Y-9775019D01*
X7897335Y-9775019D02*
X7906859Y-9784543D01*
X7906859Y-9784543D02*
X7916383Y-9803591D01*
X7916383Y-9803591D02*
X7925907Y-9841686D01*
X7925907Y-9841686D02*
X7925907Y-9889305D01*
X7925907Y-9889305D02*
X7916383Y-9927400D01*
X7916383Y-9927400D02*
X7906859Y-9946448D01*
X7906859Y-9946448D02*
X7897335Y-9955972D01*
X7897335Y-9955972D02*
X7878288Y-9965495D01*
X7878288Y-9965495D02*
X7859240Y-9965495D01*
X7859240Y-9965495D02*
X7840192Y-9955972D01*
X7840192Y-9955972D02*
X7830669Y-9946448D01*
X7830669Y-9946448D02*
X7821145Y-9927400D01*
X7821145Y-9927400D02*
X7811621Y-9889305D01*
X7811621Y-9889305D02*
X7811621Y-9841686D01*
X7811621Y-9841686D02*
X7821145Y-9803591D01*
X7821145Y-9803591D02*
X7830669Y-9784543D01*
X7830669Y-9784543D02*
X7840192Y-9775019D01*
X7840192Y-9775019D02*
X7859240Y-9765495D01*
X8002097Y-9784543D02*
X8011621Y-9775019D01*
X8011621Y-9775019D02*
X8030669Y-9765495D01*
X8030669Y-9765495D02*
X8078288Y-9765495D01*
X8078288Y-9765495D02*
X8097335Y-9775019D01*
X8097335Y-9775019D02*
X8106859Y-9784543D01*
X8106859Y-9784543D02*
X8116383Y-9803591D01*
X8116383Y-9803591D02*
X8116383Y-9822638D01*
X8116383Y-9822638D02*
X8106859Y-9851210D01*
X8106859Y-9851210D02*
X7992573Y-9965495D01*
X7992573Y-9965495D02*
X8116383Y-9965495D01*
X8183050Y-9765495D02*
X8316383Y-9765495D01*
X8316383Y-9765495D02*
X8230669Y-9965495D01*
X8478288Y-9765495D02*
X8440192Y-9765495D01*
X8440192Y-9765495D02*
X8421145Y-9775019D01*
X8421145Y-9775019D02*
X8411621Y-9784543D01*
X8411621Y-9784543D02*
X8392573Y-9813114D01*
X8392573Y-9813114D02*
X8383050Y-9851210D01*
X8383050Y-9851210D02*
X8383050Y-9927400D01*
X8383050Y-9927400D02*
X8392573Y-9946448D01*
X8392573Y-9946448D02*
X8402097Y-9955972D01*
X8402097Y-9955972D02*
X8421145Y-9965495D01*
X8421145Y-9965495D02*
X8459240Y-9965495D01*
X8459240Y-9965495D02*
X8478288Y-9955972D01*
X8478288Y-9955972D02*
X8487812Y-9946448D01*
X8487812Y-9946448D02*
X8497335Y-9927400D01*
X8497335Y-9927400D02*
X8497335Y-9879781D01*
X8497335Y-9879781D02*
X8487812Y-9860733D01*
X8487812Y-9860733D02*
X8478288Y-9851210D01*
X8478288Y-9851210D02*
X8459240Y-9841686D01*
X8459240Y-9841686D02*
X8421145Y-9841686D01*
X8421145Y-9841686D02*
X8402097Y-9851210D01*
X8402097Y-9851210D02*
X8392573Y-9860733D01*
X8392573Y-9860733D02*
X8383050Y-9879781D01*
X8573526Y-9765495D02*
X8573526Y-9803591D01*
X8649716Y-9765495D02*
X8649716Y-9803591D01*
X8944955Y-10041686D02*
X8935431Y-10032162D01*
X8935431Y-10032162D02*
X8916383Y-10003591D01*
X8916383Y-10003591D02*
X8906859Y-9984543D01*
X8906859Y-9984543D02*
X8897335Y-9955972D01*
X8897335Y-9955972D02*
X8887812Y-9908352D01*
X8887812Y-9908352D02*
X8887812Y-9870257D01*
X8887812Y-9870257D02*
X8897335Y-9822638D01*
X8897335Y-9822638D02*
X8906859Y-9794067D01*
X8906859Y-9794067D02*
X8916383Y-9775019D01*
X8916383Y-9775019D02*
X8935431Y-9746448D01*
X8935431Y-9746448D02*
X8944955Y-9736924D01*
X9116383Y-9765495D02*
X9021145Y-9765495D01*
X9021145Y-9765495D02*
X9011621Y-9860733D01*
X9011621Y-9860733D02*
X9021145Y-9851210D01*
X9021145Y-9851210D02*
X9040193Y-9841686D01*
X9040193Y-9841686D02*
X9087812Y-9841686D01*
X9087812Y-9841686D02*
X9106859Y-9851210D01*
X9106859Y-9851210D02*
X9116383Y-9860733D01*
X9116383Y-9860733D02*
X9125907Y-9879781D01*
X9125907Y-9879781D02*
X9125907Y-9927400D01*
X9125907Y-9927400D02*
X9116383Y-9946448D01*
X9116383Y-9946448D02*
X9106859Y-9955972D01*
X9106859Y-9955972D02*
X9087812Y-9965495D01*
X9087812Y-9965495D02*
X9040193Y-9965495D01*
X9040193Y-9965495D02*
X9021145Y-9955972D01*
X9021145Y-9955972D02*
X9011621Y-9946448D01*
X9364002Y-9965495D02*
X9364002Y-9765495D01*
X9449716Y-9965495D02*
X9449716Y-9860733D01*
X9449716Y-9860733D02*
X9440193Y-9841686D01*
X9440193Y-9841686D02*
X9421145Y-9832162D01*
X9421145Y-9832162D02*
X9392574Y-9832162D01*
X9392574Y-9832162D02*
X9373526Y-9841686D01*
X9373526Y-9841686D02*
X9364002Y-9851210D01*
X9573526Y-9965495D02*
X9554478Y-9955972D01*
X9554478Y-9955972D02*
X9544955Y-9946448D01*
X9544955Y-9946448D02*
X9535431Y-9927400D01*
X9535431Y-9927400D02*
X9535431Y-9870257D01*
X9535431Y-9870257D02*
X9544955Y-9851210D01*
X9544955Y-9851210D02*
X9554478Y-9841686D01*
X9554478Y-9841686D02*
X9573526Y-9832162D01*
X9573526Y-9832162D02*
X9602097Y-9832162D01*
X9602097Y-9832162D02*
X9621145Y-9841686D01*
X9621145Y-9841686D02*
X9630669Y-9851210D01*
X9630669Y-9851210D02*
X9640193Y-9870257D01*
X9640193Y-9870257D02*
X9640193Y-9927400D01*
X9640193Y-9927400D02*
X9630669Y-9946448D01*
X9630669Y-9946448D02*
X9621145Y-9955972D01*
X9621145Y-9955972D02*
X9602097Y-9965495D01*
X9602097Y-9965495D02*
X9573526Y-9965495D01*
X9754478Y-9965495D02*
X9735431Y-9955972D01*
X9735431Y-9955972D02*
X9725907Y-9936924D01*
X9725907Y-9936924D02*
X9725907Y-9765495D01*
X9906859Y-9955972D02*
X9887812Y-9965495D01*
X9887812Y-9965495D02*
X9849716Y-9965495D01*
X9849716Y-9965495D02*
X9830669Y-9955972D01*
X9830669Y-9955972D02*
X9821145Y-9936924D01*
X9821145Y-9936924D02*
X9821145Y-9860733D01*
X9821145Y-9860733D02*
X9830669Y-9841686D01*
X9830669Y-9841686D02*
X9849716Y-9832162D01*
X9849716Y-9832162D02*
X9887812Y-9832162D01*
X9887812Y-9832162D02*
X9906859Y-9841686D01*
X9906859Y-9841686D02*
X9916383Y-9860733D01*
X9916383Y-9860733D02*
X9916383Y-9879781D01*
X9916383Y-9879781D02*
X9821145Y-9898829D01*
X9992574Y-9955972D02*
X10011621Y-9965495D01*
X10011621Y-9965495D02*
X10049716Y-9965495D01*
X10049716Y-9965495D02*
X10068764Y-9955972D01*
X10068764Y-9955972D02*
X10078288Y-9936924D01*
X10078288Y-9936924D02*
X10078288Y-9927400D01*
X10078288Y-9927400D02*
X10068764Y-9908352D01*
X10068764Y-9908352D02*
X10049716Y-9898829D01*
X10049716Y-9898829D02*
X10021145Y-9898829D01*
X10021145Y-9898829D02*
X10002097Y-9889305D01*
X10002097Y-9889305D02*
X9992574Y-9870257D01*
X9992574Y-9870257D02*
X9992574Y-9860733D01*
X9992574Y-9860733D02*
X10002097Y-9841686D01*
X10002097Y-9841686D02*
X10021145Y-9832162D01*
X10021145Y-9832162D02*
X10049716Y-9832162D01*
X10049716Y-9832162D02*
X10068764Y-9841686D01*
X10144955Y-10041686D02*
X10154478Y-10032162D01*
X10154478Y-10032162D02*
X10173526Y-10003591D01*
X10173526Y-10003591D02*
X10183050Y-9984543D01*
X10183050Y-9984543D02*
X10192574Y-9955972D01*
X10192574Y-9955972D02*
X10202097Y-9908352D01*
X10202097Y-9908352D02*
X10202097Y-9870257D01*
X10202097Y-9870257D02*
X10192574Y-9822638D01*
X10192574Y-9822638D02*
X10183050Y-9794067D01*
X10183050Y-9794067D02*
X10173526Y-9775019D01*
X10173526Y-9775019D02*
X10154478Y-9746448D01*
X10154478Y-9746448D02*
X10144955Y-9736924D01*
D14*
X5332392Y-10100512D02*
X5332392Y-10175512D01*
X5294892Y-10138012D02*
X5369892Y-10138012D01*
D11*
X5668764Y-10029495D02*
X5687811Y-10029495D01*
X5687811Y-10029495D02*
X5706859Y-10039019D01*
X5706859Y-10039019D02*
X5716383Y-10048543D01*
X5716383Y-10048543D02*
X5725906Y-10067591D01*
X5725906Y-10067591D02*
X5735430Y-10105686D01*
X5735430Y-10105686D02*
X5735430Y-10153305D01*
X5735430Y-10153305D02*
X5725906Y-10191400D01*
X5725906Y-10191400D02*
X5716383Y-10210448D01*
X5716383Y-10210448D02*
X5706859Y-10219972D01*
X5706859Y-10219972D02*
X5687811Y-10229495D01*
X5687811Y-10229495D02*
X5668764Y-10229495D01*
X5668764Y-10229495D02*
X5649716Y-10219972D01*
X5649716Y-10219972D02*
X5640192Y-10210448D01*
X5640192Y-10210448D02*
X5630668Y-10191400D01*
X5630668Y-10191400D02*
X5621145Y-10153305D01*
X5621145Y-10153305D02*
X5621145Y-10105686D01*
X5621145Y-10105686D02*
X5630668Y-10067591D01*
X5630668Y-10067591D02*
X5640192Y-10048543D01*
X5640192Y-10048543D02*
X5649716Y-10039019D01*
X5649716Y-10039019D02*
X5668764Y-10029495D01*
X5821145Y-10210448D02*
X5830668Y-10219972D01*
X5830668Y-10219972D02*
X5821145Y-10229495D01*
X5821145Y-10229495D02*
X5811621Y-10219972D01*
X5811621Y-10219972D02*
X5821145Y-10210448D01*
X5821145Y-10210448D02*
X5821145Y-10229495D01*
X5897335Y-10029495D02*
X6030668Y-10029495D01*
X6030668Y-10029495D02*
X5944954Y-10229495D01*
X6202097Y-10029495D02*
X6106859Y-10029495D01*
X6106859Y-10029495D02*
X6097335Y-10124733D01*
X6097335Y-10124733D02*
X6106859Y-10115210D01*
X6106859Y-10115210D02*
X6125906Y-10105686D01*
X6125906Y-10105686D02*
X6173526Y-10105686D01*
X6173526Y-10105686D02*
X6192573Y-10115210D01*
X6192573Y-10115210D02*
X6202097Y-10124733D01*
X6202097Y-10124733D02*
X6211621Y-10143781D01*
X6211621Y-10143781D02*
X6211621Y-10191400D01*
X6211621Y-10191400D02*
X6202097Y-10210448D01*
X6202097Y-10210448D02*
X6192573Y-10219972D01*
X6192573Y-10219972D02*
X6173526Y-10229495D01*
X6173526Y-10229495D02*
X6125906Y-10229495D01*
X6125906Y-10229495D02*
X6106859Y-10219972D01*
X6106859Y-10219972D02*
X6097335Y-10210448D01*
X6335430Y-10029495D02*
X6354478Y-10029495D01*
X6354478Y-10029495D02*
X6373526Y-10039019D01*
X6373526Y-10039019D02*
X6383049Y-10048543D01*
X6383049Y-10048543D02*
X6392573Y-10067591D01*
X6392573Y-10067591D02*
X6402097Y-10105686D01*
X6402097Y-10105686D02*
X6402097Y-10153305D01*
X6402097Y-10153305D02*
X6392573Y-10191400D01*
X6392573Y-10191400D02*
X6383049Y-10210448D01*
X6383049Y-10210448D02*
X6373526Y-10219972D01*
X6373526Y-10219972D02*
X6354478Y-10229495D01*
X6354478Y-10229495D02*
X6335430Y-10229495D01*
X6335430Y-10229495D02*
X6316383Y-10219972D01*
X6316383Y-10219972D02*
X6306859Y-10210448D01*
X6306859Y-10210448D02*
X6297335Y-10191400D01*
X6297335Y-10191400D02*
X6287811Y-10153305D01*
X6287811Y-10153305D02*
X6287811Y-10105686D01*
X6287811Y-10105686D02*
X6297335Y-10067591D01*
X6297335Y-10067591D02*
X6306859Y-10048543D01*
X6306859Y-10048543D02*
X6316383Y-10039019D01*
X6316383Y-10039019D02*
X6335430Y-10029495D01*
X6487811Y-10229495D02*
X6487811Y-10096162D01*
X6487811Y-10115210D02*
X6497335Y-10105686D01*
X6497335Y-10105686D02*
X6516383Y-10096162D01*
X6516383Y-10096162D02*
X6544954Y-10096162D01*
X6544954Y-10096162D02*
X6564002Y-10105686D01*
X6564002Y-10105686D02*
X6573526Y-10124733D01*
X6573526Y-10124733D02*
X6573526Y-10229495D01*
X6573526Y-10124733D02*
X6583049Y-10105686D01*
X6583049Y-10105686D02*
X6602097Y-10096162D01*
X6602097Y-10096162D02*
X6630668Y-10096162D01*
X6630668Y-10096162D02*
X6649716Y-10105686D01*
X6649716Y-10105686D02*
X6659240Y-10124733D01*
X6659240Y-10124733D02*
X6659240Y-10229495D01*
X6754478Y-10229495D02*
X6754478Y-10096162D01*
X6754478Y-10115210D02*
X6764002Y-10105686D01*
X6764002Y-10105686D02*
X6783049Y-10096162D01*
X6783049Y-10096162D02*
X6811621Y-10096162D01*
X6811621Y-10096162D02*
X6830668Y-10105686D01*
X6830668Y-10105686D02*
X6840192Y-10124733D01*
X6840192Y-10124733D02*
X6840192Y-10229495D01*
X6840192Y-10124733D02*
X6849716Y-10105686D01*
X6849716Y-10105686D02*
X6868764Y-10096162D01*
X6868764Y-10096162D02*
X6897335Y-10096162D01*
X6897335Y-10096162D02*
X6916383Y-10105686D01*
X6916383Y-10105686D02*
X6925907Y-10124733D01*
X6925907Y-10124733D02*
X6925907Y-10229495D01*
X7316383Y-10019972D02*
X7144954Y-10277114D01*
X7573526Y-10029495D02*
X7592573Y-10029495D01*
X7592573Y-10029495D02*
X7611621Y-10039019D01*
X7611621Y-10039019D02*
X7621145Y-10048543D01*
X7621145Y-10048543D02*
X7630669Y-10067591D01*
X7630669Y-10067591D02*
X7640192Y-10105686D01*
X7640192Y-10105686D02*
X7640192Y-10153305D01*
X7640192Y-10153305D02*
X7630669Y-10191400D01*
X7630669Y-10191400D02*
X7621145Y-10210448D01*
X7621145Y-10210448D02*
X7611621Y-10219972D01*
X7611621Y-10219972D02*
X7592573Y-10229495D01*
X7592573Y-10229495D02*
X7573526Y-10229495D01*
X7573526Y-10229495D02*
X7554478Y-10219972D01*
X7554478Y-10219972D02*
X7544954Y-10210448D01*
X7544954Y-10210448D02*
X7535430Y-10191400D01*
X7535430Y-10191400D02*
X7525907Y-10153305D01*
X7525907Y-10153305D02*
X7525907Y-10105686D01*
X7525907Y-10105686D02*
X7535430Y-10067591D01*
X7535430Y-10067591D02*
X7544954Y-10048543D01*
X7544954Y-10048543D02*
X7554478Y-10039019D01*
X7554478Y-10039019D02*
X7573526Y-10029495D01*
X7725907Y-10210448D02*
X7735430Y-10219972D01*
X7735430Y-10219972D02*
X7725907Y-10229495D01*
X7725907Y-10229495D02*
X7716383Y-10219972D01*
X7716383Y-10219972D02*
X7725907Y-10210448D01*
X7725907Y-10210448D02*
X7725907Y-10229495D01*
X7859240Y-10029495D02*
X7878288Y-10029495D01*
X7878288Y-10029495D02*
X7897335Y-10039019D01*
X7897335Y-10039019D02*
X7906859Y-10048543D01*
X7906859Y-10048543D02*
X7916383Y-10067591D01*
X7916383Y-10067591D02*
X7925907Y-10105686D01*
X7925907Y-10105686D02*
X7925907Y-10153305D01*
X7925907Y-10153305D02*
X7916383Y-10191400D01*
X7916383Y-10191400D02*
X7906859Y-10210448D01*
X7906859Y-10210448D02*
X7897335Y-10219972D01*
X7897335Y-10219972D02*
X7878288Y-10229495D01*
X7878288Y-10229495D02*
X7859240Y-10229495D01*
X7859240Y-10229495D02*
X7840192Y-10219972D01*
X7840192Y-10219972D02*
X7830669Y-10210448D01*
X7830669Y-10210448D02*
X7821145Y-10191400D01*
X7821145Y-10191400D02*
X7811621Y-10153305D01*
X7811621Y-10153305D02*
X7811621Y-10105686D01*
X7811621Y-10105686D02*
X7821145Y-10067591D01*
X7821145Y-10067591D02*
X7830669Y-10048543D01*
X7830669Y-10048543D02*
X7840192Y-10039019D01*
X7840192Y-10039019D02*
X7859240Y-10029495D01*
X8002097Y-10048543D02*
X8011621Y-10039019D01*
X8011621Y-10039019D02*
X8030669Y-10029495D01*
X8030669Y-10029495D02*
X8078288Y-10029495D01*
X8078288Y-10029495D02*
X8097335Y-10039019D01*
X8097335Y-10039019D02*
X8106859Y-10048543D01*
X8106859Y-10048543D02*
X8116383Y-10067591D01*
X8116383Y-10067591D02*
X8116383Y-10086638D01*
X8116383Y-10086638D02*
X8106859Y-10115210D01*
X8106859Y-10115210D02*
X7992573Y-10229495D01*
X7992573Y-10229495D02*
X8116383Y-10229495D01*
X8211621Y-10229495D02*
X8249716Y-10229495D01*
X8249716Y-10229495D02*
X8268764Y-10219972D01*
X8268764Y-10219972D02*
X8278288Y-10210448D01*
X8278288Y-10210448D02*
X8297335Y-10181876D01*
X8297335Y-10181876D02*
X8306859Y-10143781D01*
X8306859Y-10143781D02*
X8306859Y-10067591D01*
X8306859Y-10067591D02*
X8297335Y-10048543D01*
X8297335Y-10048543D02*
X8287811Y-10039019D01*
X8287811Y-10039019D02*
X8268764Y-10029495D01*
X8268764Y-10029495D02*
X8230669Y-10029495D01*
X8230669Y-10029495D02*
X8211621Y-10039019D01*
X8211621Y-10039019D02*
X8202097Y-10048543D01*
X8202097Y-10048543D02*
X8192573Y-10067591D01*
X8192573Y-10067591D02*
X8192573Y-10115210D01*
X8192573Y-10115210D02*
X8202097Y-10134257D01*
X8202097Y-10134257D02*
X8211621Y-10143781D01*
X8211621Y-10143781D02*
X8230669Y-10153305D01*
X8230669Y-10153305D02*
X8268764Y-10153305D01*
X8268764Y-10153305D02*
X8287811Y-10143781D01*
X8287811Y-10143781D02*
X8297335Y-10134257D01*
X8297335Y-10134257D02*
X8306859Y-10115210D01*
X8487812Y-10029495D02*
X8392573Y-10029495D01*
X8392573Y-10029495D02*
X8383050Y-10124733D01*
X8383050Y-10124733D02*
X8392573Y-10115210D01*
X8392573Y-10115210D02*
X8411621Y-10105686D01*
X8411621Y-10105686D02*
X8459240Y-10105686D01*
X8459240Y-10105686D02*
X8478288Y-10115210D01*
X8478288Y-10115210D02*
X8487812Y-10124733D01*
X8487812Y-10124733D02*
X8497335Y-10143781D01*
X8497335Y-10143781D02*
X8497335Y-10191400D01*
X8497335Y-10191400D02*
X8487812Y-10210448D01*
X8487812Y-10210448D02*
X8478288Y-10219972D01*
X8478288Y-10219972D02*
X8459240Y-10229495D01*
X8459240Y-10229495D02*
X8411621Y-10229495D01*
X8411621Y-10229495D02*
X8392573Y-10219972D01*
X8392573Y-10219972D02*
X8383050Y-10210448D01*
X8573526Y-10029495D02*
X8573526Y-10067591D01*
X8649716Y-10029495D02*
X8649716Y-10067591D01*
X8944955Y-10305686D02*
X8935431Y-10296162D01*
X8935431Y-10296162D02*
X8916383Y-10267591D01*
X8916383Y-10267591D02*
X8906859Y-10248543D01*
X8906859Y-10248543D02*
X8897335Y-10219972D01*
X8897335Y-10219972D02*
X8887812Y-10172352D01*
X8887812Y-10172352D02*
X8887812Y-10134257D01*
X8887812Y-10134257D02*
X8897335Y-10086638D01*
X8897335Y-10086638D02*
X8906859Y-10058067D01*
X8906859Y-10058067D02*
X8916383Y-10039019D01*
X8916383Y-10039019D02*
X8935431Y-10010448D01*
X8935431Y-10010448D02*
X8944955Y-10000924D01*
X9030669Y-10229495D02*
X9068764Y-10229495D01*
X9068764Y-10229495D02*
X9087812Y-10219972D01*
X9087812Y-10219972D02*
X9097335Y-10210448D01*
X9097335Y-10210448D02*
X9116383Y-10181876D01*
X9116383Y-10181876D02*
X9125907Y-10143781D01*
X9125907Y-10143781D02*
X9125907Y-10067591D01*
X9125907Y-10067591D02*
X9116383Y-10048543D01*
X9116383Y-10048543D02*
X9106859Y-10039019D01*
X9106859Y-10039019D02*
X9087812Y-10029495D01*
X9087812Y-10029495D02*
X9049716Y-10029495D01*
X9049716Y-10029495D02*
X9030669Y-10039019D01*
X9030669Y-10039019D02*
X9021145Y-10048543D01*
X9021145Y-10048543D02*
X9011621Y-10067591D01*
X9011621Y-10067591D02*
X9011621Y-10115210D01*
X9011621Y-10115210D02*
X9021145Y-10134257D01*
X9021145Y-10134257D02*
X9030669Y-10143781D01*
X9030669Y-10143781D02*
X9049716Y-10153305D01*
X9049716Y-10153305D02*
X9087812Y-10153305D01*
X9087812Y-10153305D02*
X9106859Y-10143781D01*
X9106859Y-10143781D02*
X9116383Y-10134257D01*
X9116383Y-10134257D02*
X9125907Y-10115210D01*
X9364002Y-10229495D02*
X9364002Y-10029495D01*
X9449716Y-10229495D02*
X9449716Y-10124733D01*
X9449716Y-10124733D02*
X9440193Y-10105686D01*
X9440193Y-10105686D02*
X9421145Y-10096162D01*
X9421145Y-10096162D02*
X9392574Y-10096162D01*
X9392574Y-10096162D02*
X9373526Y-10105686D01*
X9373526Y-10105686D02*
X9364002Y-10115210D01*
X9573526Y-10229495D02*
X9554478Y-10219972D01*
X9554478Y-10219972D02*
X9544955Y-10210448D01*
X9544955Y-10210448D02*
X9535431Y-10191400D01*
X9535431Y-10191400D02*
X9535431Y-10134257D01*
X9535431Y-10134257D02*
X9544955Y-10115210D01*
X9544955Y-10115210D02*
X9554478Y-10105686D01*
X9554478Y-10105686D02*
X9573526Y-10096162D01*
X9573526Y-10096162D02*
X9602097Y-10096162D01*
X9602097Y-10096162D02*
X9621145Y-10105686D01*
X9621145Y-10105686D02*
X9630669Y-10115210D01*
X9630669Y-10115210D02*
X9640193Y-10134257D01*
X9640193Y-10134257D02*
X9640193Y-10191400D01*
X9640193Y-10191400D02*
X9630669Y-10210448D01*
X9630669Y-10210448D02*
X9621145Y-10219972D01*
X9621145Y-10219972D02*
X9602097Y-10229495D01*
X9602097Y-10229495D02*
X9573526Y-10229495D01*
X9754478Y-10229495D02*
X9735431Y-10219972D01*
X9735431Y-10219972D02*
X9725907Y-10200924D01*
X9725907Y-10200924D02*
X9725907Y-10029495D01*
X9906859Y-10219972D02*
X9887812Y-10229495D01*
X9887812Y-10229495D02*
X9849716Y-10229495D01*
X9849716Y-10229495D02*
X9830669Y-10219972D01*
X9830669Y-10219972D02*
X9821145Y-10200924D01*
X9821145Y-10200924D02*
X9821145Y-10124733D01*
X9821145Y-10124733D02*
X9830669Y-10105686D01*
X9830669Y-10105686D02*
X9849716Y-10096162D01*
X9849716Y-10096162D02*
X9887812Y-10096162D01*
X9887812Y-10096162D02*
X9906859Y-10105686D01*
X9906859Y-10105686D02*
X9916383Y-10124733D01*
X9916383Y-10124733D02*
X9916383Y-10143781D01*
X9916383Y-10143781D02*
X9821145Y-10162829D01*
X9992574Y-10219972D02*
X10011621Y-10229495D01*
X10011621Y-10229495D02*
X10049716Y-10229495D01*
X10049716Y-10229495D02*
X10068764Y-10219972D01*
X10068764Y-10219972D02*
X10078288Y-10200924D01*
X10078288Y-10200924D02*
X10078288Y-10191400D01*
X10078288Y-10191400D02*
X10068764Y-10172352D01*
X10068764Y-10172352D02*
X10049716Y-10162829D01*
X10049716Y-10162829D02*
X10021145Y-10162829D01*
X10021145Y-10162829D02*
X10002097Y-10153305D01*
X10002097Y-10153305D02*
X9992574Y-10134257D01*
X9992574Y-10134257D02*
X9992574Y-10124733D01*
X9992574Y-10124733D02*
X10002097Y-10105686D01*
X10002097Y-10105686D02*
X10021145Y-10096162D01*
X10021145Y-10096162D02*
X10049716Y-10096162D01*
X10049716Y-10096162D02*
X10068764Y-10105686D01*
X10144955Y-10305686D02*
X10154478Y-10296162D01*
X10154478Y-10296162D02*
X10173526Y-10267591D01*
X10173526Y-10267591D02*
X10183050Y-10248543D01*
X10183050Y-10248543D02*
X10192574Y-10219972D01*
X10192574Y-10219972D02*
X10202097Y-10172352D01*
X10202097Y-10172352D02*
X10202097Y-10134257D01*
X10202097Y-10134257D02*
X10192574Y-10086638D01*
X10192574Y-10086638D02*
X10183050Y-10058067D01*
X10183050Y-10058067D02*
X10173526Y-10039019D01*
X10173526Y-10039019D02*
X10154478Y-10010448D01*
X10154478Y-10010448D02*
X10144955Y-10000924D01*
D15*
X5358176Y-10430296D02*
X5358176Y-10373727D01*
X5301607Y-10373727D01*
X5301607Y-10430296D01*
X5358176Y-10430296D01*
D11*
X5668764Y-10293495D02*
X5687811Y-10293495D01*
X5687811Y-10293495D02*
X5706859Y-10303019D01*
X5706859Y-10303019D02*
X5716383Y-10312543D01*
X5716383Y-10312543D02*
X5725906Y-10331591D01*
X5725906Y-10331591D02*
X5735430Y-10369686D01*
X5735430Y-10369686D02*
X5735430Y-10417305D01*
X5735430Y-10417305D02*
X5725906Y-10455400D01*
X5725906Y-10455400D02*
X5716383Y-10474448D01*
X5716383Y-10474448D02*
X5706859Y-10483972D01*
X5706859Y-10483972D02*
X5687811Y-10493495D01*
X5687811Y-10493495D02*
X5668764Y-10493495D01*
X5668764Y-10493495D02*
X5649716Y-10483972D01*
X5649716Y-10483972D02*
X5640192Y-10474448D01*
X5640192Y-10474448D02*
X5630668Y-10455400D01*
X5630668Y-10455400D02*
X5621145Y-10417305D01*
X5621145Y-10417305D02*
X5621145Y-10369686D01*
X5621145Y-10369686D02*
X5630668Y-10331591D01*
X5630668Y-10331591D02*
X5640192Y-10312543D01*
X5640192Y-10312543D02*
X5649716Y-10303019D01*
X5649716Y-10303019D02*
X5668764Y-10293495D01*
X5821145Y-10474448D02*
X5830668Y-10483972D01*
X5830668Y-10483972D02*
X5821145Y-10493495D01*
X5821145Y-10493495D02*
X5811621Y-10483972D01*
X5811621Y-10483972D02*
X5821145Y-10474448D01*
X5821145Y-10474448D02*
X5821145Y-10493495D01*
X5944954Y-10379210D02*
X5925906Y-10369686D01*
X5925906Y-10369686D02*
X5916383Y-10360162D01*
X5916383Y-10360162D02*
X5906859Y-10341114D01*
X5906859Y-10341114D02*
X5906859Y-10331591D01*
X5906859Y-10331591D02*
X5916383Y-10312543D01*
X5916383Y-10312543D02*
X5925906Y-10303019D01*
X5925906Y-10303019D02*
X5944954Y-10293495D01*
X5944954Y-10293495D02*
X5983049Y-10293495D01*
X5983049Y-10293495D02*
X6002097Y-10303019D01*
X6002097Y-10303019D02*
X6011621Y-10312543D01*
X6011621Y-10312543D02*
X6021145Y-10331591D01*
X6021145Y-10331591D02*
X6021145Y-10341114D01*
X6021145Y-10341114D02*
X6011621Y-10360162D01*
X6011621Y-10360162D02*
X6002097Y-10369686D01*
X6002097Y-10369686D02*
X5983049Y-10379210D01*
X5983049Y-10379210D02*
X5944954Y-10379210D01*
X5944954Y-10379210D02*
X5925906Y-10388733D01*
X5925906Y-10388733D02*
X5916383Y-10398257D01*
X5916383Y-10398257D02*
X5906859Y-10417305D01*
X5906859Y-10417305D02*
X5906859Y-10455400D01*
X5906859Y-10455400D02*
X5916383Y-10474448D01*
X5916383Y-10474448D02*
X5925906Y-10483972D01*
X5925906Y-10483972D02*
X5944954Y-10493495D01*
X5944954Y-10493495D02*
X5983049Y-10493495D01*
X5983049Y-10493495D02*
X6002097Y-10483972D01*
X6002097Y-10483972D02*
X6011621Y-10474448D01*
X6011621Y-10474448D02*
X6021145Y-10455400D01*
X6021145Y-10455400D02*
X6021145Y-10417305D01*
X6021145Y-10417305D02*
X6011621Y-10398257D01*
X6011621Y-10398257D02*
X6002097Y-10388733D01*
X6002097Y-10388733D02*
X5983049Y-10379210D01*
X6144954Y-10293495D02*
X6164002Y-10293495D01*
X6164002Y-10293495D02*
X6183049Y-10303019D01*
X6183049Y-10303019D02*
X6192573Y-10312543D01*
X6192573Y-10312543D02*
X6202097Y-10331591D01*
X6202097Y-10331591D02*
X6211621Y-10369686D01*
X6211621Y-10369686D02*
X6211621Y-10417305D01*
X6211621Y-10417305D02*
X6202097Y-10455400D01*
X6202097Y-10455400D02*
X6192573Y-10474448D01*
X6192573Y-10474448D02*
X6183049Y-10483972D01*
X6183049Y-10483972D02*
X6164002Y-10493495D01*
X6164002Y-10493495D02*
X6144954Y-10493495D01*
X6144954Y-10493495D02*
X6125906Y-10483972D01*
X6125906Y-10483972D02*
X6116383Y-10474448D01*
X6116383Y-10474448D02*
X6106859Y-10455400D01*
X6106859Y-10455400D02*
X6097335Y-10417305D01*
X6097335Y-10417305D02*
X6097335Y-10369686D01*
X6097335Y-10369686D02*
X6106859Y-10331591D01*
X6106859Y-10331591D02*
X6116383Y-10312543D01*
X6116383Y-10312543D02*
X6125906Y-10303019D01*
X6125906Y-10303019D02*
X6144954Y-10293495D01*
X6335430Y-10293495D02*
X6354478Y-10293495D01*
X6354478Y-10293495D02*
X6373526Y-10303019D01*
X6373526Y-10303019D02*
X6383049Y-10312543D01*
X6383049Y-10312543D02*
X6392573Y-10331591D01*
X6392573Y-10331591D02*
X6402097Y-10369686D01*
X6402097Y-10369686D02*
X6402097Y-10417305D01*
X6402097Y-10417305D02*
X6392573Y-10455400D01*
X6392573Y-10455400D02*
X6383049Y-10474448D01*
X6383049Y-10474448D02*
X6373526Y-10483972D01*
X6373526Y-10483972D02*
X6354478Y-10493495D01*
X6354478Y-10493495D02*
X6335430Y-10493495D01*
X6335430Y-10493495D02*
X6316383Y-10483972D01*
X6316383Y-10483972D02*
X6306859Y-10474448D01*
X6306859Y-10474448D02*
X6297335Y-10455400D01*
X6297335Y-10455400D02*
X6287811Y-10417305D01*
X6287811Y-10417305D02*
X6287811Y-10369686D01*
X6287811Y-10369686D02*
X6297335Y-10331591D01*
X6297335Y-10331591D02*
X6306859Y-10312543D01*
X6306859Y-10312543D02*
X6316383Y-10303019D01*
X6316383Y-10303019D02*
X6335430Y-10293495D01*
X6487811Y-10493495D02*
X6487811Y-10360162D01*
X6487811Y-10379210D02*
X6497335Y-10369686D01*
X6497335Y-10369686D02*
X6516383Y-10360162D01*
X6516383Y-10360162D02*
X6544954Y-10360162D01*
X6544954Y-10360162D02*
X6564002Y-10369686D01*
X6564002Y-10369686D02*
X6573526Y-10388733D01*
X6573526Y-10388733D02*
X6573526Y-10493495D01*
X6573526Y-10388733D02*
X6583049Y-10369686D01*
X6583049Y-10369686D02*
X6602097Y-10360162D01*
X6602097Y-10360162D02*
X6630668Y-10360162D01*
X6630668Y-10360162D02*
X6649716Y-10369686D01*
X6649716Y-10369686D02*
X6659240Y-10388733D01*
X6659240Y-10388733D02*
X6659240Y-10493495D01*
X6754478Y-10493495D02*
X6754478Y-10360162D01*
X6754478Y-10379210D02*
X6764002Y-10369686D01*
X6764002Y-10369686D02*
X6783049Y-10360162D01*
X6783049Y-10360162D02*
X6811621Y-10360162D01*
X6811621Y-10360162D02*
X6830668Y-10369686D01*
X6830668Y-10369686D02*
X6840192Y-10388733D01*
X6840192Y-10388733D02*
X6840192Y-10493495D01*
X6840192Y-10388733D02*
X6849716Y-10369686D01*
X6849716Y-10369686D02*
X6868764Y-10360162D01*
X6868764Y-10360162D02*
X6897335Y-10360162D01*
X6897335Y-10360162D02*
X6916383Y-10369686D01*
X6916383Y-10369686D02*
X6925907Y-10388733D01*
X6925907Y-10388733D02*
X6925907Y-10493495D01*
X7316383Y-10283972D02*
X7144954Y-10541114D01*
X7573526Y-10293495D02*
X7592573Y-10293495D01*
X7592573Y-10293495D02*
X7611621Y-10303019D01*
X7611621Y-10303019D02*
X7621145Y-10312543D01*
X7621145Y-10312543D02*
X7630669Y-10331591D01*
X7630669Y-10331591D02*
X7640192Y-10369686D01*
X7640192Y-10369686D02*
X7640192Y-10417305D01*
X7640192Y-10417305D02*
X7630669Y-10455400D01*
X7630669Y-10455400D02*
X7621145Y-10474448D01*
X7621145Y-10474448D02*
X7611621Y-10483972D01*
X7611621Y-10483972D02*
X7592573Y-10493495D01*
X7592573Y-10493495D02*
X7573526Y-10493495D01*
X7573526Y-10493495D02*
X7554478Y-10483972D01*
X7554478Y-10483972D02*
X7544954Y-10474448D01*
X7544954Y-10474448D02*
X7535430Y-10455400D01*
X7535430Y-10455400D02*
X7525907Y-10417305D01*
X7525907Y-10417305D02*
X7525907Y-10369686D01*
X7525907Y-10369686D02*
X7535430Y-10331591D01*
X7535430Y-10331591D02*
X7544954Y-10312543D01*
X7544954Y-10312543D02*
X7554478Y-10303019D01*
X7554478Y-10303019D02*
X7573526Y-10293495D01*
X7725907Y-10474448D02*
X7735430Y-10483972D01*
X7735430Y-10483972D02*
X7725907Y-10493495D01*
X7725907Y-10493495D02*
X7716383Y-10483972D01*
X7716383Y-10483972D02*
X7725907Y-10474448D01*
X7725907Y-10474448D02*
X7725907Y-10493495D01*
X7859240Y-10293495D02*
X7878288Y-10293495D01*
X7878288Y-10293495D02*
X7897335Y-10303019D01*
X7897335Y-10303019D02*
X7906859Y-10312543D01*
X7906859Y-10312543D02*
X7916383Y-10331591D01*
X7916383Y-10331591D02*
X7925907Y-10369686D01*
X7925907Y-10369686D02*
X7925907Y-10417305D01*
X7925907Y-10417305D02*
X7916383Y-10455400D01*
X7916383Y-10455400D02*
X7906859Y-10474448D01*
X7906859Y-10474448D02*
X7897335Y-10483972D01*
X7897335Y-10483972D02*
X7878288Y-10493495D01*
X7878288Y-10493495D02*
X7859240Y-10493495D01*
X7859240Y-10493495D02*
X7840192Y-10483972D01*
X7840192Y-10483972D02*
X7830669Y-10474448D01*
X7830669Y-10474448D02*
X7821145Y-10455400D01*
X7821145Y-10455400D02*
X7811621Y-10417305D01*
X7811621Y-10417305D02*
X7811621Y-10369686D01*
X7811621Y-10369686D02*
X7821145Y-10331591D01*
X7821145Y-10331591D02*
X7830669Y-10312543D01*
X7830669Y-10312543D02*
X7840192Y-10303019D01*
X7840192Y-10303019D02*
X7859240Y-10293495D01*
X7992573Y-10293495D02*
X8116383Y-10293495D01*
X8116383Y-10293495D02*
X8049716Y-10369686D01*
X8049716Y-10369686D02*
X8078288Y-10369686D01*
X8078288Y-10369686D02*
X8097335Y-10379210D01*
X8097335Y-10379210D02*
X8106859Y-10388733D01*
X8106859Y-10388733D02*
X8116383Y-10407781D01*
X8116383Y-10407781D02*
X8116383Y-10455400D01*
X8116383Y-10455400D02*
X8106859Y-10474448D01*
X8106859Y-10474448D02*
X8097335Y-10483972D01*
X8097335Y-10483972D02*
X8078288Y-10493495D01*
X8078288Y-10493495D02*
X8021145Y-10493495D01*
X8021145Y-10493495D02*
X8002097Y-10483972D01*
X8002097Y-10483972D02*
X7992573Y-10474448D01*
X8306859Y-10493495D02*
X8192573Y-10493495D01*
X8249716Y-10493495D02*
X8249716Y-10293495D01*
X8249716Y-10293495D02*
X8230669Y-10322067D01*
X8230669Y-10322067D02*
X8211621Y-10341114D01*
X8211621Y-10341114D02*
X8192573Y-10350638D01*
X8487812Y-10293495D02*
X8392573Y-10293495D01*
X8392573Y-10293495D02*
X8383050Y-10388733D01*
X8383050Y-10388733D02*
X8392573Y-10379210D01*
X8392573Y-10379210D02*
X8411621Y-10369686D01*
X8411621Y-10369686D02*
X8459240Y-10369686D01*
X8459240Y-10369686D02*
X8478288Y-10379210D01*
X8478288Y-10379210D02*
X8487812Y-10388733D01*
X8487812Y-10388733D02*
X8497335Y-10407781D01*
X8497335Y-10407781D02*
X8497335Y-10455400D01*
X8497335Y-10455400D02*
X8487812Y-10474448D01*
X8487812Y-10474448D02*
X8478288Y-10483972D01*
X8478288Y-10483972D02*
X8459240Y-10493495D01*
X8459240Y-10493495D02*
X8411621Y-10493495D01*
X8411621Y-10493495D02*
X8392573Y-10483972D01*
X8392573Y-10483972D02*
X8383050Y-10474448D01*
X8573526Y-10293495D02*
X8573526Y-10331591D01*
X8649716Y-10293495D02*
X8649716Y-10331591D01*
X8944955Y-10569686D02*
X8935431Y-10560162D01*
X8935431Y-10560162D02*
X8916383Y-10531591D01*
X8916383Y-10531591D02*
X8906859Y-10512543D01*
X8906859Y-10512543D02*
X8897335Y-10483972D01*
X8897335Y-10483972D02*
X8887812Y-10436352D01*
X8887812Y-10436352D02*
X8887812Y-10398257D01*
X8887812Y-10398257D02*
X8897335Y-10350638D01*
X8897335Y-10350638D02*
X8906859Y-10322067D01*
X8906859Y-10322067D02*
X8916383Y-10303019D01*
X8916383Y-10303019D02*
X8935431Y-10274448D01*
X8935431Y-10274448D02*
X8944955Y-10264924D01*
X9002097Y-10293495D02*
X9125907Y-10293495D01*
X9125907Y-10293495D02*
X9059240Y-10369686D01*
X9059240Y-10369686D02*
X9087812Y-10369686D01*
X9087812Y-10369686D02*
X9106859Y-10379210D01*
X9106859Y-10379210D02*
X9116383Y-10388733D01*
X9116383Y-10388733D02*
X9125907Y-10407781D01*
X9125907Y-10407781D02*
X9125907Y-10455400D01*
X9125907Y-10455400D02*
X9116383Y-10474448D01*
X9116383Y-10474448D02*
X9106859Y-10483972D01*
X9106859Y-10483972D02*
X9087812Y-10493495D01*
X9087812Y-10493495D02*
X9030669Y-10493495D01*
X9030669Y-10493495D02*
X9011621Y-10483972D01*
X9011621Y-10483972D02*
X9002097Y-10474448D01*
X9249716Y-10293495D02*
X9268764Y-10293495D01*
X9268764Y-10293495D02*
X9287812Y-10303019D01*
X9287812Y-10303019D02*
X9297335Y-10312543D01*
X9297335Y-10312543D02*
X9306859Y-10331591D01*
X9306859Y-10331591D02*
X9316383Y-10369686D01*
X9316383Y-10369686D02*
X9316383Y-10417305D01*
X9316383Y-10417305D02*
X9306859Y-10455400D01*
X9306859Y-10455400D02*
X9297335Y-10474448D01*
X9297335Y-10474448D02*
X9287812Y-10483972D01*
X9287812Y-10483972D02*
X9268764Y-10493495D01*
X9268764Y-10493495D02*
X9249716Y-10493495D01*
X9249716Y-10493495D02*
X9230669Y-10483972D01*
X9230669Y-10483972D02*
X9221145Y-10474448D01*
X9221145Y-10474448D02*
X9211621Y-10455400D01*
X9211621Y-10455400D02*
X9202097Y-10417305D01*
X9202097Y-10417305D02*
X9202097Y-10369686D01*
X9202097Y-10369686D02*
X9211621Y-10331591D01*
X9211621Y-10331591D02*
X9221145Y-10312543D01*
X9221145Y-10312543D02*
X9230669Y-10303019D01*
X9230669Y-10303019D02*
X9249716Y-10293495D01*
X9554478Y-10493495D02*
X9554478Y-10293495D01*
X9640193Y-10493495D02*
X9640193Y-10388733D01*
X9640193Y-10388733D02*
X9630669Y-10369686D01*
X9630669Y-10369686D02*
X9611621Y-10360162D01*
X9611621Y-10360162D02*
X9583050Y-10360162D01*
X9583050Y-10360162D02*
X9564002Y-10369686D01*
X9564002Y-10369686D02*
X9554478Y-10379210D01*
X9764002Y-10493495D02*
X9744955Y-10483972D01*
X9744955Y-10483972D02*
X9735431Y-10474448D01*
X9735431Y-10474448D02*
X9725907Y-10455400D01*
X9725907Y-10455400D02*
X9725907Y-10398257D01*
X9725907Y-10398257D02*
X9735431Y-10379210D01*
X9735431Y-10379210D02*
X9744955Y-10369686D01*
X9744955Y-10369686D02*
X9764002Y-10360162D01*
X9764002Y-10360162D02*
X9792574Y-10360162D01*
X9792574Y-10360162D02*
X9811621Y-10369686D01*
X9811621Y-10369686D02*
X9821145Y-10379210D01*
X9821145Y-10379210D02*
X9830669Y-10398257D01*
X9830669Y-10398257D02*
X9830669Y-10455400D01*
X9830669Y-10455400D02*
X9821145Y-10474448D01*
X9821145Y-10474448D02*
X9811621Y-10483972D01*
X9811621Y-10483972D02*
X9792574Y-10493495D01*
X9792574Y-10493495D02*
X9764002Y-10493495D01*
X9944955Y-10493495D02*
X9925907Y-10483972D01*
X9925907Y-10483972D02*
X9916383Y-10464924D01*
X9916383Y-10464924D02*
X9916383Y-10293495D01*
X10097336Y-10483972D02*
X10078288Y-10493495D01*
X10078288Y-10493495D02*
X10040193Y-10493495D01*
X10040193Y-10493495D02*
X10021145Y-10483972D01*
X10021145Y-10483972D02*
X10011621Y-10464924D01*
X10011621Y-10464924D02*
X10011621Y-10388733D01*
X10011621Y-10388733D02*
X10021145Y-10369686D01*
X10021145Y-10369686D02*
X10040193Y-10360162D01*
X10040193Y-10360162D02*
X10078288Y-10360162D01*
X10078288Y-10360162D02*
X10097336Y-10369686D01*
X10097336Y-10369686D02*
X10106859Y-10388733D01*
X10106859Y-10388733D02*
X10106859Y-10407781D01*
X10106859Y-10407781D02*
X10011621Y-10426829D01*
X10183050Y-10483972D02*
X10202097Y-10493495D01*
X10202097Y-10493495D02*
X10240193Y-10493495D01*
X10240193Y-10493495D02*
X10259240Y-10483972D01*
X10259240Y-10483972D02*
X10268764Y-10464924D01*
X10268764Y-10464924D02*
X10268764Y-10455400D01*
X10268764Y-10455400D02*
X10259240Y-10436352D01*
X10259240Y-10436352D02*
X10240193Y-10426829D01*
X10240193Y-10426829D02*
X10211621Y-10426829D01*
X10211621Y-10426829D02*
X10192574Y-10417305D01*
X10192574Y-10417305D02*
X10183050Y-10398257D01*
X10183050Y-10398257D02*
X10183050Y-10388733D01*
X10183050Y-10388733D02*
X10192574Y-10369686D01*
X10192574Y-10369686D02*
X10211621Y-10360162D01*
X10211621Y-10360162D02*
X10240193Y-10360162D01*
X10240193Y-10360162D02*
X10259240Y-10369686D01*
X10335431Y-10569686D02*
X10344955Y-10560162D01*
X10344955Y-10560162D02*
X10364002Y-10531591D01*
X10364002Y-10531591D02*
X10373526Y-10512543D01*
X10373526Y-10512543D02*
X10383050Y-10483972D01*
X10383050Y-10483972D02*
X10392574Y-10436352D01*
X10392574Y-10436352D02*
X10392574Y-10398257D01*
X10392574Y-10398257D02*
X10383050Y-10350638D01*
X10383050Y-10350638D02*
X10373526Y-10322067D01*
X10373526Y-10322067D02*
X10364002Y-10303019D01*
X10364002Y-10303019D02*
X10344955Y-10274448D01*
X10344955Y-10274448D02*
X10335431Y-10264924D01*
D10*
X5319892Y-10716012D02*
X5369892Y-10666012D01*
X5319892Y-10616012D01*
X5269892Y-10666012D01*
X5319892Y-10716012D01*
D11*
X5735430Y-10757495D02*
X5621145Y-10757495D01*
X5678287Y-10757495D02*
X5678287Y-10557495D01*
X5678287Y-10557495D02*
X5659240Y-10586067D01*
X5659240Y-10586067D02*
X5640192Y-10605114D01*
X5640192Y-10605114D02*
X5621145Y-10614638D01*
X5821145Y-10738448D02*
X5830668Y-10747972D01*
X5830668Y-10747972D02*
X5821145Y-10757495D01*
X5821145Y-10757495D02*
X5811621Y-10747972D01*
X5811621Y-10747972D02*
X5821145Y-10738448D01*
X5821145Y-10738448D02*
X5821145Y-10757495D01*
X5954478Y-10557495D02*
X5973526Y-10557495D01*
X5973526Y-10557495D02*
X5992573Y-10567019D01*
X5992573Y-10567019D02*
X6002097Y-10576543D01*
X6002097Y-10576543D02*
X6011621Y-10595591D01*
X6011621Y-10595591D02*
X6021145Y-10633686D01*
X6021145Y-10633686D02*
X6021145Y-10681305D01*
X6021145Y-10681305D02*
X6011621Y-10719400D01*
X6011621Y-10719400D02*
X6002097Y-10738448D01*
X6002097Y-10738448D02*
X5992573Y-10747972D01*
X5992573Y-10747972D02*
X5973526Y-10757495D01*
X5973526Y-10757495D02*
X5954478Y-10757495D01*
X5954478Y-10757495D02*
X5935430Y-10747972D01*
X5935430Y-10747972D02*
X5925906Y-10738448D01*
X5925906Y-10738448D02*
X5916383Y-10719400D01*
X5916383Y-10719400D02*
X5906859Y-10681305D01*
X5906859Y-10681305D02*
X5906859Y-10633686D01*
X5906859Y-10633686D02*
X5916383Y-10595591D01*
X5916383Y-10595591D02*
X5925906Y-10576543D01*
X5925906Y-10576543D02*
X5935430Y-10567019D01*
X5935430Y-10567019D02*
X5954478Y-10557495D01*
X6144954Y-10557495D02*
X6164002Y-10557495D01*
X6164002Y-10557495D02*
X6183049Y-10567019D01*
X6183049Y-10567019D02*
X6192573Y-10576543D01*
X6192573Y-10576543D02*
X6202097Y-10595591D01*
X6202097Y-10595591D02*
X6211621Y-10633686D01*
X6211621Y-10633686D02*
X6211621Y-10681305D01*
X6211621Y-10681305D02*
X6202097Y-10719400D01*
X6202097Y-10719400D02*
X6192573Y-10738448D01*
X6192573Y-10738448D02*
X6183049Y-10747972D01*
X6183049Y-10747972D02*
X6164002Y-10757495D01*
X6164002Y-10757495D02*
X6144954Y-10757495D01*
X6144954Y-10757495D02*
X6125906Y-10747972D01*
X6125906Y-10747972D02*
X6116383Y-10738448D01*
X6116383Y-10738448D02*
X6106859Y-10719400D01*
X6106859Y-10719400D02*
X6097335Y-10681305D01*
X6097335Y-10681305D02*
X6097335Y-10633686D01*
X6097335Y-10633686D02*
X6106859Y-10595591D01*
X6106859Y-10595591D02*
X6116383Y-10576543D01*
X6116383Y-10576543D02*
X6125906Y-10567019D01*
X6125906Y-10567019D02*
X6144954Y-10557495D01*
X6335430Y-10557495D02*
X6354478Y-10557495D01*
X6354478Y-10557495D02*
X6373526Y-10567019D01*
X6373526Y-10567019D02*
X6383049Y-10576543D01*
X6383049Y-10576543D02*
X6392573Y-10595591D01*
X6392573Y-10595591D02*
X6402097Y-10633686D01*
X6402097Y-10633686D02*
X6402097Y-10681305D01*
X6402097Y-10681305D02*
X6392573Y-10719400D01*
X6392573Y-10719400D02*
X6383049Y-10738448D01*
X6383049Y-10738448D02*
X6373526Y-10747972D01*
X6373526Y-10747972D02*
X6354478Y-10757495D01*
X6354478Y-10757495D02*
X6335430Y-10757495D01*
X6335430Y-10757495D02*
X6316383Y-10747972D01*
X6316383Y-10747972D02*
X6306859Y-10738448D01*
X6306859Y-10738448D02*
X6297335Y-10719400D01*
X6297335Y-10719400D02*
X6287811Y-10681305D01*
X6287811Y-10681305D02*
X6287811Y-10633686D01*
X6287811Y-10633686D02*
X6297335Y-10595591D01*
X6297335Y-10595591D02*
X6306859Y-10576543D01*
X6306859Y-10576543D02*
X6316383Y-10567019D01*
X6316383Y-10567019D02*
X6335430Y-10557495D01*
X6487811Y-10757495D02*
X6487811Y-10624162D01*
X6487811Y-10643210D02*
X6497335Y-10633686D01*
X6497335Y-10633686D02*
X6516383Y-10624162D01*
X6516383Y-10624162D02*
X6544954Y-10624162D01*
X6544954Y-10624162D02*
X6564002Y-10633686D01*
X6564002Y-10633686D02*
X6573526Y-10652733D01*
X6573526Y-10652733D02*
X6573526Y-10757495D01*
X6573526Y-10652733D02*
X6583049Y-10633686D01*
X6583049Y-10633686D02*
X6602097Y-10624162D01*
X6602097Y-10624162D02*
X6630668Y-10624162D01*
X6630668Y-10624162D02*
X6649716Y-10633686D01*
X6649716Y-10633686D02*
X6659240Y-10652733D01*
X6659240Y-10652733D02*
X6659240Y-10757495D01*
X6754478Y-10757495D02*
X6754478Y-10624162D01*
X6754478Y-10643210D02*
X6764002Y-10633686D01*
X6764002Y-10633686D02*
X6783049Y-10624162D01*
X6783049Y-10624162D02*
X6811621Y-10624162D01*
X6811621Y-10624162D02*
X6830668Y-10633686D01*
X6830668Y-10633686D02*
X6840192Y-10652733D01*
X6840192Y-10652733D02*
X6840192Y-10757495D01*
X6840192Y-10652733D02*
X6849716Y-10633686D01*
X6849716Y-10633686D02*
X6868764Y-10624162D01*
X6868764Y-10624162D02*
X6897335Y-10624162D01*
X6897335Y-10624162D02*
X6916383Y-10633686D01*
X6916383Y-10633686D02*
X6925907Y-10652733D01*
X6925907Y-10652733D02*
X6925907Y-10757495D01*
X7316383Y-10547972D02*
X7144954Y-10805114D01*
X7573526Y-10557495D02*
X7592573Y-10557495D01*
X7592573Y-10557495D02*
X7611621Y-10567019D01*
X7611621Y-10567019D02*
X7621145Y-10576543D01*
X7621145Y-10576543D02*
X7630669Y-10595591D01*
X7630669Y-10595591D02*
X7640192Y-10633686D01*
X7640192Y-10633686D02*
X7640192Y-10681305D01*
X7640192Y-10681305D02*
X7630669Y-10719400D01*
X7630669Y-10719400D02*
X7621145Y-10738448D01*
X7621145Y-10738448D02*
X7611621Y-10747972D01*
X7611621Y-10747972D02*
X7592573Y-10757495D01*
X7592573Y-10757495D02*
X7573526Y-10757495D01*
X7573526Y-10757495D02*
X7554478Y-10747972D01*
X7554478Y-10747972D02*
X7544954Y-10738448D01*
X7544954Y-10738448D02*
X7535430Y-10719400D01*
X7535430Y-10719400D02*
X7525907Y-10681305D01*
X7525907Y-10681305D02*
X7525907Y-10633686D01*
X7525907Y-10633686D02*
X7535430Y-10595591D01*
X7535430Y-10595591D02*
X7544954Y-10576543D01*
X7544954Y-10576543D02*
X7554478Y-10567019D01*
X7554478Y-10567019D02*
X7573526Y-10557495D01*
X7725907Y-10738448D02*
X7735430Y-10747972D01*
X7735430Y-10747972D02*
X7725907Y-10757495D01*
X7725907Y-10757495D02*
X7716383Y-10747972D01*
X7716383Y-10747972D02*
X7725907Y-10738448D01*
X7725907Y-10738448D02*
X7725907Y-10757495D01*
X7859240Y-10557495D02*
X7878288Y-10557495D01*
X7878288Y-10557495D02*
X7897335Y-10567019D01*
X7897335Y-10567019D02*
X7906859Y-10576543D01*
X7906859Y-10576543D02*
X7916383Y-10595591D01*
X7916383Y-10595591D02*
X7925907Y-10633686D01*
X7925907Y-10633686D02*
X7925907Y-10681305D01*
X7925907Y-10681305D02*
X7916383Y-10719400D01*
X7916383Y-10719400D02*
X7906859Y-10738448D01*
X7906859Y-10738448D02*
X7897335Y-10747972D01*
X7897335Y-10747972D02*
X7878288Y-10757495D01*
X7878288Y-10757495D02*
X7859240Y-10757495D01*
X7859240Y-10757495D02*
X7840192Y-10747972D01*
X7840192Y-10747972D02*
X7830669Y-10738448D01*
X7830669Y-10738448D02*
X7821145Y-10719400D01*
X7821145Y-10719400D02*
X7811621Y-10681305D01*
X7811621Y-10681305D02*
X7811621Y-10633686D01*
X7811621Y-10633686D02*
X7821145Y-10595591D01*
X7821145Y-10595591D02*
X7830669Y-10576543D01*
X7830669Y-10576543D02*
X7840192Y-10567019D01*
X7840192Y-10567019D02*
X7859240Y-10557495D01*
X7992573Y-10557495D02*
X8116383Y-10557495D01*
X8116383Y-10557495D02*
X8049716Y-10633686D01*
X8049716Y-10633686D02*
X8078288Y-10633686D01*
X8078288Y-10633686D02*
X8097335Y-10643210D01*
X8097335Y-10643210D02*
X8106859Y-10652733D01*
X8106859Y-10652733D02*
X8116383Y-10671781D01*
X8116383Y-10671781D02*
X8116383Y-10719400D01*
X8116383Y-10719400D02*
X8106859Y-10738448D01*
X8106859Y-10738448D02*
X8097335Y-10747972D01*
X8097335Y-10747972D02*
X8078288Y-10757495D01*
X8078288Y-10757495D02*
X8021145Y-10757495D01*
X8021145Y-10757495D02*
X8002097Y-10747972D01*
X8002097Y-10747972D02*
X7992573Y-10738448D01*
X8211621Y-10757495D02*
X8249716Y-10757495D01*
X8249716Y-10757495D02*
X8268764Y-10747972D01*
X8268764Y-10747972D02*
X8278288Y-10738448D01*
X8278288Y-10738448D02*
X8297335Y-10709876D01*
X8297335Y-10709876D02*
X8306859Y-10671781D01*
X8306859Y-10671781D02*
X8306859Y-10595591D01*
X8306859Y-10595591D02*
X8297335Y-10576543D01*
X8297335Y-10576543D02*
X8287811Y-10567019D01*
X8287811Y-10567019D02*
X8268764Y-10557495D01*
X8268764Y-10557495D02*
X8230669Y-10557495D01*
X8230669Y-10557495D02*
X8211621Y-10567019D01*
X8211621Y-10567019D02*
X8202097Y-10576543D01*
X8202097Y-10576543D02*
X8192573Y-10595591D01*
X8192573Y-10595591D02*
X8192573Y-10643210D01*
X8192573Y-10643210D02*
X8202097Y-10662257D01*
X8202097Y-10662257D02*
X8211621Y-10671781D01*
X8211621Y-10671781D02*
X8230669Y-10681305D01*
X8230669Y-10681305D02*
X8268764Y-10681305D01*
X8268764Y-10681305D02*
X8287811Y-10671781D01*
X8287811Y-10671781D02*
X8297335Y-10662257D01*
X8297335Y-10662257D02*
X8306859Y-10643210D01*
X8478288Y-10624162D02*
X8478288Y-10757495D01*
X8430669Y-10547972D02*
X8383050Y-10690829D01*
X8383050Y-10690829D02*
X8506859Y-10690829D01*
X8573526Y-10557495D02*
X8573526Y-10595591D01*
X8649716Y-10557495D02*
X8649716Y-10595591D01*
X8944955Y-10833686D02*
X8935431Y-10824162D01*
X8935431Y-10824162D02*
X8916383Y-10795591D01*
X8916383Y-10795591D02*
X8906859Y-10776543D01*
X8906859Y-10776543D02*
X8897335Y-10747972D01*
X8897335Y-10747972D02*
X8887812Y-10700352D01*
X8887812Y-10700352D02*
X8887812Y-10662257D01*
X8887812Y-10662257D02*
X8897335Y-10614638D01*
X8897335Y-10614638D02*
X8906859Y-10586067D01*
X8906859Y-10586067D02*
X8916383Y-10567019D01*
X8916383Y-10567019D02*
X8935431Y-10538448D01*
X8935431Y-10538448D02*
X8944955Y-10528924D01*
X9049716Y-10643210D02*
X9030669Y-10633686D01*
X9030669Y-10633686D02*
X9021145Y-10624162D01*
X9021145Y-10624162D02*
X9011621Y-10605114D01*
X9011621Y-10605114D02*
X9011621Y-10595591D01*
X9011621Y-10595591D02*
X9021145Y-10576543D01*
X9021145Y-10576543D02*
X9030669Y-10567019D01*
X9030669Y-10567019D02*
X9049716Y-10557495D01*
X9049716Y-10557495D02*
X9087812Y-10557495D01*
X9087812Y-10557495D02*
X9106859Y-10567019D01*
X9106859Y-10567019D02*
X9116383Y-10576543D01*
X9116383Y-10576543D02*
X9125907Y-10595591D01*
X9125907Y-10595591D02*
X9125907Y-10605114D01*
X9125907Y-10605114D02*
X9116383Y-10624162D01*
X9116383Y-10624162D02*
X9106859Y-10633686D01*
X9106859Y-10633686D02*
X9087812Y-10643210D01*
X9087812Y-10643210D02*
X9049716Y-10643210D01*
X9049716Y-10643210D02*
X9030669Y-10652733D01*
X9030669Y-10652733D02*
X9021145Y-10662257D01*
X9021145Y-10662257D02*
X9011621Y-10681305D01*
X9011621Y-10681305D02*
X9011621Y-10719400D01*
X9011621Y-10719400D02*
X9021145Y-10738448D01*
X9021145Y-10738448D02*
X9030669Y-10747972D01*
X9030669Y-10747972D02*
X9049716Y-10757495D01*
X9049716Y-10757495D02*
X9087812Y-10757495D01*
X9087812Y-10757495D02*
X9106859Y-10747972D01*
X9106859Y-10747972D02*
X9116383Y-10738448D01*
X9116383Y-10738448D02*
X9125907Y-10719400D01*
X9125907Y-10719400D02*
X9125907Y-10681305D01*
X9125907Y-10681305D02*
X9116383Y-10662257D01*
X9116383Y-10662257D02*
X9106859Y-10652733D01*
X9106859Y-10652733D02*
X9087812Y-10643210D01*
X9364002Y-10757495D02*
X9364002Y-10557495D01*
X9449716Y-10757495D02*
X9449716Y-10652733D01*
X9449716Y-10652733D02*
X9440193Y-10633686D01*
X9440193Y-10633686D02*
X9421145Y-10624162D01*
X9421145Y-10624162D02*
X9392574Y-10624162D01*
X9392574Y-10624162D02*
X9373526Y-10633686D01*
X9373526Y-10633686D02*
X9364002Y-10643210D01*
X9573526Y-10757495D02*
X9554478Y-10747972D01*
X9554478Y-10747972D02*
X9544955Y-10738448D01*
X9544955Y-10738448D02*
X9535431Y-10719400D01*
X9535431Y-10719400D02*
X9535431Y-10662257D01*
X9535431Y-10662257D02*
X9544955Y-10643210D01*
X9544955Y-10643210D02*
X9554478Y-10633686D01*
X9554478Y-10633686D02*
X9573526Y-10624162D01*
X9573526Y-10624162D02*
X9602097Y-10624162D01*
X9602097Y-10624162D02*
X9621145Y-10633686D01*
X9621145Y-10633686D02*
X9630669Y-10643210D01*
X9630669Y-10643210D02*
X9640193Y-10662257D01*
X9640193Y-10662257D02*
X9640193Y-10719400D01*
X9640193Y-10719400D02*
X9630669Y-10738448D01*
X9630669Y-10738448D02*
X9621145Y-10747972D01*
X9621145Y-10747972D02*
X9602097Y-10757495D01*
X9602097Y-10757495D02*
X9573526Y-10757495D01*
X9754478Y-10757495D02*
X9735431Y-10747972D01*
X9735431Y-10747972D02*
X9725907Y-10728924D01*
X9725907Y-10728924D02*
X9725907Y-10557495D01*
X9906859Y-10747972D02*
X9887812Y-10757495D01*
X9887812Y-10757495D02*
X9849716Y-10757495D01*
X9849716Y-10757495D02*
X9830669Y-10747972D01*
X9830669Y-10747972D02*
X9821145Y-10728924D01*
X9821145Y-10728924D02*
X9821145Y-10652733D01*
X9821145Y-10652733D02*
X9830669Y-10633686D01*
X9830669Y-10633686D02*
X9849716Y-10624162D01*
X9849716Y-10624162D02*
X9887812Y-10624162D01*
X9887812Y-10624162D02*
X9906859Y-10633686D01*
X9906859Y-10633686D02*
X9916383Y-10652733D01*
X9916383Y-10652733D02*
X9916383Y-10671781D01*
X9916383Y-10671781D02*
X9821145Y-10690829D01*
X9992574Y-10747972D02*
X10011621Y-10757495D01*
X10011621Y-10757495D02*
X10049716Y-10757495D01*
X10049716Y-10757495D02*
X10068764Y-10747972D01*
X10068764Y-10747972D02*
X10078288Y-10728924D01*
X10078288Y-10728924D02*
X10078288Y-10719400D01*
X10078288Y-10719400D02*
X10068764Y-10700352D01*
X10068764Y-10700352D02*
X10049716Y-10690829D01*
X10049716Y-10690829D02*
X10021145Y-10690829D01*
X10021145Y-10690829D02*
X10002097Y-10681305D01*
X10002097Y-10681305D02*
X9992574Y-10662257D01*
X9992574Y-10662257D02*
X9992574Y-10652733D01*
X9992574Y-10652733D02*
X10002097Y-10633686D01*
X10002097Y-10633686D02*
X10021145Y-10624162D01*
X10021145Y-10624162D02*
X10049716Y-10624162D01*
X10049716Y-10624162D02*
X10068764Y-10633686D01*
X10144955Y-10833686D02*
X10154478Y-10824162D01*
X10154478Y-10824162D02*
X10173526Y-10795591D01*
X10173526Y-10795591D02*
X10183050Y-10776543D01*
X10183050Y-10776543D02*
X10192574Y-10747972D01*
X10192574Y-10747972D02*
X10202097Y-10700352D01*
X10202097Y-10700352D02*
X10202097Y-10662257D01*
X10202097Y-10662257D02*
X10192574Y-10614638D01*
X10192574Y-10614638D02*
X10183050Y-10586067D01*
X10183050Y-10586067D02*
X10173526Y-10567019D01*
X10173526Y-10567019D02*
X10154478Y-10538448D01*
X10154478Y-10538448D02*
X10144955Y-10528924D01*
X5169892Y-10830012D02*
X5369892Y-11030012D01*
X5369892Y-10830012D02*
X5169892Y-11030012D01*
X5369892Y-10930012D02*
G75*
G03*
X5369892Y-10930012I-100000J0D01*
G01*
X5621145Y-10840543D02*
X5630668Y-10831019D01*
X5630668Y-10831019D02*
X5649716Y-10821495D01*
X5649716Y-10821495D02*
X5697335Y-10821495D01*
X5697335Y-10821495D02*
X5716383Y-10831019D01*
X5716383Y-10831019D02*
X5725906Y-10840543D01*
X5725906Y-10840543D02*
X5735430Y-10859591D01*
X5735430Y-10859591D02*
X5735430Y-10878638D01*
X5735430Y-10878638D02*
X5725906Y-10907210D01*
X5725906Y-10907210D02*
X5611621Y-11021495D01*
X5611621Y-11021495D02*
X5735430Y-11021495D01*
X5821145Y-11002448D02*
X5830668Y-11011972D01*
X5830668Y-11011972D02*
X5821145Y-11021495D01*
X5821145Y-11021495D02*
X5811621Y-11011972D01*
X5811621Y-11011972D02*
X5821145Y-11002448D01*
X5821145Y-11002448D02*
X5821145Y-11021495D01*
X5906859Y-10840543D02*
X5916383Y-10831019D01*
X5916383Y-10831019D02*
X5935430Y-10821495D01*
X5935430Y-10821495D02*
X5983049Y-10821495D01*
X5983049Y-10821495D02*
X6002097Y-10831019D01*
X6002097Y-10831019D02*
X6011621Y-10840543D01*
X6011621Y-10840543D02*
X6021145Y-10859591D01*
X6021145Y-10859591D02*
X6021145Y-10878638D01*
X6021145Y-10878638D02*
X6011621Y-10907210D01*
X6011621Y-10907210D02*
X5897335Y-11021495D01*
X5897335Y-11021495D02*
X6021145Y-11021495D01*
X6144954Y-10821495D02*
X6164002Y-10821495D01*
X6164002Y-10821495D02*
X6183049Y-10831019D01*
X6183049Y-10831019D02*
X6192573Y-10840543D01*
X6192573Y-10840543D02*
X6202097Y-10859591D01*
X6202097Y-10859591D02*
X6211621Y-10897686D01*
X6211621Y-10897686D02*
X6211621Y-10945305D01*
X6211621Y-10945305D02*
X6202097Y-10983400D01*
X6202097Y-10983400D02*
X6192573Y-11002448D01*
X6192573Y-11002448D02*
X6183049Y-11011972D01*
X6183049Y-11011972D02*
X6164002Y-11021495D01*
X6164002Y-11021495D02*
X6144954Y-11021495D01*
X6144954Y-11021495D02*
X6125906Y-11011972D01*
X6125906Y-11011972D02*
X6116383Y-11002448D01*
X6116383Y-11002448D02*
X6106859Y-10983400D01*
X6106859Y-10983400D02*
X6097335Y-10945305D01*
X6097335Y-10945305D02*
X6097335Y-10897686D01*
X6097335Y-10897686D02*
X6106859Y-10859591D01*
X6106859Y-10859591D02*
X6116383Y-10840543D01*
X6116383Y-10840543D02*
X6125906Y-10831019D01*
X6125906Y-10831019D02*
X6144954Y-10821495D01*
X6335430Y-10821495D02*
X6354478Y-10821495D01*
X6354478Y-10821495D02*
X6373526Y-10831019D01*
X6373526Y-10831019D02*
X6383049Y-10840543D01*
X6383049Y-10840543D02*
X6392573Y-10859591D01*
X6392573Y-10859591D02*
X6402097Y-10897686D01*
X6402097Y-10897686D02*
X6402097Y-10945305D01*
X6402097Y-10945305D02*
X6392573Y-10983400D01*
X6392573Y-10983400D02*
X6383049Y-11002448D01*
X6383049Y-11002448D02*
X6373526Y-11011972D01*
X6373526Y-11011972D02*
X6354478Y-11021495D01*
X6354478Y-11021495D02*
X6335430Y-11021495D01*
X6335430Y-11021495D02*
X6316383Y-11011972D01*
X6316383Y-11011972D02*
X6306859Y-11002448D01*
X6306859Y-11002448D02*
X6297335Y-10983400D01*
X6297335Y-10983400D02*
X6287811Y-10945305D01*
X6287811Y-10945305D02*
X6287811Y-10897686D01*
X6287811Y-10897686D02*
X6297335Y-10859591D01*
X6297335Y-10859591D02*
X6306859Y-10840543D01*
X6306859Y-10840543D02*
X6316383Y-10831019D01*
X6316383Y-10831019D02*
X6335430Y-10821495D01*
X6487811Y-11021495D02*
X6487811Y-10888162D01*
X6487811Y-10907210D02*
X6497335Y-10897686D01*
X6497335Y-10897686D02*
X6516383Y-10888162D01*
X6516383Y-10888162D02*
X6544954Y-10888162D01*
X6544954Y-10888162D02*
X6564002Y-10897686D01*
X6564002Y-10897686D02*
X6573526Y-10916733D01*
X6573526Y-10916733D02*
X6573526Y-11021495D01*
X6573526Y-10916733D02*
X6583049Y-10897686D01*
X6583049Y-10897686D02*
X6602097Y-10888162D01*
X6602097Y-10888162D02*
X6630668Y-10888162D01*
X6630668Y-10888162D02*
X6649716Y-10897686D01*
X6649716Y-10897686D02*
X6659240Y-10916733D01*
X6659240Y-10916733D02*
X6659240Y-11021495D01*
X6754478Y-11021495D02*
X6754478Y-10888162D01*
X6754478Y-10907210D02*
X6764002Y-10897686D01*
X6764002Y-10897686D02*
X6783049Y-10888162D01*
X6783049Y-10888162D02*
X6811621Y-10888162D01*
X6811621Y-10888162D02*
X6830668Y-10897686D01*
X6830668Y-10897686D02*
X6840192Y-10916733D01*
X6840192Y-10916733D02*
X6840192Y-11021495D01*
X6840192Y-10916733D02*
X6849716Y-10897686D01*
X6849716Y-10897686D02*
X6868764Y-10888162D01*
X6868764Y-10888162D02*
X6897335Y-10888162D01*
X6897335Y-10888162D02*
X6916383Y-10897686D01*
X6916383Y-10897686D02*
X6925907Y-10916733D01*
X6925907Y-10916733D02*
X6925907Y-11021495D01*
X7316383Y-10811972D02*
X7144954Y-11069114D01*
X7573526Y-10821495D02*
X7592573Y-10821495D01*
X7592573Y-10821495D02*
X7611621Y-10831019D01*
X7611621Y-10831019D02*
X7621145Y-10840543D01*
X7621145Y-10840543D02*
X7630669Y-10859591D01*
X7630669Y-10859591D02*
X7640192Y-10897686D01*
X7640192Y-10897686D02*
X7640192Y-10945305D01*
X7640192Y-10945305D02*
X7630669Y-10983400D01*
X7630669Y-10983400D02*
X7621145Y-11002448D01*
X7621145Y-11002448D02*
X7611621Y-11011972D01*
X7611621Y-11011972D02*
X7592573Y-11021495D01*
X7592573Y-11021495D02*
X7573526Y-11021495D01*
X7573526Y-11021495D02*
X7554478Y-11011972D01*
X7554478Y-11011972D02*
X7544954Y-11002448D01*
X7544954Y-11002448D02*
X7535430Y-10983400D01*
X7535430Y-10983400D02*
X7525907Y-10945305D01*
X7525907Y-10945305D02*
X7525907Y-10897686D01*
X7525907Y-10897686D02*
X7535430Y-10859591D01*
X7535430Y-10859591D02*
X7544954Y-10840543D01*
X7544954Y-10840543D02*
X7554478Y-10831019D01*
X7554478Y-10831019D02*
X7573526Y-10821495D01*
X7725907Y-11002448D02*
X7735430Y-11011972D01*
X7735430Y-11011972D02*
X7725907Y-11021495D01*
X7725907Y-11021495D02*
X7716383Y-11011972D01*
X7716383Y-11011972D02*
X7725907Y-11002448D01*
X7725907Y-11002448D02*
X7725907Y-11021495D01*
X7859240Y-10821495D02*
X7878288Y-10821495D01*
X7878288Y-10821495D02*
X7897335Y-10831019D01*
X7897335Y-10831019D02*
X7906859Y-10840543D01*
X7906859Y-10840543D02*
X7916383Y-10859591D01*
X7916383Y-10859591D02*
X7925907Y-10897686D01*
X7925907Y-10897686D02*
X7925907Y-10945305D01*
X7925907Y-10945305D02*
X7916383Y-10983400D01*
X7916383Y-10983400D02*
X7906859Y-11002448D01*
X7906859Y-11002448D02*
X7897335Y-11011972D01*
X7897335Y-11011972D02*
X7878288Y-11021495D01*
X7878288Y-11021495D02*
X7859240Y-11021495D01*
X7859240Y-11021495D02*
X7840192Y-11011972D01*
X7840192Y-11011972D02*
X7830669Y-11002448D01*
X7830669Y-11002448D02*
X7821145Y-10983400D01*
X7821145Y-10983400D02*
X7811621Y-10945305D01*
X7811621Y-10945305D02*
X7811621Y-10897686D01*
X7811621Y-10897686D02*
X7821145Y-10859591D01*
X7821145Y-10859591D02*
X7830669Y-10840543D01*
X7830669Y-10840543D02*
X7840192Y-10831019D01*
X7840192Y-10831019D02*
X7859240Y-10821495D01*
X8040192Y-10907210D02*
X8021145Y-10897686D01*
X8021145Y-10897686D02*
X8011621Y-10888162D01*
X8011621Y-10888162D02*
X8002097Y-10869114D01*
X8002097Y-10869114D02*
X8002097Y-10859591D01*
X8002097Y-10859591D02*
X8011621Y-10840543D01*
X8011621Y-10840543D02*
X8021145Y-10831019D01*
X8021145Y-10831019D02*
X8040192Y-10821495D01*
X8040192Y-10821495D02*
X8078288Y-10821495D01*
X8078288Y-10821495D02*
X8097335Y-10831019D01*
X8097335Y-10831019D02*
X8106859Y-10840543D01*
X8106859Y-10840543D02*
X8116383Y-10859591D01*
X8116383Y-10859591D02*
X8116383Y-10869114D01*
X8116383Y-10869114D02*
X8106859Y-10888162D01*
X8106859Y-10888162D02*
X8097335Y-10897686D01*
X8097335Y-10897686D02*
X8078288Y-10907210D01*
X8078288Y-10907210D02*
X8040192Y-10907210D01*
X8040192Y-10907210D02*
X8021145Y-10916733D01*
X8021145Y-10916733D02*
X8011621Y-10926257D01*
X8011621Y-10926257D02*
X8002097Y-10945305D01*
X8002097Y-10945305D02*
X8002097Y-10983400D01*
X8002097Y-10983400D02*
X8011621Y-11002448D01*
X8011621Y-11002448D02*
X8021145Y-11011972D01*
X8021145Y-11011972D02*
X8040192Y-11021495D01*
X8040192Y-11021495D02*
X8078288Y-11021495D01*
X8078288Y-11021495D02*
X8097335Y-11011972D01*
X8097335Y-11011972D02*
X8106859Y-11002448D01*
X8106859Y-11002448D02*
X8116383Y-10983400D01*
X8116383Y-10983400D02*
X8116383Y-10945305D01*
X8116383Y-10945305D02*
X8106859Y-10926257D01*
X8106859Y-10926257D02*
X8097335Y-10916733D01*
X8097335Y-10916733D02*
X8078288Y-10907210D01*
X8287811Y-10821495D02*
X8249716Y-10821495D01*
X8249716Y-10821495D02*
X8230669Y-10831019D01*
X8230669Y-10831019D02*
X8221145Y-10840543D01*
X8221145Y-10840543D02*
X8202097Y-10869114D01*
X8202097Y-10869114D02*
X8192573Y-10907210D01*
X8192573Y-10907210D02*
X8192573Y-10983400D01*
X8192573Y-10983400D02*
X8202097Y-11002448D01*
X8202097Y-11002448D02*
X8211621Y-11011972D01*
X8211621Y-11011972D02*
X8230669Y-11021495D01*
X8230669Y-11021495D02*
X8268764Y-11021495D01*
X8268764Y-11021495D02*
X8287811Y-11011972D01*
X8287811Y-11011972D02*
X8297335Y-11002448D01*
X8297335Y-11002448D02*
X8306859Y-10983400D01*
X8306859Y-10983400D02*
X8306859Y-10935781D01*
X8306859Y-10935781D02*
X8297335Y-10916733D01*
X8297335Y-10916733D02*
X8287811Y-10907210D01*
X8287811Y-10907210D02*
X8268764Y-10897686D01*
X8268764Y-10897686D02*
X8230669Y-10897686D01*
X8230669Y-10897686D02*
X8211621Y-10907210D01*
X8211621Y-10907210D02*
X8202097Y-10916733D01*
X8202097Y-10916733D02*
X8192573Y-10935781D01*
X8478288Y-10821495D02*
X8440192Y-10821495D01*
X8440192Y-10821495D02*
X8421145Y-10831019D01*
X8421145Y-10831019D02*
X8411621Y-10840543D01*
X8411621Y-10840543D02*
X8392573Y-10869114D01*
X8392573Y-10869114D02*
X8383050Y-10907210D01*
X8383050Y-10907210D02*
X8383050Y-10983400D01*
X8383050Y-10983400D02*
X8392573Y-11002448D01*
X8392573Y-11002448D02*
X8402097Y-11011972D01*
X8402097Y-11011972D02*
X8421145Y-11021495D01*
X8421145Y-11021495D02*
X8459240Y-11021495D01*
X8459240Y-11021495D02*
X8478288Y-11011972D01*
X8478288Y-11011972D02*
X8487812Y-11002448D01*
X8487812Y-11002448D02*
X8497335Y-10983400D01*
X8497335Y-10983400D02*
X8497335Y-10935781D01*
X8497335Y-10935781D02*
X8487812Y-10916733D01*
X8487812Y-10916733D02*
X8478288Y-10907210D01*
X8478288Y-10907210D02*
X8459240Y-10897686D01*
X8459240Y-10897686D02*
X8421145Y-10897686D01*
X8421145Y-10897686D02*
X8402097Y-10907210D01*
X8402097Y-10907210D02*
X8392573Y-10916733D01*
X8392573Y-10916733D02*
X8383050Y-10935781D01*
X8573526Y-10821495D02*
X8573526Y-10859591D01*
X8649716Y-10821495D02*
X8649716Y-10859591D01*
X8944955Y-11097686D02*
X8935431Y-11088162D01*
X8935431Y-11088162D02*
X8916383Y-11059591D01*
X8916383Y-11059591D02*
X8906859Y-11040543D01*
X8906859Y-11040543D02*
X8897335Y-11011972D01*
X8897335Y-11011972D02*
X8887812Y-10964352D01*
X8887812Y-10964352D02*
X8887812Y-10926257D01*
X8887812Y-10926257D02*
X8897335Y-10878638D01*
X8897335Y-10878638D02*
X8906859Y-10850067D01*
X8906859Y-10850067D02*
X8916383Y-10831019D01*
X8916383Y-10831019D02*
X8935431Y-10802448D01*
X8935431Y-10802448D02*
X8944955Y-10792924D01*
X9011621Y-10840543D02*
X9021145Y-10831019D01*
X9021145Y-10831019D02*
X9040193Y-10821495D01*
X9040193Y-10821495D02*
X9087812Y-10821495D01*
X9087812Y-10821495D02*
X9106859Y-10831019D01*
X9106859Y-10831019D02*
X9116383Y-10840543D01*
X9116383Y-10840543D02*
X9125907Y-10859591D01*
X9125907Y-10859591D02*
X9125907Y-10878638D01*
X9125907Y-10878638D02*
X9116383Y-10907210D01*
X9116383Y-10907210D02*
X9002097Y-11021495D01*
X9002097Y-11021495D02*
X9125907Y-11021495D01*
X9364002Y-11021495D02*
X9364002Y-10821495D01*
X9449716Y-11021495D02*
X9449716Y-10916733D01*
X9449716Y-10916733D02*
X9440193Y-10897686D01*
X9440193Y-10897686D02*
X9421145Y-10888162D01*
X9421145Y-10888162D02*
X9392574Y-10888162D01*
X9392574Y-10888162D02*
X9373526Y-10897686D01*
X9373526Y-10897686D02*
X9364002Y-10907210D01*
X9573526Y-11021495D02*
X9554478Y-11011972D01*
X9554478Y-11011972D02*
X9544955Y-11002448D01*
X9544955Y-11002448D02*
X9535431Y-10983400D01*
X9535431Y-10983400D02*
X9535431Y-10926257D01*
X9535431Y-10926257D02*
X9544955Y-10907210D01*
X9544955Y-10907210D02*
X9554478Y-10897686D01*
X9554478Y-10897686D02*
X9573526Y-10888162D01*
X9573526Y-10888162D02*
X9602097Y-10888162D01*
X9602097Y-10888162D02*
X9621145Y-10897686D01*
X9621145Y-10897686D02*
X9630669Y-10907210D01*
X9630669Y-10907210D02*
X9640193Y-10926257D01*
X9640193Y-10926257D02*
X9640193Y-10983400D01*
X9640193Y-10983400D02*
X9630669Y-11002448D01*
X9630669Y-11002448D02*
X9621145Y-11011972D01*
X9621145Y-11011972D02*
X9602097Y-11021495D01*
X9602097Y-11021495D02*
X9573526Y-11021495D01*
X9754478Y-11021495D02*
X9735431Y-11011972D01*
X9735431Y-11011972D02*
X9725907Y-10992924D01*
X9725907Y-10992924D02*
X9725907Y-10821495D01*
X9906859Y-11011972D02*
X9887812Y-11021495D01*
X9887812Y-11021495D02*
X9849716Y-11021495D01*
X9849716Y-11021495D02*
X9830669Y-11011972D01*
X9830669Y-11011972D02*
X9821145Y-10992924D01*
X9821145Y-10992924D02*
X9821145Y-10916733D01*
X9821145Y-10916733D02*
X9830669Y-10897686D01*
X9830669Y-10897686D02*
X9849716Y-10888162D01*
X9849716Y-10888162D02*
X9887812Y-10888162D01*
X9887812Y-10888162D02*
X9906859Y-10897686D01*
X9906859Y-10897686D02*
X9916383Y-10916733D01*
X9916383Y-10916733D02*
X9916383Y-10935781D01*
X9916383Y-10935781D02*
X9821145Y-10954829D01*
X9992574Y-11011972D02*
X10011621Y-11021495D01*
X10011621Y-11021495D02*
X10049716Y-11021495D01*
X10049716Y-11021495D02*
X10068764Y-11011972D01*
X10068764Y-11011972D02*
X10078288Y-10992924D01*
X10078288Y-10992924D02*
X10078288Y-10983400D01*
X10078288Y-10983400D02*
X10068764Y-10964352D01*
X10068764Y-10964352D02*
X10049716Y-10954829D01*
X10049716Y-10954829D02*
X10021145Y-10954829D01*
X10021145Y-10954829D02*
X10002097Y-10945305D01*
X10002097Y-10945305D02*
X9992574Y-10926257D01*
X9992574Y-10926257D02*
X9992574Y-10916733D01*
X9992574Y-10916733D02*
X10002097Y-10897686D01*
X10002097Y-10897686D02*
X10021145Y-10888162D01*
X10021145Y-10888162D02*
X10049716Y-10888162D01*
X10049716Y-10888162D02*
X10068764Y-10897686D01*
X10144955Y-11097686D02*
X10154478Y-11088162D01*
X10154478Y-11088162D02*
X10173526Y-11059591D01*
X10173526Y-11059591D02*
X10183050Y-11040543D01*
X10183050Y-11040543D02*
X10192574Y-11011972D01*
X10192574Y-11011972D02*
X10202097Y-10964352D01*
X10202097Y-10964352D02*
X10202097Y-10926257D01*
X10202097Y-10926257D02*
X10192574Y-10878638D01*
X10192574Y-10878638D02*
X10183050Y-10850067D01*
X10183050Y-10850067D02*
X10173526Y-10831019D01*
X10173526Y-10831019D02*
X10154478Y-10802448D01*
X10154478Y-10802448D02*
X10144955Y-10792924D01*
M02*
