%TF.GenerationSoftware,KiCad,Pcbnew,7.0.7*%
%TF.CreationDate,2023-09-20T21:46:03-04:00*%
%TF.ProjectId,DIYmic,4449596d-6963-42e6-9b69-6361645f7063,rev?*%
%TF.SameCoordinates,Original*%
%TF.FileFunction,Copper,L2,Bot*%
%TF.FilePolarity,Positive*%
%FSLAX46Y46*%
G04 Gerber Fmt 4.6, Leading zero omitted, Abs format (unit mm)*
G04 Created by KiCad (PCBNEW 7.0.7) date 2023-09-20 21:46:03*
%MOMM*%
%LPD*%
G01*
G04 APERTURE LIST*
G04 Aperture macros list*
%AMRoundRect*
0 Rectangle with rounded corners*
0 $1 Rounding radius*
0 $2 $3 $4 $5 $6 $7 $8 $9 X,Y pos of 4 corners*
0 Add a 4 corners polygon primitive as box body*
4,1,4,$2,$3,$4,$5,$6,$7,$8,$9,$2,$3,0*
0 Add four circle primitives for the rounded corners*
1,1,$1+$1,$2,$3*
1,1,$1+$1,$4,$5*
1,1,$1+$1,$6,$7*
1,1,$1+$1,$8,$9*
0 Add four rect primitives between the rounded corners*
20,1,$1+$1,$2,$3,$4,$5,0*
20,1,$1+$1,$4,$5,$6,$7,0*
20,1,$1+$1,$6,$7,$8,$9,0*
20,1,$1+$1,$8,$9,$2,$3,0*%
G04 Aperture macros list end*
%TA.AperFunction,ComponentPad*%
%ADD10R,1.600000X1.600000*%
%TD*%
%TA.AperFunction,ComponentPad*%
%ADD11C,1.600000*%
%TD*%
%TA.AperFunction,ComponentPad*%
%ADD12R,2.000000X2.000000*%
%TD*%
%TA.AperFunction,ComponentPad*%
%ADD13C,2.000000*%
%TD*%
%TA.AperFunction,ComponentPad*%
%ADD14RoundRect,0.250000X-0.350000X-0.625000X0.350000X-0.625000X0.350000X0.625000X-0.350000X0.625000X0*%
%TD*%
%TA.AperFunction,ComponentPad*%
%ADD15O,1.200000X1.750000*%
%TD*%
%TA.AperFunction,ComponentPad*%
%ADD16C,3.800000*%
%TD*%
%TA.AperFunction,ComponentPad*%
%ADD17R,1.500000X1.500000*%
%TD*%
%TA.AperFunction,ComponentPad*%
%ADD18O,1.500000X1.500000*%
%TD*%
%TA.AperFunction,ComponentPad*%
%ADD19O,1.600000X1.600000*%
%TD*%
%TA.AperFunction,ViaPad*%
%ADD20C,0.800000*%
%TD*%
%TA.AperFunction,Conductor*%
%ADD21C,0.250000*%
%TD*%
G04 APERTURE END LIST*
D10*
%TO.P,C5,1*%
%TO.N,Net-(PREAMP1-Pin_3)*%
X63206000Y-57531000D03*
D11*
%TO.P,C5,2*%
%TO.N,Net-(MIC1-Pin_1)*%
X60706000Y-57531000D03*
%TD*%
D10*
%TO.P,C6,1*%
%TO.N,Net-(PREAMP1-Pin_2)*%
X63181113Y-51816000D03*
D11*
%TO.P,C6,2*%
%TO.N,Net-(MIC1-Pin_3)*%
X60681113Y-51816000D03*
%TD*%
D12*
%TO.P,C3,1*%
%TO.N,Net-(POWER1-Pin_2)*%
X71247000Y-63672323D03*
D13*
%TO.P,C3,2*%
%TO.N,Net-(POWER1-Pin_1)*%
X71247000Y-68672323D03*
%TD*%
D12*
%TO.P,C1,1*%
%TO.N,Net-(PREAMP1-Pin_7)*%
X64643000Y-72049000D03*
D13*
%TO.P,C1,2*%
%TO.N,Net-(MIC1-Pin_2)*%
X64643000Y-77049000D03*
%TD*%
D12*
%TO.P,C2,1*%
%TO.N,Net-(PREAMP1-Pin_4)*%
X70866000Y-80690323D03*
D13*
%TO.P,C2,2*%
%TO.N,Net-(MIC1-Pin_2)*%
X70866000Y-85690323D03*
%TD*%
D10*
%TO.P,C7,1*%
%TO.N,Net-(PREAMP1-Pin_6)*%
X63181113Y-63500000D03*
D11*
%TO.P,C7,2*%
%TO.N,Net-(OUT1-Pin_1)*%
X60681113Y-63500000D03*
%TD*%
D14*
%TO.P,MIC,1,Pin_1*%
%TO.N,Net-(MIC1-Pin_1)*%
X78010000Y-45678000D03*
D15*
%TO.P,MIC,2,Pin_2*%
%TO.N,Net-(MIC1-Pin_2)*%
X80010000Y-45678000D03*
%TO.P,MIC,3,Pin_3*%
%TO.N,Net-(MIC1-Pin_3)*%
X82010000Y-45678000D03*
%TD*%
D12*
%TO.P,C4,1*%
%TO.N,Net-(POWER1-Pin_2)*%
X78486000Y-72597000D03*
D13*
%TO.P,C4,2*%
%TO.N,Net-(POWER1-Pin_1)*%
X78486000Y-77597000D03*
%TD*%
D14*
%TO.P,POWER,1,Pin_1*%
%TO.N,Net-(POWER1-Pin_1)*%
X79137000Y-85556000D03*
D15*
%TO.P,POWER,2,Pin_2*%
%TO.N,Net-(POWER1-Pin_2)*%
X81137000Y-85556000D03*
%TD*%
D14*
%TO.P,OUT,1,Pin_1*%
%TO.N,Net-(OUT1-Pin_1)*%
X70120000Y-45551000D03*
D15*
%TO.P,OUT,2,Pin_2*%
%TO.N,Net-(MIC1-Pin_2)*%
X72120000Y-45551000D03*
%TD*%
D16*
%TO.P,REF\u002A\u002A,1*%
%TO.N,Net-(MIC1-Pin_2)*%
X56769000Y-65024000D03*
%TD*%
D14*
%TO.P,GAIN,1,Pin_1*%
%TO.N,Net-(GAIN1-Pin_1)*%
X62246000Y-45551000D03*
D15*
%TO.P,GAIN,2,Pin_2*%
%TO.N,Net-(GAIN1-Pin_2)*%
X64246000Y-45551000D03*
%TD*%
D16*
%TO.P,REF\u002A\u002A,1*%
%TO.N,Net-(MIC1-Pin_2)*%
X86487000Y-65024000D03*
%TD*%
D17*
%TO.P,VOLTREG,1,VIN+*%
%TO.N,Net-(POWER1-Pin_2)*%
X78123500Y-67399500D03*
D18*
%TO.P,VOLTREG,2,VIN-*%
%TO.N,Net-(POWER1-Pin_1)*%
X78123500Y-64859500D03*
%TO.P,VOLTREG,4,VOUT-*%
%TO.N,Net-(VOLTREG1-VOUT-)*%
X78123500Y-59779500D03*
%TO.P,VOLTREG,5,0V*%
%TO.N,Net-(MIC1-Pin_2)*%
X78123500Y-57239500D03*
%TO.P,VOLTREG,6,VOUT+*%
%TO.N,Net-(VOLTREG1-VOUT+)*%
X78123500Y-54699500D03*
%TD*%
D10*
%TO.P,PREAMP,1,Pin_1*%
%TO.N,Net-(GAIN1-Pin_2)*%
X67320000Y-51318000D03*
D19*
%TO.P,PREAMP,2,Pin_2*%
%TO.N,Net-(PREAMP1-Pin_2)*%
X67320000Y-53858000D03*
%TO.P,PREAMP,3,Pin_3*%
%TO.N,Net-(PREAMP1-Pin_3)*%
X67320000Y-56398000D03*
%TO.P,PREAMP,4,Pin_4*%
%TO.N,Net-(PREAMP1-Pin_4)*%
X67320000Y-58938000D03*
%TO.P,PREAMP,5,Pin_5*%
%TO.N,Net-(MIC1-Pin_2)*%
X74940000Y-58938000D03*
%TO.P,PREAMP,6,Pin_6*%
%TO.N,Net-(PREAMP1-Pin_6)*%
X74940000Y-56398000D03*
%TO.P,PREAMP,7,Pin_7*%
%TO.N,Net-(PREAMP1-Pin_7)*%
X74940000Y-53858000D03*
%TO.P,PREAMP,8,Pin_8*%
%TO.N,Net-(GAIN1-Pin_1)*%
X74940000Y-51318000D03*
%TD*%
D11*
%TO.P,R6,1*%
%TO.N,Net-(VOLTREG1-VOUT-)*%
X83439000Y-79121000D03*
D19*
%TO.P,R6,2*%
%TO.N,Net-(PREAMP1-Pin_4)*%
X83439000Y-71501000D03*
%TD*%
D11*
%TO.P,R2,1*%
%TO.N,Net-(PREAMP1-Pin_7)*%
X60960000Y-80645000D03*
D19*
%TO.P,R2,2*%
%TO.N,Net-(MIC1-Pin_2)*%
X60960000Y-88265000D03*
%TD*%
D11*
%TO.P,R7,1*%
%TO.N,Net-(PREAMP1-Pin_4)*%
X64135000Y-80772000D03*
D19*
%TO.P,R7,2*%
%TO.N,Net-(MIC1-Pin_2)*%
X64135000Y-88392000D03*
%TD*%
D11*
%TO.P,R5,1*%
%TO.N,Net-(VOLTREG1-VOUT+)*%
X83947000Y-57912000D03*
D19*
%TO.P,R5,2*%
%TO.N,Net-(PREAMP1-Pin_7)*%
X83947000Y-50292000D03*
%TD*%
D11*
%TO.P,R8,1*%
%TO.N,Net-(PREAMP1-Pin_3)*%
X58293000Y-54737000D03*
D19*
%TO.P,R8,2*%
%TO.N,Net-(MIC1-Pin_2)*%
X58293000Y-47117000D03*
%TD*%
D11*
%TO.P,R1,1*%
%TO.N,Net-(PREAMP1-Pin_4)*%
X59817000Y-70739000D03*
D19*
%TO.P,R1,2*%
%TO.N,Net-(MIC1-Pin_3)*%
X59817000Y-78359000D03*
%TD*%
D11*
%TO.P,R4,1*%
%TO.N,Net-(PREAMP1-Pin_2)*%
X76962000Y-82042000D03*
D19*
%TO.P,R4,2*%
%TO.N,Net-(MIC1-Pin_2)*%
X84582000Y-82042000D03*
%TD*%
D11*
%TO.P,R3,1*%
%TO.N,Net-(PREAMP1-Pin_7)*%
X65278000Y-68453000D03*
D19*
%TO.P,R3,2*%
%TO.N,Net-(MIC1-Pin_1)*%
X65278000Y-60833000D03*
%TD*%
D20*
%TO.N,Net-(MIC1-Pin_2)*%
X71120000Y-51689000D03*
X67183000Y-45593000D03*
X64389000Y-54610000D03*
X58928000Y-60071000D03*
X67437000Y-48768000D03*
%TO.N,Net-(PREAMP1-Pin_2)*%
X71120000Y-53594000D03*
%TD*%
D21*
%TO.N,Net-(PREAMP1-Pin_7)*%
X73533000Y-66040000D02*
X77216000Y-62357000D01*
X65278000Y-68580000D02*
X65278000Y-71038323D01*
X67183000Y-68580000D02*
X69723000Y-66040000D01*
X69723000Y-66040000D02*
X73533000Y-66040000D01*
X81280000Y-60325000D02*
X81280000Y-52959000D01*
X61958000Y-74358323D02*
X64262000Y-72054323D01*
X60960000Y-80645000D02*
X61958000Y-79647000D01*
X65278000Y-71038323D02*
X64262000Y-72054323D01*
X65278000Y-68580000D02*
X67183000Y-68580000D01*
X61958000Y-79647000D02*
X61958000Y-74358323D01*
X79248000Y-62357000D02*
X81280000Y-60325000D01*
X77216000Y-62357000D02*
X79248000Y-62357000D01*
X81280000Y-52959000D02*
X83947000Y-50292000D01*
%TO.N,Net-(MIC1-Pin_2)*%
X58674000Y-47117000D02*
X57549000Y-48242000D01*
X68199000Y-48768000D02*
X71120000Y-51689000D01*
X67183000Y-45593000D02*
X67183000Y-48514000D01*
X80010000Y-45678000D02*
X80010000Y-55607000D01*
X65024000Y-53975000D02*
X64389000Y-54610000D01*
X64262000Y-78613000D02*
X64262000Y-77054323D01*
X56261000Y-50546000D02*
X56261000Y-57404000D01*
X58674000Y-47117000D02*
X61595000Y-47117000D01*
X65024000Y-50546000D02*
X65024000Y-53975000D01*
X67437000Y-48768000D02*
X68199000Y-48768000D01*
X80010000Y-55607000D02*
X78377500Y-57239500D01*
X67183000Y-48514000D02*
X67437000Y-48768000D01*
X56261000Y-49530000D02*
X56261000Y-50546000D01*
X61595000Y-47117000D02*
X65024000Y-50546000D01*
X57549000Y-48242000D02*
X57150000Y-48641000D01*
X57150000Y-48641000D02*
X56261000Y-49530000D01*
X71120000Y-85471000D02*
X64262000Y-78613000D01*
X56261000Y-57404000D02*
X58928000Y-60071000D01*
%TO.N,Net-(PREAMP1-Pin_4)*%
X85090000Y-87503000D02*
X76073000Y-87503000D01*
X83439000Y-71501000D02*
X83439000Y-75692000D01*
X86487000Y-78740000D02*
X86487000Y-86106000D01*
X86487000Y-86106000D02*
X85090000Y-87503000D01*
X83439000Y-75692000D02*
X86487000Y-78740000D01*
X76073000Y-87503000D02*
X71120000Y-82550000D01*
X71120000Y-82550000D02*
X71120000Y-80471000D01*
%TO.N,Net-(POWER1-Pin_1)*%
X79121000Y-85540000D02*
X79137000Y-85556000D01*
X71247000Y-68672323D02*
X74564677Y-68672323D01*
X74564677Y-68672323D02*
X78377500Y-64859500D01*
X79121000Y-77689323D02*
X79121000Y-85540000D01*
X74564677Y-73133000D02*
X74564677Y-68672323D01*
X79121000Y-77689323D02*
X74564677Y-73133000D01*
%TO.N,Net-(PREAMP1-Pin_2)*%
X70856000Y-53858000D02*
X71120000Y-53594000D01*
X67320000Y-53858000D02*
X70856000Y-53858000D01*
%TO.N,Net-(PREAMP1-Pin_6)*%
X65024000Y-63500000D02*
X72126000Y-56398000D01*
X72126000Y-56398000D02*
X74940000Y-56398000D01*
X63181113Y-63500000D02*
X65024000Y-63500000D01*
%TO.N,Net-(OUT1-Pin_1)*%
X72517000Y-53467000D02*
X72517000Y-47948000D01*
X70993000Y-54991000D02*
X72517000Y-53467000D01*
X65024000Y-56007000D02*
X66040000Y-54991000D01*
X65024000Y-59157113D02*
X65024000Y-56007000D01*
X60681113Y-63500000D02*
X65024000Y-59157113D01*
X66040000Y-54991000D02*
X70993000Y-54991000D01*
X72517000Y-47948000D02*
X70120000Y-45551000D01*
%TO.N,Net-(GAIN1-Pin_1)*%
X73025000Y-44069000D02*
X74940000Y-45984000D01*
X62246000Y-44307000D02*
X62484000Y-44069000D01*
X74940000Y-45984000D02*
X74940000Y-51318000D01*
X62246000Y-45551000D02*
X62246000Y-44307000D01*
X62484000Y-44069000D02*
X73025000Y-44069000D01*
%TO.N,Net-(GAIN1-Pin_2)*%
X64246000Y-45551000D02*
X64246000Y-48244000D01*
X64246000Y-48244000D02*
X67320000Y-51318000D01*
%TD*%
%TA.AperFunction,Conductor*%
%TO.N,Net-(MIC1-Pin_2)*%
G36*
X73339539Y-45283975D02*
G01*
X73383886Y-45312476D01*
X74278181Y-46206771D01*
X74311666Y-46268094D01*
X74314500Y-46294452D01*
X74314500Y-50103811D01*
X74294815Y-50170850D01*
X74261623Y-50205386D01*
X74100859Y-50317953D01*
X73939954Y-50478858D01*
X73809432Y-50665265D01*
X73809431Y-50665267D01*
X73713261Y-50871502D01*
X73713258Y-50871511D01*
X73654366Y-51091302D01*
X73654364Y-51091313D01*
X73634532Y-51317998D01*
X73634532Y-51318001D01*
X73654364Y-51544686D01*
X73654366Y-51544697D01*
X73713258Y-51764488D01*
X73713261Y-51764497D01*
X73809431Y-51970732D01*
X73809432Y-51970734D01*
X73939954Y-52157141D01*
X74100858Y-52318045D01*
X74100861Y-52318047D01*
X74287266Y-52448568D01*
X74345275Y-52475618D01*
X74397714Y-52521791D01*
X74416866Y-52588984D01*
X74396650Y-52655865D01*
X74345275Y-52700382D01*
X74287267Y-52727431D01*
X74287265Y-52727432D01*
X74100858Y-52857954D01*
X73939954Y-53018858D01*
X73809432Y-53205265D01*
X73809431Y-53205267D01*
X73713261Y-53411502D01*
X73713258Y-53411511D01*
X73654366Y-53631302D01*
X73654364Y-53631313D01*
X73634532Y-53857998D01*
X73634532Y-53858001D01*
X73654364Y-54084686D01*
X73654366Y-54084697D01*
X73713258Y-54304488D01*
X73713261Y-54304497D01*
X73809431Y-54510732D01*
X73809432Y-54510734D01*
X73939954Y-54697141D01*
X74100858Y-54858045D01*
X74100861Y-54858047D01*
X74287266Y-54988568D01*
X74345275Y-55015618D01*
X74397714Y-55061791D01*
X74416866Y-55128984D01*
X74396650Y-55195865D01*
X74345275Y-55240382D01*
X74287267Y-55267431D01*
X74287265Y-55267432D01*
X74100858Y-55397954D01*
X73939954Y-55558858D01*
X73827387Y-55719623D01*
X73772811Y-55763248D01*
X73725812Y-55772500D01*
X72208743Y-55772500D01*
X72193122Y-55770775D01*
X72193095Y-55771061D01*
X72185333Y-55770326D01*
X72116172Y-55772500D01*
X72086649Y-55772500D01*
X72079778Y-55773367D01*
X72073959Y-55773825D01*
X72027374Y-55775289D01*
X72027368Y-55775290D01*
X72008126Y-55780880D01*
X71989087Y-55784823D01*
X71969217Y-55787334D01*
X71969203Y-55787337D01*
X71925883Y-55804488D01*
X71920358Y-55806380D01*
X71875613Y-55819380D01*
X71875610Y-55819381D01*
X71858366Y-55829579D01*
X71840905Y-55838133D01*
X71822274Y-55845510D01*
X71822262Y-55845517D01*
X71784570Y-55872902D01*
X71779687Y-55876109D01*
X71739580Y-55899829D01*
X71725414Y-55913995D01*
X71710624Y-55926627D01*
X71694414Y-55938404D01*
X71694411Y-55938407D01*
X71664710Y-55974309D01*
X71660777Y-55978631D01*
X68819610Y-58819798D01*
X68758287Y-58853283D01*
X68688595Y-58848299D01*
X68632662Y-58806427D01*
X68608401Y-58742924D01*
X68605635Y-58711313D01*
X68605635Y-58711308D01*
X68546739Y-58491504D01*
X68450568Y-58285266D01*
X68320047Y-58098861D01*
X68320045Y-58098858D01*
X68159141Y-57937954D01*
X67972734Y-57807432D01*
X67972728Y-57807429D01*
X67914725Y-57780382D01*
X67862285Y-57734210D01*
X67843133Y-57667017D01*
X67863348Y-57600135D01*
X67914725Y-57555618D01*
X67972734Y-57528568D01*
X68159139Y-57398047D01*
X68320047Y-57237139D01*
X68450568Y-57050734D01*
X68546739Y-56844496D01*
X68605635Y-56624692D01*
X68622634Y-56430384D01*
X68625468Y-56398001D01*
X68625468Y-56397998D01*
X68615775Y-56287206D01*
X68605635Y-56171308D01*
X68546739Y-55951504D01*
X68472781Y-55792903D01*
X68462290Y-55723828D01*
X68490809Y-55660044D01*
X68549286Y-55621804D01*
X68585164Y-55616500D01*
X70910257Y-55616500D01*
X70925877Y-55618224D01*
X70925904Y-55617939D01*
X70933660Y-55618671D01*
X70933667Y-55618673D01*
X71002814Y-55616500D01*
X71032350Y-55616500D01*
X71039228Y-55615630D01*
X71045041Y-55615172D01*
X71091627Y-55613709D01*
X71110869Y-55608117D01*
X71129912Y-55604174D01*
X71149792Y-55601664D01*
X71193122Y-55584507D01*
X71198646Y-55582617D01*
X71202396Y-55581527D01*
X71243390Y-55569618D01*
X71260629Y-55559422D01*
X71278103Y-55550862D01*
X71296727Y-55543488D01*
X71296727Y-55543487D01*
X71296732Y-55543486D01*
X71334449Y-55516082D01*
X71339305Y-55512892D01*
X71379420Y-55489170D01*
X71393589Y-55474999D01*
X71408379Y-55462368D01*
X71424587Y-55450594D01*
X71454299Y-55414676D01*
X71458212Y-55410376D01*
X72900787Y-53967802D01*
X72913042Y-53957986D01*
X72912859Y-53957764D01*
X72918866Y-53952792D01*
X72918877Y-53952786D01*
X72949775Y-53919882D01*
X72966227Y-53902364D01*
X72976671Y-53891918D01*
X72987120Y-53881471D01*
X72991379Y-53875978D01*
X72995152Y-53871561D01*
X73027062Y-53837582D01*
X73036713Y-53820024D01*
X73047396Y-53803761D01*
X73059673Y-53787936D01*
X73078185Y-53745153D01*
X73080738Y-53739941D01*
X73103197Y-53699092D01*
X73108180Y-53679680D01*
X73114481Y-53661280D01*
X73122437Y-53642896D01*
X73129729Y-53596852D01*
X73130906Y-53591171D01*
X73142500Y-53546019D01*
X73142500Y-53525982D01*
X73144027Y-53506582D01*
X73147160Y-53486804D01*
X73142775Y-53440415D01*
X73142500Y-53434577D01*
X73142500Y-48030742D01*
X73144224Y-48015122D01*
X73143939Y-48015096D01*
X73144671Y-48007340D01*
X73144673Y-48007333D01*
X73142500Y-47938185D01*
X73142500Y-47908650D01*
X73141631Y-47901772D01*
X73141172Y-47895943D01*
X73139709Y-47849372D01*
X73134122Y-47830144D01*
X73130174Y-47811084D01*
X73127663Y-47791204D01*
X73110512Y-47747887D01*
X73108619Y-47742358D01*
X73095618Y-47697609D01*
X73095616Y-47697606D01*
X73085423Y-47680371D01*
X73076861Y-47662894D01*
X73069487Y-47644270D01*
X73069486Y-47644268D01*
X73042079Y-47606545D01*
X73038888Y-47601686D01*
X73015172Y-47561583D01*
X73015165Y-47561574D01*
X73001006Y-47547415D01*
X72988368Y-47532619D01*
X72977020Y-47517000D01*
X72976594Y-47516413D01*
X72974621Y-47514781D01*
X72940688Y-47486709D01*
X72936376Y-47482786D01*
X72499510Y-47045920D01*
X72466026Y-46984598D01*
X72471010Y-46914906D01*
X72512882Y-46858973D01*
X72535681Y-46845445D01*
X72672507Y-46782959D01*
X72843619Y-46661110D01*
X72843625Y-46661104D01*
X72988592Y-46509067D01*
X73102166Y-46332342D01*
X73180244Y-46137314D01*
X73220000Y-45931037D01*
X73220000Y-45801000D01*
X72608192Y-45801000D01*
X72541153Y-45781315D01*
X72495398Y-45728511D01*
X72485454Y-45659353D01*
X72487987Y-45646559D01*
X72488551Y-45644329D01*
X72489102Y-45637686D01*
X72498886Y-45519605D01*
X72482637Y-45455438D01*
X72485262Y-45385619D01*
X72525219Y-45328302D01*
X72589820Y-45301686D01*
X72602843Y-45301000D01*
X73229541Y-45301000D01*
X73269847Y-45278991D01*
X73339539Y-45283975D01*
G37*
%TD.AperFunction*%
%TA.AperFunction,Conductor*%
G36*
X68967767Y-44714185D02*
G01*
X69013522Y-44766989D01*
X69024086Y-44831103D01*
X69019500Y-44875983D01*
X69019500Y-46226001D01*
X69019501Y-46226018D01*
X69030000Y-46328796D01*
X69030001Y-46328799D01*
X69085185Y-46495331D01*
X69085187Y-46495336D01*
X69093848Y-46509378D01*
X69177288Y-46644656D01*
X69301344Y-46768712D01*
X69450666Y-46860814D01*
X69617203Y-46915999D01*
X69719991Y-46926500D01*
X70520008Y-46926499D01*
X70543865Y-46924062D01*
X70612558Y-46936832D01*
X70644148Y-46959739D01*
X71855181Y-48170771D01*
X71888666Y-48232094D01*
X71891500Y-48258452D01*
X71891500Y-52798085D01*
X71871815Y-52865124D01*
X71819011Y-52910879D01*
X71749853Y-52920823D01*
X71694615Y-52898403D01*
X71572734Y-52809851D01*
X71572729Y-52809848D01*
X71399807Y-52732857D01*
X71399802Y-52732855D01*
X71254001Y-52701865D01*
X71214646Y-52693500D01*
X71025354Y-52693500D01*
X70994816Y-52699991D01*
X70840197Y-52732855D01*
X70840192Y-52732857D01*
X70667270Y-52809848D01*
X70667265Y-52809851D01*
X70514129Y-52921111D01*
X70387466Y-53061785D01*
X70324700Y-53170500D01*
X70274133Y-53218715D01*
X70217313Y-53232500D01*
X68534188Y-53232500D01*
X68467149Y-53212815D01*
X68432613Y-53179623D01*
X68320045Y-53018858D01*
X68159143Y-52857956D01*
X68134536Y-52840726D01*
X68090912Y-52786149D01*
X68083719Y-52716650D01*
X68115241Y-52654296D01*
X68175471Y-52618882D01*
X68192404Y-52615861D01*
X68227483Y-52612091D01*
X68362331Y-52561796D01*
X68477546Y-52475546D01*
X68563796Y-52360331D01*
X68614091Y-52225483D01*
X68620500Y-52165873D01*
X68620499Y-50470128D01*
X68614091Y-50410517D01*
X68569887Y-50292001D01*
X68563797Y-50275671D01*
X68563793Y-50275664D01*
X68477547Y-50160455D01*
X68477544Y-50160452D01*
X68362335Y-50074206D01*
X68362328Y-50074202D01*
X68227482Y-50023908D01*
X68227483Y-50023908D01*
X68167883Y-50017501D01*
X68167881Y-50017500D01*
X68167873Y-50017500D01*
X68167865Y-50017500D01*
X66955453Y-50017500D01*
X66888414Y-49997815D01*
X66867772Y-49981181D01*
X64907819Y-48021228D01*
X64874334Y-47959905D01*
X64871500Y-47933547D01*
X64871500Y-47366987D01*
X64871500Y-46795515D01*
X64891184Y-46728480D01*
X64923569Y-46694514D01*
X64969952Y-46661486D01*
X64970317Y-46661104D01*
X65114985Y-46509379D01*
X65124010Y-46495336D01*
X65228613Y-46332572D01*
X65306725Y-46137457D01*
X65346500Y-45931085D01*
X65346500Y-45223575D01*
X65331528Y-45066782D01*
X65272316Y-44865125D01*
X65272314Y-44865121D01*
X65272099Y-44864582D01*
X65272071Y-44864291D01*
X65270652Y-44859458D01*
X65271583Y-44859184D01*
X65265460Y-44795029D01*
X65297478Y-44732927D01*
X65357988Y-44697994D01*
X65387218Y-44694500D01*
X68900728Y-44694500D01*
X68967767Y-44714185D01*
G37*
%TD.AperFunction*%
%TA.AperFunction,Conductor*%
G36*
X87687031Y-42650634D02*
G01*
X87692721Y-42651008D01*
X87753162Y-42654992D01*
X87954836Y-42669765D01*
X87962443Y-42670801D01*
X88074714Y-42693258D01*
X88227211Y-42727257D01*
X88233731Y-42729091D01*
X88350866Y-42769087D01*
X88489030Y-42821977D01*
X88494405Y-42824333D01*
X88607197Y-42880306D01*
X88609992Y-42881783D01*
X88735336Y-42952197D01*
X88739573Y-42954806D01*
X88845099Y-43025808D01*
X88848360Y-43028163D01*
X88961467Y-43115596D01*
X88964579Y-43118170D01*
X89059862Y-43202395D01*
X89063446Y-43205829D01*
X89064356Y-43206774D01*
X89163165Y-43309394D01*
X89165307Y-43311735D01*
X89247872Y-43406769D01*
X89251521Y-43411397D01*
X89337522Y-43531795D01*
X89405724Y-43635060D01*
X89409146Y-43640916D01*
X89425581Y-43672950D01*
X89480465Y-43779932D01*
X89530473Y-43882910D01*
X89533403Y-43890040D01*
X89598504Y-44081489D01*
X89612827Y-44124646D01*
X89619027Y-44168975D01*
X88786263Y-63746635D01*
X88763747Y-63812777D01*
X88709046Y-63856247D01*
X88639528Y-63863242D01*
X88577263Y-63831542D01*
X88557678Y-63807807D01*
X88432486Y-63610535D01*
X88351685Y-63512864D01*
X87526444Y-64338107D01*
X87465121Y-64371592D01*
X87395429Y-64366608D01*
X87339496Y-64324736D01*
X87337755Y-64322352D01*
X87322108Y-64300378D01*
X87322104Y-64300374D01*
X87175957Y-64161023D01*
X87141022Y-64100514D01*
X87144347Y-64030724D01*
X87173846Y-63983599D01*
X88000434Y-63157012D01*
X87775530Y-62993609D01*
X87775520Y-62993602D01*
X87510890Y-62848121D01*
X87510882Y-62848117D01*
X87230110Y-62736952D01*
X87230107Y-62736951D01*
X86937600Y-62661849D01*
X86638004Y-62624000D01*
X86335995Y-62624000D01*
X86036399Y-62661849D01*
X85743892Y-62736951D01*
X85743889Y-62736952D01*
X85463117Y-62848117D01*
X85463109Y-62848121D01*
X85198479Y-62993602D01*
X85198461Y-62993614D01*
X84973565Y-63157010D01*
X84973564Y-63157012D01*
X85802765Y-63986212D01*
X85836250Y-64047535D01*
X85831266Y-64117226D01*
X85791737Y-64171363D01*
X85724458Y-64224272D01*
X85724453Y-64224277D01*
X85630278Y-64332960D01*
X85571500Y-64370734D01*
X85501630Y-64370734D01*
X85448885Y-64339438D01*
X84622312Y-63512864D01*
X84541516Y-63610530D01*
X84379707Y-63865502D01*
X84379704Y-63865508D01*
X84251127Y-64138747D01*
X84251125Y-64138752D01*
X84157805Y-64425959D01*
X84101216Y-64722609D01*
X84101215Y-64722616D01*
X84082255Y-65023994D01*
X84082255Y-65024005D01*
X84101215Y-65325383D01*
X84101216Y-65325390D01*
X84157805Y-65622040D01*
X84251125Y-65909247D01*
X84251127Y-65909252D01*
X84379704Y-66182491D01*
X84379707Y-66182497D01*
X84541513Y-66437464D01*
X84622312Y-66535133D01*
X85447554Y-65709891D01*
X85508877Y-65676406D01*
X85578568Y-65681390D01*
X85634502Y-65723261D01*
X85636242Y-65725644D01*
X85651893Y-65747623D01*
X85651895Y-65747625D01*
X85798041Y-65886975D01*
X85832976Y-65947484D01*
X85829651Y-66017274D01*
X85800152Y-66064399D01*
X84973564Y-66890986D01*
X85198474Y-67054393D01*
X85198485Y-67054400D01*
X85463109Y-67199878D01*
X85463117Y-67199882D01*
X85743889Y-67311047D01*
X85743892Y-67311048D01*
X86036399Y-67386150D01*
X86335995Y-67423999D01*
X86336007Y-67424000D01*
X86637993Y-67424000D01*
X86638004Y-67423999D01*
X86937600Y-67386150D01*
X87230107Y-67311048D01*
X87230110Y-67311047D01*
X87510882Y-67199882D01*
X87510890Y-67199878D01*
X87775514Y-67054400D01*
X87775525Y-67054393D01*
X88000433Y-66890986D01*
X88000434Y-66890986D01*
X87171234Y-66061787D01*
X87137749Y-66000464D01*
X87142733Y-65930773D01*
X87182263Y-65876636D01*
X87249540Y-65823729D01*
X87343723Y-65715035D01*
X87402496Y-65677264D01*
X87472365Y-65677263D01*
X87525113Y-65708560D01*
X88351686Y-66535133D01*
X88432482Y-66437470D01*
X88440719Y-66424491D01*
X88493260Y-66378433D01*
X88562360Y-66368093D01*
X88626081Y-66396752D01*
X88664193Y-66455313D01*
X88669306Y-66496200D01*
X87771574Y-87601221D01*
X87769500Y-87607313D01*
X87769500Y-87647986D01*
X87769372Y-87651965D01*
X87765005Y-87719885D01*
X87750372Y-87924636D01*
X87749383Y-87932087D01*
X87740553Y-87977362D01*
X87727010Y-88046794D01*
X87693276Y-88201985D01*
X87691521Y-88208385D01*
X87651703Y-88328123D01*
X87599154Y-88469126D01*
X87596898Y-88474415D01*
X87541117Y-88590049D01*
X87539703Y-88592804D01*
X87469646Y-88721221D01*
X87467149Y-88725399D01*
X87396342Y-88833971D01*
X87394062Y-88837233D01*
X87306955Y-88953717D01*
X87304469Y-88956828D01*
X87220317Y-89055469D01*
X87217015Y-89059045D01*
X87113657Y-89162527D01*
X87111415Y-89164662D01*
X87016257Y-89250867D01*
X87011820Y-89254526D01*
X86891432Y-89344785D01*
X86787824Y-89416834D01*
X86782181Y-89420325D01*
X86642843Y-89496561D01*
X86539165Y-89550434D01*
X86532293Y-89553491D01*
X86339954Y-89625438D01*
X86294957Y-89641904D01*
X86252344Y-89649456D01*
X71684901Y-89649500D01*
X71684900Y-89649500D01*
X64998789Y-89649551D01*
X64931749Y-89629867D01*
X64885994Y-89577063D01*
X64876050Y-89507905D01*
X64905074Y-89444349D01*
X64927665Y-89423975D01*
X64973821Y-89391656D01*
X65134657Y-89230820D01*
X65265134Y-89044482D01*
X65361265Y-88838326D01*
X65361269Y-88838317D01*
X65413872Y-88642000D01*
X64645576Y-88642000D01*
X64578537Y-88622315D01*
X64532782Y-88569511D01*
X64522838Y-88500353D01*
X64523103Y-88498603D01*
X64539986Y-88392003D01*
X64539986Y-88391996D01*
X64523103Y-88285397D01*
X64532058Y-88216104D01*
X64577054Y-88162652D01*
X64643806Y-88142013D01*
X64645576Y-88142000D01*
X65413872Y-88142000D01*
X65413872Y-88141999D01*
X65361269Y-87945682D01*
X65361265Y-87945673D01*
X65265134Y-87739517D01*
X65134657Y-87553179D01*
X64973820Y-87392342D01*
X64787482Y-87261865D01*
X64581328Y-87165734D01*
X64384999Y-87113127D01*
X64385000Y-87881424D01*
X64365315Y-87948463D01*
X64312511Y-87994218D01*
X64243353Y-88004162D01*
X64241602Y-88003897D01*
X64166486Y-87992000D01*
X64166481Y-87992000D01*
X64103519Y-87992000D01*
X64103514Y-87992000D01*
X64028398Y-88003897D01*
X63959104Y-87994942D01*
X63905652Y-87949946D01*
X63885013Y-87883194D01*
X63885000Y-87881424D01*
X63884999Y-87113127D01*
X63688671Y-87165734D01*
X63482517Y-87261865D01*
X63296179Y-87392342D01*
X63135342Y-87553179D01*
X63004865Y-87739517D01*
X62908734Y-87945673D01*
X62908730Y-87945682D01*
X62856127Y-88141999D01*
X62856128Y-88142000D01*
X63624424Y-88142000D01*
X63691463Y-88161685D01*
X63737218Y-88214489D01*
X63747162Y-88283647D01*
X63746897Y-88285397D01*
X63730014Y-88391996D01*
X63730014Y-88392003D01*
X63746897Y-88498603D01*
X63737942Y-88567896D01*
X63692946Y-88621348D01*
X63626194Y-88641987D01*
X63624424Y-88642000D01*
X62856128Y-88642000D01*
X62908730Y-88838317D01*
X62908734Y-88838326D01*
X63004865Y-89044482D01*
X63135342Y-89230820D01*
X63296183Y-89391661D01*
X63342354Y-89423991D01*
X63385979Y-89478568D01*
X63393171Y-89548067D01*
X63361648Y-89610421D01*
X63301418Y-89645834D01*
X63271231Y-89649565D01*
X61626153Y-89649578D01*
X61559113Y-89629894D01*
X61513358Y-89577090D01*
X61503414Y-89507932D01*
X61532438Y-89444376D01*
X61573749Y-89413195D01*
X61612482Y-89395133D01*
X61798820Y-89264657D01*
X61959657Y-89103820D01*
X62090134Y-88917482D01*
X62186265Y-88711326D01*
X62186269Y-88711317D01*
X62238872Y-88515000D01*
X61470576Y-88515000D01*
X61403537Y-88495315D01*
X61357782Y-88442511D01*
X61347838Y-88373353D01*
X61348103Y-88371603D01*
X61364986Y-88265003D01*
X61364986Y-88264996D01*
X61348103Y-88158397D01*
X61357058Y-88089104D01*
X61402054Y-88035652D01*
X61468806Y-88015013D01*
X61470576Y-88015000D01*
X62238872Y-88015000D01*
X62238872Y-88014999D01*
X62186269Y-87818682D01*
X62186265Y-87818673D01*
X62090134Y-87612517D01*
X61959657Y-87426179D01*
X61798820Y-87265342D01*
X61612482Y-87134865D01*
X61406328Y-87038734D01*
X61209999Y-86986127D01*
X61210000Y-87754424D01*
X61190315Y-87821463D01*
X61137511Y-87867218D01*
X61068353Y-87877162D01*
X61066602Y-87876897D01*
X60991486Y-87865000D01*
X60991481Y-87865000D01*
X60928519Y-87865000D01*
X60928512Y-87865000D01*
X60853396Y-87876897D01*
X60784103Y-87867942D01*
X60730651Y-87822946D01*
X60710012Y-87756194D01*
X60709999Y-87754424D01*
X60709999Y-86986127D01*
X60513672Y-87038734D01*
X60307517Y-87134865D01*
X60121179Y-87265342D01*
X59960342Y-87426179D01*
X59829865Y-87612517D01*
X59733734Y-87818673D01*
X59733730Y-87818682D01*
X59681127Y-88014999D01*
X59681128Y-88015000D01*
X60449424Y-88015000D01*
X60516463Y-88034685D01*
X60562218Y-88087489D01*
X60572162Y-88156647D01*
X60571897Y-88158397D01*
X60555014Y-88264996D01*
X60555014Y-88265003D01*
X60571897Y-88371603D01*
X60562942Y-88440896D01*
X60517946Y-88494348D01*
X60451194Y-88514987D01*
X60449424Y-88515000D01*
X59681128Y-88515000D01*
X59733730Y-88711317D01*
X59733734Y-88711326D01*
X59829865Y-88917482D01*
X59960342Y-89103820D01*
X60121179Y-89264657D01*
X60307515Y-89395132D01*
X60346273Y-89413205D01*
X60398713Y-89459377D01*
X60417865Y-89526571D01*
X60397650Y-89593452D01*
X60344485Y-89638787D01*
X60293870Y-89649588D01*
X57118179Y-89649613D01*
X57075596Y-89642072D01*
X57030502Y-89625584D01*
X56838176Y-89553700D01*
X56831301Y-89550644D01*
X56727571Y-89496773D01*
X56659183Y-89459377D01*
X56588177Y-89420549D01*
X56582561Y-89417075D01*
X56478909Y-89345024D01*
X56371668Y-89264657D01*
X56358478Y-89254772D01*
X56354045Y-89251117D01*
X56258834Y-89164895D01*
X56256591Y-89162760D01*
X56256358Y-89162527D01*
X56153203Y-89059279D01*
X56149905Y-89055709D01*
X56065714Y-88957052D01*
X56063228Y-88953942D01*
X55976099Y-88837464D01*
X55973832Y-88834223D01*
X55902954Y-88725568D01*
X55900469Y-88721411D01*
X55900365Y-88721221D01*
X55830399Y-88593000D01*
X55828984Y-88590246D01*
X55813420Y-88557990D01*
X55773158Y-88474549D01*
X55770918Y-88469296D01*
X55718350Y-88328270D01*
X55703507Y-88283647D01*
X55678503Y-88208477D01*
X55676752Y-88202088D01*
X55668178Y-88162652D01*
X55643011Y-88046891D01*
X55640378Y-88033396D01*
X55620619Y-87932116D01*
X55619635Y-87924701D01*
X55604995Y-87719885D01*
X55600628Y-87651973D01*
X55600500Y-87647993D01*
X55600500Y-87617303D01*
X55598424Y-87601229D01*
X55517111Y-85690328D01*
X69360859Y-85690328D01*
X69381385Y-85938052D01*
X69381387Y-85938061D01*
X69442412Y-86179040D01*
X69542266Y-86406687D01*
X69642564Y-86560205D01*
X70257050Y-85945718D01*
X70318373Y-85912233D01*
X70388064Y-85917217D01*
X70443998Y-85959088D01*
X70449039Y-85966348D01*
X70449048Y-85966362D01*
X70484239Y-86021121D01*
X70599602Y-86121082D01*
X70597293Y-86123745D01*
X70632006Y-86163822D01*
X70641935Y-86232983D01*
X70612898Y-86296533D01*
X70606882Y-86302992D01*
X69995942Y-86913932D01*
X70042768Y-86950378D01*
X70042770Y-86950379D01*
X70261385Y-87068687D01*
X70261396Y-87068692D01*
X70496506Y-87149406D01*
X70741707Y-87190323D01*
X70990293Y-87190323D01*
X71235493Y-87149406D01*
X71470603Y-87068692D01*
X71470614Y-87068687D01*
X71689228Y-86950380D01*
X71689231Y-86950378D01*
X71736056Y-86913932D01*
X71125116Y-86302992D01*
X71091631Y-86241669D01*
X71096615Y-86171977D01*
X71133641Y-86122516D01*
X71132398Y-86121082D01*
X71183841Y-86076507D01*
X71247761Y-86021121D01*
X71282954Y-85966360D01*
X71335755Y-85920606D01*
X71404914Y-85910662D01*
X71468470Y-85939686D01*
X71474949Y-85945719D01*
X72089434Y-86560205D01*
X72189731Y-86406692D01*
X72289587Y-86179040D01*
X72350612Y-85938061D01*
X72350614Y-85938052D01*
X72371141Y-85690328D01*
X72371141Y-85690317D01*
X72350614Y-85442593D01*
X72350612Y-85442584D01*
X72289587Y-85201605D01*
X72189731Y-84973953D01*
X72089434Y-84820439D01*
X71474949Y-85434925D01*
X71413626Y-85468410D01*
X71343934Y-85463426D01*
X71288001Y-85421554D01*
X71282953Y-85414284D01*
X71247761Y-85359525D01*
X71132398Y-85259564D01*
X71134698Y-85256908D01*
X71099960Y-85216751D01*
X71090074Y-85147584D01*
X71119152Y-85084052D01*
X71125116Y-85077652D01*
X71736056Y-84466712D01*
X71689229Y-84430266D01*
X71470614Y-84311958D01*
X71470603Y-84311953D01*
X71235493Y-84231239D01*
X70990293Y-84190323D01*
X70741707Y-84190323D01*
X70496506Y-84231239D01*
X70261396Y-84311953D01*
X70261390Y-84311955D01*
X70042761Y-84430272D01*
X69995942Y-84466711D01*
X69995942Y-84466713D01*
X70606883Y-85077653D01*
X70640368Y-85138976D01*
X70635384Y-85208667D01*
X70598358Y-85258128D01*
X70599602Y-85259564D01*
X70484238Y-85359525D01*
X70449046Y-85414285D01*
X70396242Y-85460040D01*
X70327083Y-85469983D01*
X70263528Y-85440957D01*
X70257050Y-85434926D01*
X69642564Y-84820439D01*
X69542267Y-84973955D01*
X69442412Y-85201605D01*
X69381387Y-85442584D01*
X69381385Y-85442593D01*
X69360859Y-85690317D01*
X69360859Y-85690328D01*
X55517111Y-85690328D01*
X55205148Y-78359001D01*
X58511532Y-78359001D01*
X58531364Y-78585686D01*
X58531366Y-78585697D01*
X58590258Y-78805488D01*
X58590261Y-78805497D01*
X58686431Y-79011732D01*
X58686432Y-79011734D01*
X58816954Y-79198141D01*
X58977858Y-79359045D01*
X58978388Y-79359416D01*
X59164266Y-79489568D01*
X59370504Y-79585739D01*
X59590308Y-79644635D01*
X59752230Y-79658801D01*
X59816998Y-79664468D01*
X59820756Y-79664468D01*
X59822350Y-79664936D01*
X59822393Y-79664940D01*
X59822392Y-79664948D01*
X59887795Y-79684153D01*
X59933550Y-79736957D01*
X59943494Y-79806115D01*
X59922331Y-79859591D01*
X59829432Y-79992265D01*
X59829431Y-79992267D01*
X59733261Y-80198502D01*
X59733258Y-80198511D01*
X59674366Y-80418302D01*
X59674364Y-80418313D01*
X59654532Y-80644998D01*
X59654532Y-80645001D01*
X59674364Y-80871686D01*
X59674366Y-80871697D01*
X59733258Y-81091488D01*
X59733261Y-81091497D01*
X59829431Y-81297732D01*
X59829432Y-81297734D01*
X59959954Y-81484141D01*
X60120858Y-81645045D01*
X60120861Y-81645047D01*
X60307266Y-81775568D01*
X60513504Y-81871739D01*
X60733308Y-81930635D01*
X60895230Y-81944801D01*
X60959998Y-81950468D01*
X60960000Y-81950468D01*
X60960002Y-81950468D01*
X61016672Y-81945509D01*
X61186692Y-81930635D01*
X61406496Y-81871739D01*
X61612734Y-81775568D01*
X61799139Y-81645047D01*
X61960047Y-81484139D01*
X62090568Y-81297734D01*
X62186739Y-81091496D01*
X62245635Y-80871692D01*
X62254357Y-80772001D01*
X62829532Y-80772001D01*
X62849364Y-80998686D01*
X62849366Y-80998697D01*
X62908258Y-81218488D01*
X62908261Y-81218497D01*
X63004431Y-81424732D01*
X63004432Y-81424734D01*
X63134954Y-81611141D01*
X63295858Y-81772045D01*
X63324356Y-81791999D01*
X63482266Y-81902568D01*
X63688504Y-81998739D01*
X63908308Y-82057635D01*
X64070230Y-82071801D01*
X64134998Y-82077468D01*
X64135000Y-82077468D01*
X64135002Y-82077468D01*
X64191673Y-82072509D01*
X64361692Y-82057635D01*
X64581496Y-81998739D01*
X64787734Y-81902568D01*
X64974139Y-81772047D01*
X65007993Y-81738193D01*
X69365500Y-81738193D01*
X69365501Y-81738199D01*
X69371908Y-81797806D01*
X69422202Y-81932651D01*
X69422206Y-81932658D01*
X69508452Y-82047867D01*
X69508455Y-82047870D01*
X69623664Y-82134116D01*
X69623671Y-82134120D01*
X69662503Y-82148603D01*
X69758517Y-82184414D01*
X69818127Y-82190823D01*
X70370500Y-82190822D01*
X70437539Y-82210506D01*
X70483294Y-82263310D01*
X70494500Y-82314822D01*
X70494500Y-82467255D01*
X70492775Y-82482872D01*
X70493061Y-82482899D01*
X70492326Y-82490665D01*
X70494500Y-82559814D01*
X70494500Y-82589343D01*
X70494501Y-82589360D01*
X70495368Y-82596231D01*
X70495826Y-82602050D01*
X70497290Y-82648624D01*
X70497291Y-82648627D01*
X70502880Y-82667867D01*
X70506824Y-82686911D01*
X70507781Y-82694482D01*
X70509336Y-82706791D01*
X70526490Y-82750119D01*
X70528382Y-82755647D01*
X70541381Y-82800388D01*
X70551580Y-82817634D01*
X70560136Y-82835100D01*
X70567514Y-82853732D01*
X70587194Y-82880820D01*
X70594898Y-82891423D01*
X70598106Y-82896307D01*
X70621827Y-82936416D01*
X70621833Y-82936424D01*
X70635990Y-82950580D01*
X70648628Y-82965376D01*
X70660405Y-82981586D01*
X70660406Y-82981587D01*
X70696309Y-83011288D01*
X70700620Y-83015210D01*
X73145450Y-85460040D01*
X75572194Y-87886784D01*
X75582019Y-87899048D01*
X75582240Y-87898866D01*
X75587210Y-87904873D01*
X75587213Y-87904876D01*
X75587214Y-87904877D01*
X75637651Y-87952241D01*
X75658530Y-87973120D01*
X75664004Y-87977366D01*
X75668442Y-87981156D01*
X75702418Y-88013062D01*
X75705943Y-88015000D01*
X75719973Y-88022713D01*
X75736231Y-88033392D01*
X75752064Y-88045674D01*
X75762228Y-88050072D01*
X75794837Y-88064183D01*
X75800081Y-88066752D01*
X75840908Y-88089197D01*
X75860312Y-88094179D01*
X75878710Y-88100478D01*
X75897105Y-88108438D01*
X75943129Y-88115726D01*
X75948832Y-88116907D01*
X75993981Y-88128500D01*
X76014016Y-88128500D01*
X76033413Y-88130026D01*
X76053196Y-88133160D01*
X76099583Y-88128775D01*
X76105422Y-88128500D01*
X85007257Y-88128500D01*
X85022877Y-88130224D01*
X85022904Y-88129939D01*
X85030660Y-88130671D01*
X85030667Y-88130673D01*
X85099814Y-88128500D01*
X85129350Y-88128500D01*
X85136228Y-88127630D01*
X85142041Y-88127172D01*
X85188627Y-88125709D01*
X85207869Y-88120117D01*
X85226912Y-88116174D01*
X85246792Y-88113664D01*
X85290122Y-88096507D01*
X85295646Y-88094617D01*
X85299396Y-88093527D01*
X85340390Y-88081618D01*
X85357629Y-88071422D01*
X85375103Y-88062862D01*
X85393727Y-88055488D01*
X85393727Y-88055487D01*
X85393732Y-88055486D01*
X85431449Y-88028082D01*
X85436305Y-88024892D01*
X85476420Y-88001170D01*
X85490589Y-87986999D01*
X85505379Y-87974368D01*
X85521587Y-87962594D01*
X85551299Y-87926676D01*
X85555212Y-87922376D01*
X86870787Y-86606802D01*
X86883042Y-86596986D01*
X86882859Y-86596764D01*
X86888866Y-86591792D01*
X86888877Y-86591786D01*
X86919775Y-86558882D01*
X86936227Y-86541364D01*
X86946671Y-86530918D01*
X86957120Y-86520471D01*
X86961379Y-86514978D01*
X86965152Y-86510561D01*
X86997062Y-86476582D01*
X87006713Y-86459024D01*
X87017396Y-86442761D01*
X87029673Y-86426936D01*
X87048185Y-86384153D01*
X87050738Y-86378941D01*
X87073197Y-86338092D01*
X87078180Y-86318680D01*
X87084481Y-86300280D01*
X87092437Y-86281896D01*
X87099729Y-86235852D01*
X87100906Y-86230171D01*
X87112500Y-86185019D01*
X87112500Y-86164982D01*
X87114027Y-86145582D01*
X87114522Y-86142457D01*
X87117160Y-86125804D01*
X87112775Y-86079415D01*
X87112500Y-86073577D01*
X87112500Y-78822742D01*
X87114224Y-78807122D01*
X87113939Y-78807096D01*
X87114671Y-78799340D01*
X87114673Y-78799333D01*
X87112500Y-78730185D01*
X87112500Y-78700650D01*
X87111631Y-78693772D01*
X87111172Y-78687943D01*
X87109709Y-78641372D01*
X87104122Y-78622144D01*
X87100174Y-78603084D01*
X87097978Y-78585697D01*
X87097664Y-78583208D01*
X87097663Y-78583206D01*
X87097663Y-78583204D01*
X87080512Y-78539887D01*
X87078619Y-78534358D01*
X87065618Y-78489609D01*
X87065616Y-78489606D01*
X87055423Y-78472371D01*
X87046861Y-78454894D01*
X87039487Y-78436270D01*
X87033020Y-78427369D01*
X87012079Y-78398545D01*
X87008888Y-78393686D01*
X86985172Y-78353583D01*
X86985165Y-78353574D01*
X86971006Y-78339415D01*
X86958368Y-78324619D01*
X86950368Y-78313608D01*
X86946594Y-78308413D01*
X86914494Y-78281858D01*
X86910688Y-78278709D01*
X86906376Y-78274786D01*
X84100819Y-75469228D01*
X84067334Y-75407905D01*
X84064500Y-75381547D01*
X84064500Y-72715188D01*
X84084185Y-72648149D01*
X84117377Y-72613613D01*
X84165836Y-72579681D01*
X84278139Y-72501047D01*
X84439047Y-72340139D01*
X84569568Y-72153734D01*
X84665739Y-71947496D01*
X84724635Y-71727692D01*
X84744468Y-71501000D01*
X84743463Y-71489517D01*
X84731666Y-71354671D01*
X84724635Y-71274308D01*
X84665739Y-71054504D01*
X84569568Y-70848266D01*
X84439047Y-70661861D01*
X84439045Y-70661858D01*
X84278141Y-70500954D01*
X84091734Y-70370432D01*
X84091732Y-70370431D01*
X83885497Y-70274261D01*
X83885488Y-70274258D01*
X83665697Y-70215366D01*
X83665693Y-70215365D01*
X83665692Y-70215365D01*
X83665691Y-70215364D01*
X83665686Y-70215364D01*
X83439002Y-70195532D01*
X83438998Y-70195532D01*
X83212313Y-70215364D01*
X83212302Y-70215366D01*
X82992511Y-70274258D01*
X82992502Y-70274261D01*
X82786267Y-70370431D01*
X82786265Y-70370432D01*
X82599858Y-70500954D01*
X82438954Y-70661858D01*
X82308432Y-70848265D01*
X82308431Y-70848267D01*
X82212261Y-71054502D01*
X82212258Y-71054511D01*
X82153366Y-71274302D01*
X82153364Y-71274313D01*
X82133532Y-71500998D01*
X82133532Y-71501001D01*
X82153364Y-71727686D01*
X82153366Y-71727697D01*
X82212258Y-71947488D01*
X82212261Y-71947497D01*
X82308431Y-72153732D01*
X82308432Y-72153734D01*
X82438954Y-72340141D01*
X82599858Y-72501045D01*
X82760623Y-72613613D01*
X82804248Y-72668189D01*
X82813500Y-72715188D01*
X82813500Y-75609255D01*
X82811775Y-75624872D01*
X82812061Y-75624899D01*
X82811326Y-75632665D01*
X82813500Y-75701814D01*
X82813500Y-75731343D01*
X82813501Y-75731360D01*
X82814368Y-75738231D01*
X82814826Y-75744050D01*
X82816290Y-75790624D01*
X82816291Y-75790627D01*
X82821880Y-75809867D01*
X82825824Y-75828911D01*
X82828336Y-75848791D01*
X82845490Y-75892119D01*
X82847382Y-75897647D01*
X82860381Y-75942388D01*
X82870580Y-75959634D01*
X82879138Y-75977103D01*
X82886514Y-75995732D01*
X82913898Y-76033423D01*
X82917106Y-76038307D01*
X82940827Y-76078416D01*
X82940833Y-76078424D01*
X82954990Y-76092580D01*
X82967628Y-76107376D01*
X82979405Y-76123586D01*
X82979406Y-76123587D01*
X83015309Y-76153288D01*
X83019620Y-76157210D01*
X85825182Y-78962772D01*
X85858666Y-79024093D01*
X85861500Y-79050451D01*
X85861500Y-81209556D01*
X85841815Y-81276595D01*
X85789011Y-81322350D01*
X85719853Y-81332294D01*
X85656297Y-81303269D01*
X85635926Y-81280680D01*
X85581661Y-81203183D01*
X85420820Y-81042342D01*
X85234482Y-80911865D01*
X85028328Y-80815734D01*
X84832000Y-80763127D01*
X84832000Y-81531424D01*
X84812315Y-81598463D01*
X84759511Y-81644218D01*
X84690353Y-81654162D01*
X84688602Y-81653897D01*
X84613486Y-81642000D01*
X84613481Y-81642000D01*
X84550519Y-81642000D01*
X84550512Y-81642000D01*
X84475396Y-81653897D01*
X84406103Y-81644942D01*
X84352651Y-81599946D01*
X84332012Y-81533194D01*
X84331999Y-81531424D01*
X84331999Y-80763127D01*
X84135671Y-80815734D01*
X83929517Y-80911865D01*
X83743179Y-81042342D01*
X83582342Y-81203179D01*
X83451865Y-81389517D01*
X83355734Y-81595673D01*
X83355730Y-81595682D01*
X83303127Y-81791999D01*
X83303128Y-81792000D01*
X84071424Y-81792000D01*
X84138463Y-81811685D01*
X84184218Y-81864489D01*
X84194162Y-81933647D01*
X84193897Y-81935397D01*
X84177014Y-82041996D01*
X84177014Y-82042003D01*
X84193897Y-82148603D01*
X84184942Y-82217896D01*
X84139946Y-82271348D01*
X84073194Y-82291987D01*
X84071424Y-82292000D01*
X83303128Y-82292000D01*
X83355730Y-82488317D01*
X83355734Y-82488326D01*
X83451865Y-82694482D01*
X83582342Y-82880820D01*
X83743179Y-83041657D01*
X83929517Y-83172134D01*
X84135673Y-83268265D01*
X84135682Y-83268269D01*
X84331999Y-83320872D01*
X84331999Y-82552575D01*
X84351683Y-82485536D01*
X84404487Y-82439781D01*
X84473646Y-82429837D01*
X84475353Y-82430095D01*
X84500583Y-82434091D01*
X84550515Y-82442000D01*
X84550519Y-82442000D01*
X84613485Y-82442000D01*
X84656300Y-82435218D01*
X84688602Y-82430102D01*
X84757894Y-82439056D01*
X84811347Y-82484052D01*
X84831987Y-82550803D01*
X84832000Y-82552575D01*
X84832000Y-83320872D01*
X85028317Y-83268269D01*
X85028326Y-83268265D01*
X85234482Y-83172134D01*
X85420820Y-83041657D01*
X85581657Y-82880820D01*
X85635925Y-82803319D01*
X85690502Y-82759694D01*
X85760001Y-82752502D01*
X85822355Y-82784024D01*
X85857769Y-82844254D01*
X85861500Y-82874443D01*
X85861500Y-85795546D01*
X85841815Y-85862585D01*
X85825181Y-85883227D01*
X84867228Y-86841181D01*
X84805905Y-86874666D01*
X84779547Y-86877500D01*
X81949318Y-86877500D01*
X81882279Y-86857815D01*
X81836524Y-86805011D01*
X81826580Y-86735853D01*
X81855605Y-86672297D01*
X81859575Y-86667930D01*
X81927091Y-86597121D01*
X82005986Y-86514378D01*
X82119613Y-86337572D01*
X82197725Y-86142457D01*
X82237500Y-85936085D01*
X82237500Y-85228575D01*
X82222528Y-85071782D01*
X82163316Y-84870125D01*
X82067011Y-84683318D01*
X82067009Y-84683316D01*
X82067008Y-84683313D01*
X81937094Y-84518116D01*
X81937090Y-84518112D01*
X81778253Y-84380478D01*
X81596249Y-84275398D01*
X81596245Y-84275396D01*
X81596244Y-84275396D01*
X81397633Y-84206656D01*
X81189602Y-84176746D01*
X81189598Y-84176746D01*
X80979672Y-84186745D01*
X80775421Y-84236296D01*
X80775417Y-84236298D01*
X80584256Y-84323598D01*
X80584251Y-84323601D01*
X80413046Y-84445515D01*
X80413045Y-84445515D01*
X80315249Y-84548082D01*
X80254740Y-84583017D01*
X80184949Y-84579692D01*
X80128035Y-84539164D01*
X80119967Y-84527608D01*
X80114110Y-84518112D01*
X80079712Y-84462344D01*
X79955656Y-84338288D01*
X79806334Y-84246186D01*
X79806333Y-84246185D01*
X79805403Y-84245612D01*
X79758679Y-84193664D01*
X79746500Y-84140073D01*
X79746500Y-79121001D01*
X82133532Y-79121001D01*
X82153364Y-79347686D01*
X82153366Y-79347697D01*
X82212258Y-79567488D01*
X82212261Y-79567497D01*
X82308431Y-79773732D01*
X82308432Y-79773734D01*
X82438954Y-79960141D01*
X82599858Y-80121045D01*
X82624053Y-80137986D01*
X82786266Y-80251568D01*
X82992504Y-80347739D01*
X82992509Y-80347740D01*
X82992511Y-80347741D01*
X83045415Y-80361916D01*
X83212308Y-80406635D01*
X83374230Y-80420801D01*
X83438998Y-80426468D01*
X83439000Y-80426468D01*
X83439002Y-80426468D01*
X83495673Y-80421509D01*
X83665692Y-80406635D01*
X83885496Y-80347739D01*
X84091734Y-80251568D01*
X84278139Y-80121047D01*
X84439047Y-79960139D01*
X84569568Y-79773734D01*
X84665739Y-79567496D01*
X84724635Y-79347692D01*
X84744468Y-79121000D01*
X84724635Y-78894308D01*
X84665739Y-78674504D01*
X84569568Y-78468266D01*
X84439047Y-78281861D01*
X84439045Y-78281858D01*
X84278141Y-78120954D01*
X84091734Y-77990432D01*
X84091732Y-77990431D01*
X83885497Y-77894261D01*
X83885488Y-77894258D01*
X83665697Y-77835366D01*
X83665693Y-77835365D01*
X83665692Y-77835365D01*
X83665691Y-77835364D01*
X83665686Y-77835364D01*
X83439002Y-77815532D01*
X83438998Y-77815532D01*
X83212313Y-77835364D01*
X83212302Y-77835366D01*
X82992511Y-77894258D01*
X82992502Y-77894261D01*
X82786267Y-77990431D01*
X82786265Y-77990432D01*
X82599858Y-78120954D01*
X82438954Y-78281858D01*
X82308432Y-78468265D01*
X82308431Y-78468267D01*
X82212261Y-78674502D01*
X82212258Y-78674511D01*
X82153366Y-78894302D01*
X82153364Y-78894313D01*
X82133532Y-79120998D01*
X82133532Y-79121001D01*
X79746500Y-79121001D01*
X79746500Y-78447982D01*
X79766185Y-78380943D01*
X79766692Y-78380160D01*
X79797820Y-78332515D01*
X79810173Y-78313607D01*
X79910063Y-78085881D01*
X79971108Y-77844821D01*
X79971109Y-77844812D01*
X79991643Y-77597005D01*
X79991643Y-77596994D01*
X79971109Y-77349187D01*
X79971107Y-77349175D01*
X79910063Y-77108118D01*
X79810173Y-76880393D01*
X79674166Y-76672217D01*
X79624477Y-76618241D01*
X79505744Y-76489262D01*
X79309509Y-76336526D01*
X79309507Y-76336525D01*
X79309506Y-76336524D01*
X79090811Y-76218172D01*
X79090802Y-76218169D01*
X78855616Y-76137429D01*
X78610335Y-76096500D01*
X78464129Y-76096500D01*
X78397090Y-76076815D01*
X78376448Y-76060181D01*
X75961138Y-73644870D01*
X76985500Y-73644870D01*
X76985501Y-73644876D01*
X76991908Y-73704483D01*
X77042202Y-73839328D01*
X77042206Y-73839335D01*
X77128452Y-73954544D01*
X77128455Y-73954547D01*
X77243664Y-74040793D01*
X77243671Y-74040797D01*
X77378517Y-74091091D01*
X77378516Y-74091091D01*
X77385444Y-74091835D01*
X77438127Y-74097500D01*
X79533872Y-74097499D01*
X79593483Y-74091091D01*
X79728331Y-74040796D01*
X79843546Y-73954546D01*
X79929796Y-73839331D01*
X79980091Y-73704483D01*
X79986500Y-73644873D01*
X79986499Y-71549128D01*
X79980091Y-71489517D01*
X79943620Y-71391734D01*
X79929797Y-71354671D01*
X79929793Y-71354664D01*
X79843547Y-71239455D01*
X79843544Y-71239452D01*
X79728335Y-71153206D01*
X79728328Y-71153202D01*
X79593482Y-71102908D01*
X79593483Y-71102908D01*
X79533883Y-71096501D01*
X79533881Y-71096500D01*
X79533873Y-71096500D01*
X79533864Y-71096500D01*
X77438129Y-71096500D01*
X77438123Y-71096501D01*
X77378516Y-71102908D01*
X77243671Y-71153202D01*
X77243664Y-71153206D01*
X77128455Y-71239452D01*
X77128452Y-71239455D01*
X77042206Y-71354664D01*
X77042202Y-71354671D01*
X76991908Y-71489517D01*
X76985501Y-71549116D01*
X76985501Y-71549123D01*
X76985500Y-71549135D01*
X76985500Y-73644870D01*
X75961138Y-73644870D01*
X75226496Y-72910228D01*
X75193011Y-72848905D01*
X75190177Y-72822547D01*
X75190177Y-68982775D01*
X75209862Y-68915736D01*
X75226496Y-68895094D01*
X75938149Y-68183441D01*
X76661321Y-67460268D01*
X76722642Y-67426785D01*
X76792334Y-67431769D01*
X76848267Y-67473641D01*
X76872684Y-67539105D01*
X76873000Y-67547951D01*
X76873000Y-68197370D01*
X76873001Y-68197376D01*
X76879408Y-68256983D01*
X76929702Y-68391828D01*
X76929706Y-68391835D01*
X77015952Y-68507044D01*
X77015955Y-68507047D01*
X77131164Y-68593293D01*
X77131171Y-68593297D01*
X77266017Y-68643591D01*
X77266016Y-68643591D01*
X77272944Y-68644335D01*
X77325627Y-68650000D01*
X78921372Y-68649999D01*
X78980983Y-68643591D01*
X79115831Y-68593296D01*
X79231046Y-68507046D01*
X79317296Y-68391831D01*
X79367591Y-68256983D01*
X79374000Y-68197373D01*
X79373999Y-66601628D01*
X79367591Y-66542017D01*
X79366156Y-66538170D01*
X79317297Y-66407171D01*
X79317293Y-66407164D01*
X79231047Y-66291955D01*
X79231044Y-66291952D01*
X79115835Y-66205706D01*
X79115828Y-66205702D01*
X78980982Y-66155408D01*
X78980983Y-66155408D01*
X78921383Y-66149001D01*
X78921381Y-66149000D01*
X78921373Y-66149000D01*
X78921365Y-66149000D01*
X78855362Y-66149000D01*
X78788323Y-66129315D01*
X78742568Y-66076511D01*
X78732624Y-66007353D01*
X78761649Y-65943797D01*
X78784234Y-65923428D01*
X78930377Y-65821098D01*
X79085098Y-65666377D01*
X79210602Y-65487139D01*
X79303075Y-65288830D01*
X79359707Y-65077477D01*
X79376305Y-64887754D01*
X79378777Y-64859502D01*
X79378777Y-64859497D01*
X79373615Y-64800498D01*
X79359707Y-64641523D01*
X79303075Y-64430170D01*
X79210602Y-64231862D01*
X79210600Y-64231859D01*
X79210599Y-64231857D01*
X79085099Y-64052624D01*
X79009580Y-63977105D01*
X78930377Y-63897902D01*
X78751139Y-63772398D01*
X78751140Y-63772398D01*
X78751138Y-63772397D01*
X78651984Y-63726161D01*
X78552830Y-63679925D01*
X78552826Y-63679924D01*
X78552822Y-63679922D01*
X78341477Y-63623293D01*
X78123502Y-63604223D01*
X78123498Y-63604223D01*
X77978182Y-63616936D01*
X77905523Y-63623293D01*
X77905520Y-63623293D01*
X77694177Y-63679922D01*
X77694168Y-63679926D01*
X77495861Y-63772398D01*
X77495857Y-63772400D01*
X77316621Y-63897902D01*
X77161902Y-64052621D01*
X77036400Y-64231857D01*
X77036398Y-64231861D01*
X76943926Y-64430168D01*
X76943922Y-64430177D01*
X76887293Y-64641520D01*
X76887293Y-64641524D01*
X76868223Y-64859497D01*
X76868223Y-64859502D01*
X76877757Y-64968488D01*
X76887214Y-65076578D01*
X76887293Y-65077475D01*
X76887293Y-65077479D01*
X76943924Y-65288828D01*
X76945285Y-65291747D01*
X76945498Y-65293152D01*
X76945773Y-65293907D01*
X76945621Y-65293962D01*
X76955773Y-65360825D01*
X76927249Y-65424608D01*
X76920581Y-65431826D01*
X74341905Y-68010504D01*
X74280582Y-68043989D01*
X74254224Y-68046823D01*
X72692150Y-68046823D01*
X72625111Y-68027138D01*
X72579356Y-67974334D01*
X72578595Y-67972634D01*
X72571175Y-67955719D01*
X72435166Y-67747540D01*
X72413557Y-67724067D01*
X72266744Y-67564585D01*
X72070509Y-67411849D01*
X72070507Y-67411848D01*
X72070506Y-67411847D01*
X71851811Y-67293495D01*
X71851802Y-67293492D01*
X71616616Y-67212752D01*
X71371335Y-67171823D01*
X71122665Y-67171823D01*
X70877383Y-67212752D01*
X70642197Y-67293492D01*
X70642188Y-67293495D01*
X70423493Y-67411847D01*
X70227257Y-67564584D01*
X70058833Y-67747540D01*
X69922826Y-67955716D01*
X69822936Y-68183441D01*
X69761892Y-68424498D01*
X69761890Y-68424510D01*
X69741357Y-68672317D01*
X69741357Y-68672328D01*
X69761890Y-68920135D01*
X69761892Y-68920147D01*
X69822936Y-69161204D01*
X69922826Y-69388929D01*
X70058833Y-69597105D01*
X70091245Y-69632314D01*
X70227256Y-69780061D01*
X70423491Y-69932797D01*
X70642190Y-70051151D01*
X70877386Y-70131894D01*
X71122665Y-70172823D01*
X71371335Y-70172823D01*
X71616614Y-70131894D01*
X71851810Y-70051151D01*
X72070509Y-69932797D01*
X72266744Y-69780061D01*
X72435164Y-69597108D01*
X72571173Y-69388930D01*
X72571175Y-69388926D01*
X72578595Y-69372012D01*
X72623551Y-69318526D01*
X72690287Y-69297837D01*
X72692150Y-69297823D01*
X73815177Y-69297823D01*
X73882216Y-69317508D01*
X73927971Y-69370312D01*
X73939177Y-69421823D01*
X73939177Y-73050255D01*
X73937452Y-73065872D01*
X73937738Y-73065899D01*
X73937003Y-73073665D01*
X73939177Y-73142814D01*
X73939177Y-73172343D01*
X73939178Y-73172360D01*
X73940045Y-73179231D01*
X73940503Y-73185050D01*
X73941967Y-73231624D01*
X73941968Y-73231627D01*
X73947557Y-73250867D01*
X73951501Y-73269911D01*
X73954013Y-73289792D01*
X73954624Y-73291335D01*
X73971167Y-73333119D01*
X73973059Y-73338647D01*
X73986058Y-73383388D01*
X73996257Y-73400634D01*
X74004815Y-73418103D01*
X74012191Y-73436732D01*
X74039575Y-73474423D01*
X74042783Y-73479307D01*
X74066504Y-73519416D01*
X74066510Y-73519424D01*
X74080667Y-73533580D01*
X74093305Y-73548376D01*
X74105082Y-73564586D01*
X74105083Y-73564587D01*
X74140986Y-73594288D01*
X74145297Y-73598210D01*
X75928634Y-75381547D01*
X77195599Y-76648512D01*
X77229084Y-76709835D01*
X77224100Y-76779527D01*
X77211727Y-76804014D01*
X77161826Y-76880393D01*
X77061936Y-77108118D01*
X77000892Y-77349175D01*
X77000890Y-77349187D01*
X76980357Y-77596994D01*
X76980357Y-77597005D01*
X77000890Y-77844812D01*
X77000892Y-77844824D01*
X77061936Y-78085881D01*
X77161826Y-78313606D01*
X77297833Y-78521782D01*
X77314500Y-78539887D01*
X77466256Y-78704738D01*
X77662491Y-78857474D01*
X77881190Y-78975828D01*
X78116386Y-79056571D01*
X78361665Y-79097500D01*
X78371500Y-79097500D01*
X78438539Y-79117185D01*
X78484294Y-79169989D01*
X78495500Y-79221500D01*
X78495500Y-81808353D01*
X78475815Y-81875392D01*
X78423011Y-81921147D01*
X78353853Y-81931091D01*
X78290297Y-81902066D01*
X78252523Y-81843288D01*
X78247972Y-81819161D01*
X78247635Y-81815312D01*
X78247635Y-81815308D01*
X78188739Y-81595504D01*
X78092568Y-81389266D01*
X77966735Y-81209556D01*
X77962045Y-81202858D01*
X77801141Y-81041954D01*
X77614734Y-80911432D01*
X77614732Y-80911431D01*
X77408497Y-80815261D01*
X77408488Y-80815258D01*
X77188697Y-80756366D01*
X77188693Y-80756365D01*
X77188692Y-80756365D01*
X77188691Y-80756364D01*
X77188686Y-80756364D01*
X76962002Y-80736532D01*
X76961998Y-80736532D01*
X76735313Y-80756364D01*
X76735302Y-80756366D01*
X76515511Y-80815258D01*
X76515502Y-80815261D01*
X76309267Y-80911431D01*
X76309265Y-80911432D01*
X76122858Y-81041954D01*
X75961954Y-81202858D01*
X75831432Y-81389265D01*
X75831431Y-81389267D01*
X75735261Y-81595502D01*
X75735258Y-81595511D01*
X75676366Y-81815302D01*
X75676364Y-81815313D01*
X75656532Y-82041998D01*
X75656532Y-82042001D01*
X75676364Y-82268686D01*
X75676366Y-82268697D01*
X75735258Y-82488488D01*
X75735261Y-82488497D01*
X75831431Y-82694732D01*
X75831432Y-82694734D01*
X75961954Y-82881141D01*
X76122858Y-83042045D01*
X76122861Y-83042047D01*
X76309266Y-83172568D01*
X76515504Y-83268739D01*
X76735308Y-83327635D01*
X76897230Y-83341801D01*
X76961998Y-83347468D01*
X76962000Y-83347468D01*
X76962002Y-83347468D01*
X77018672Y-83342509D01*
X77188692Y-83327635D01*
X77408496Y-83268739D01*
X77614734Y-83172568D01*
X77801139Y-83042047D01*
X77962047Y-82881139D01*
X78092568Y-82694734D01*
X78188739Y-82488496D01*
X78247635Y-82268692D01*
X78247972Y-82264838D01*
X78273424Y-82199770D01*
X78330015Y-82158791D01*
X78399777Y-82154913D01*
X78460561Y-82189367D01*
X78493069Y-82251214D01*
X78495500Y-82275646D01*
X78495500Y-84159810D01*
X78475815Y-84226849D01*
X78436597Y-84265348D01*
X78318347Y-84338285D01*
X78318343Y-84338288D01*
X78194289Y-84462342D01*
X78102187Y-84611663D01*
X78102185Y-84611666D01*
X78102186Y-84611666D01*
X78047001Y-84778203D01*
X78047001Y-84778204D01*
X78047000Y-84778204D01*
X78036500Y-84880983D01*
X78036500Y-86231001D01*
X78036501Y-86231018D01*
X78047000Y-86333796D01*
X78047001Y-86333799D01*
X78102185Y-86500331D01*
X78102187Y-86500336D01*
X78119443Y-86528312D01*
X78194287Y-86649655D01*
X78194289Y-86649657D01*
X78210451Y-86665819D01*
X78243936Y-86727142D01*
X78238952Y-86796834D01*
X78197080Y-86852767D01*
X78131616Y-86877184D01*
X78122770Y-86877500D01*
X76383452Y-86877500D01*
X76316413Y-86857815D01*
X76295771Y-86841181D01*
X71854739Y-82400148D01*
X71821254Y-82338825D01*
X71826238Y-82269133D01*
X71868110Y-82213200D01*
X71929166Y-82189177D01*
X71973483Y-82184414D01*
X72108331Y-82134119D01*
X72223546Y-82047869D01*
X72309796Y-81932654D01*
X72360091Y-81797806D01*
X72366500Y-81738196D01*
X72366499Y-79642451D01*
X72360091Y-79582840D01*
X72354368Y-79567497D01*
X72309797Y-79447994D01*
X72309793Y-79447987D01*
X72223547Y-79332778D01*
X72223544Y-79332775D01*
X72108335Y-79246529D01*
X72108328Y-79246525D01*
X71973482Y-79196231D01*
X71973483Y-79196231D01*
X71913883Y-79189824D01*
X71913881Y-79189823D01*
X71913873Y-79189823D01*
X71913864Y-79189823D01*
X69818129Y-79189823D01*
X69818123Y-79189824D01*
X69758516Y-79196231D01*
X69623671Y-79246525D01*
X69623664Y-79246529D01*
X69508455Y-79332775D01*
X69508452Y-79332778D01*
X69422206Y-79447987D01*
X69422202Y-79447994D01*
X69371908Y-79582840D01*
X69365609Y-79641432D01*
X69365501Y-79642446D01*
X69365500Y-79642458D01*
X69365500Y-81738193D01*
X65007993Y-81738193D01*
X65135047Y-81611139D01*
X65265568Y-81424734D01*
X65361739Y-81218496D01*
X65420635Y-80998692D01*
X65440468Y-80772000D01*
X65420635Y-80545308D01*
X65361739Y-80325504D01*
X65265568Y-80119266D01*
X65159606Y-79967935D01*
X65135045Y-79932858D01*
X64974141Y-79771954D01*
X64787734Y-79641432D01*
X64787732Y-79641431D01*
X64581497Y-79545261D01*
X64581488Y-79545258D01*
X64361697Y-79486366D01*
X64361693Y-79486365D01*
X64361692Y-79486365D01*
X64361691Y-79486364D01*
X64361686Y-79486364D01*
X64135002Y-79466532D01*
X64134998Y-79466532D01*
X63908313Y-79486364D01*
X63908302Y-79486366D01*
X63688511Y-79545258D01*
X63688502Y-79545261D01*
X63482267Y-79641431D01*
X63482265Y-79641432D01*
X63295858Y-79771954D01*
X63134954Y-79932858D01*
X63004432Y-80119265D01*
X63004431Y-80119267D01*
X62908261Y-80325502D01*
X62908258Y-80325511D01*
X62849366Y-80545302D01*
X62849364Y-80545313D01*
X62829532Y-80771998D01*
X62829532Y-80772001D01*
X62254357Y-80772001D01*
X62265468Y-80645000D01*
X62245635Y-80418308D01*
X62227318Y-80349948D01*
X62228981Y-80280103D01*
X62259410Y-80230179D01*
X62341788Y-80147801D01*
X62354042Y-80137986D01*
X62353859Y-80137764D01*
X62359866Y-80132792D01*
X62359877Y-80132786D01*
X62390775Y-80099882D01*
X62407227Y-80082364D01*
X62417671Y-80071918D01*
X62428120Y-80061471D01*
X62432379Y-80055978D01*
X62436152Y-80051561D01*
X62468062Y-80017582D01*
X62477713Y-80000024D01*
X62488396Y-79983761D01*
X62500673Y-79967936D01*
X62519185Y-79925153D01*
X62521738Y-79919941D01*
X62544197Y-79879092D01*
X62549180Y-79859680D01*
X62555481Y-79841280D01*
X62563437Y-79822896D01*
X62570729Y-79776852D01*
X62571906Y-79771171D01*
X62583500Y-79726019D01*
X62583500Y-79705982D01*
X62585027Y-79686582D01*
X62585412Y-79684153D01*
X62588160Y-79666804D01*
X62583775Y-79620415D01*
X62583500Y-79614577D01*
X62583500Y-77049005D01*
X63137859Y-77049005D01*
X63158385Y-77296729D01*
X63158387Y-77296738D01*
X63219412Y-77537717D01*
X63319266Y-77765364D01*
X63419564Y-77918882D01*
X64034050Y-77304395D01*
X64095373Y-77270910D01*
X64165064Y-77275894D01*
X64220998Y-77317765D01*
X64226039Y-77325025D01*
X64261239Y-77379797D01*
X64261239Y-77379798D01*
X64376602Y-77479759D01*
X64374293Y-77482422D01*
X64409006Y-77522499D01*
X64418935Y-77591660D01*
X64389898Y-77655210D01*
X64383882Y-77661669D01*
X63772942Y-78272609D01*
X63819768Y-78309055D01*
X63819770Y-78309056D01*
X64038385Y-78427364D01*
X64038396Y-78427369D01*
X64273506Y-78508083D01*
X64518707Y-78549000D01*
X64767293Y-78549000D01*
X65012493Y-78508083D01*
X65247603Y-78427369D01*
X65247614Y-78427364D01*
X65466228Y-78309057D01*
X65466231Y-78309055D01*
X65513056Y-78272609D01*
X64902116Y-77661669D01*
X64868631Y-77600346D01*
X64873615Y-77530654D01*
X64910641Y-77481193D01*
X64909398Y-77479759D01*
X64916100Y-77473952D01*
X65024761Y-77379798D01*
X65059954Y-77325037D01*
X65112755Y-77279283D01*
X65181914Y-77269339D01*
X65245470Y-77298363D01*
X65251949Y-77304396D01*
X65866434Y-77918882D01*
X65966731Y-77765369D01*
X66066587Y-77537717D01*
X66127612Y-77296738D01*
X66127614Y-77296729D01*
X66148141Y-77049005D01*
X66148141Y-77048994D01*
X66127614Y-76801270D01*
X66127612Y-76801261D01*
X66066587Y-76560282D01*
X65966731Y-76332630D01*
X65866434Y-76179116D01*
X65251949Y-76793602D01*
X65190626Y-76827087D01*
X65120934Y-76822103D01*
X65065001Y-76780231D01*
X65059953Y-76772961D01*
X65024761Y-76718202D01*
X64909398Y-76618241D01*
X64911698Y-76615585D01*
X64876960Y-76575428D01*
X64867074Y-76506261D01*
X64896152Y-76442729D01*
X64902116Y-76436329D01*
X65513056Y-75825389D01*
X65466229Y-75788943D01*
X65247614Y-75670635D01*
X65247603Y-75670630D01*
X65012493Y-75589916D01*
X64767293Y-75549000D01*
X64518707Y-75549000D01*
X64273506Y-75589916D01*
X64038396Y-75670630D01*
X64038390Y-75670632D01*
X63819761Y-75788949D01*
X63772942Y-75825388D01*
X63772942Y-75825390D01*
X64383883Y-76436330D01*
X64417368Y-76497653D01*
X64412384Y-76567344D01*
X64375358Y-76616805D01*
X64376602Y-76618241D01*
X64261238Y-76718202D01*
X64226046Y-76772962D01*
X64173242Y-76818717D01*
X64104083Y-76828660D01*
X64040528Y-76799634D01*
X64034050Y-76793603D01*
X63419564Y-76179116D01*
X63319267Y-76332632D01*
X63219412Y-76560282D01*
X63158387Y-76801261D01*
X63158385Y-76801270D01*
X63137859Y-77048994D01*
X63137859Y-77049005D01*
X62583500Y-77049005D01*
X62583500Y-74668774D01*
X62603185Y-74601735D01*
X62619814Y-74581097D01*
X63615094Y-73585817D01*
X63676417Y-73552333D01*
X63702775Y-73549499D01*
X65690871Y-73549499D01*
X65690872Y-73549499D01*
X65750483Y-73543091D01*
X65885331Y-73492796D01*
X66000546Y-73406546D01*
X66086796Y-73291331D01*
X66137091Y-73156483D01*
X66143500Y-73096873D01*
X66143499Y-71001128D01*
X66137091Y-70941517D01*
X66102310Y-70848265D01*
X66086797Y-70806671D01*
X66086793Y-70806664D01*
X66000548Y-70691457D01*
X66000546Y-70691454D01*
X65953187Y-70656001D01*
X65911317Y-70600068D01*
X65903500Y-70556740D01*
X65903499Y-69667187D01*
X65923185Y-69600148D01*
X65956377Y-69565613D01*
X66116683Y-69453366D01*
X66117139Y-69453047D01*
X66278047Y-69292139D01*
X66301687Y-69258376D01*
X66356265Y-69214751D01*
X66403263Y-69205500D01*
X67100257Y-69205500D01*
X67115877Y-69207224D01*
X67115904Y-69206939D01*
X67123660Y-69207671D01*
X67123667Y-69207673D01*
X67192814Y-69205500D01*
X67222350Y-69205500D01*
X67229228Y-69204630D01*
X67235041Y-69204172D01*
X67281627Y-69202709D01*
X67300869Y-69197117D01*
X67319912Y-69193174D01*
X67339792Y-69190664D01*
X67383122Y-69173507D01*
X67388646Y-69171617D01*
X67392396Y-69170527D01*
X67433390Y-69158618D01*
X67450629Y-69148422D01*
X67468103Y-69139862D01*
X67486727Y-69132488D01*
X67486727Y-69132487D01*
X67486732Y-69132486D01*
X67524449Y-69105082D01*
X67529305Y-69101892D01*
X67569420Y-69078170D01*
X67583589Y-69063999D01*
X67598379Y-69051368D01*
X67614587Y-69039594D01*
X67644299Y-69003676D01*
X67648212Y-68999376D01*
X69945771Y-66701819D01*
X70007095Y-66668334D01*
X70033453Y-66665500D01*
X73450257Y-66665500D01*
X73465877Y-66667224D01*
X73465904Y-66666939D01*
X73473660Y-66667671D01*
X73473667Y-66667673D01*
X73542814Y-66665500D01*
X73572350Y-66665500D01*
X73579228Y-66664630D01*
X73585041Y-66664172D01*
X73631627Y-66662709D01*
X73650869Y-66657117D01*
X73669912Y-66653174D01*
X73689792Y-66650664D01*
X73733122Y-66633507D01*
X73738646Y-66631617D01*
X73742396Y-66630527D01*
X73783390Y-66618618D01*
X73800629Y-66608422D01*
X73818103Y-66599862D01*
X73836727Y-66592488D01*
X73836727Y-66592487D01*
X73836732Y-66592486D01*
X73874449Y-66565082D01*
X73879305Y-66561892D01*
X73919420Y-66538170D01*
X73933589Y-66523999D01*
X73948379Y-66511368D01*
X73964587Y-66499594D01*
X73994299Y-66463676D01*
X73998212Y-66459376D01*
X77438770Y-63018819D01*
X77500094Y-62985334D01*
X77526452Y-62982500D01*
X79165257Y-62982500D01*
X79180877Y-62984224D01*
X79180904Y-62983939D01*
X79188660Y-62984671D01*
X79188667Y-62984673D01*
X79257814Y-62982500D01*
X79287350Y-62982500D01*
X79294228Y-62981630D01*
X79300041Y-62981172D01*
X79346627Y-62979709D01*
X79365869Y-62974117D01*
X79384912Y-62970174D01*
X79404792Y-62967664D01*
X79448122Y-62950507D01*
X79453646Y-62948617D01*
X79457396Y-62947527D01*
X79498390Y-62935618D01*
X79515629Y-62925422D01*
X79533103Y-62916862D01*
X79551727Y-62909488D01*
X79551727Y-62909487D01*
X79551732Y-62909486D01*
X79589449Y-62882082D01*
X79594305Y-62878892D01*
X79634420Y-62855170D01*
X79648589Y-62840999D01*
X79663379Y-62828368D01*
X79679587Y-62816594D01*
X79709299Y-62780676D01*
X79713212Y-62776376D01*
X81663788Y-60825801D01*
X81676042Y-60815986D01*
X81675859Y-60815764D01*
X81681866Y-60810792D01*
X81681877Y-60810786D01*
X81717269Y-60773097D01*
X81729227Y-60760364D01*
X81739671Y-60749918D01*
X81750120Y-60739471D01*
X81754379Y-60733978D01*
X81758152Y-60729561D01*
X81790062Y-60695582D01*
X81799715Y-60678020D01*
X81810389Y-60661770D01*
X81822673Y-60645936D01*
X81841180Y-60603167D01*
X81843749Y-60597924D01*
X81866196Y-60557093D01*
X81866197Y-60557092D01*
X81871177Y-60537691D01*
X81877478Y-60519288D01*
X81885438Y-60500896D01*
X81892730Y-60454849D01*
X81893911Y-60449152D01*
X81896875Y-60437609D01*
X81905500Y-60404019D01*
X81905500Y-60383982D01*
X81907027Y-60364582D01*
X81910160Y-60344804D01*
X81905775Y-60298415D01*
X81905500Y-60292577D01*
X81905500Y-57912001D01*
X82641532Y-57912001D01*
X82661364Y-58138686D01*
X82661366Y-58138697D01*
X82720258Y-58358488D01*
X82720261Y-58358497D01*
X82816431Y-58564732D01*
X82816432Y-58564734D01*
X82946954Y-58751141D01*
X83107858Y-58912045D01*
X83107861Y-58912047D01*
X83294266Y-59042568D01*
X83500504Y-59138739D01*
X83720308Y-59197635D01*
X83882230Y-59211801D01*
X83946998Y-59217468D01*
X83947000Y-59217468D01*
X83947002Y-59217468D01*
X84003672Y-59212509D01*
X84173692Y-59197635D01*
X84393496Y-59138739D01*
X84599734Y-59042568D01*
X84786139Y-58912047D01*
X84947047Y-58751139D01*
X85077568Y-58564734D01*
X85173739Y-58358496D01*
X85232635Y-58138692D01*
X85252468Y-57912000D01*
X85232635Y-57685308D01*
X85173739Y-57465504D01*
X85077568Y-57259266D01*
X84955204Y-57084511D01*
X84947045Y-57072858D01*
X84786141Y-56911954D01*
X84599734Y-56781432D01*
X84599732Y-56781431D01*
X84393497Y-56685261D01*
X84393488Y-56685258D01*
X84173697Y-56626366D01*
X84173693Y-56626365D01*
X84173692Y-56626365D01*
X84173691Y-56626364D01*
X84173686Y-56626364D01*
X83947002Y-56606532D01*
X83946998Y-56606532D01*
X83720313Y-56626364D01*
X83720302Y-56626366D01*
X83500511Y-56685258D01*
X83500502Y-56685261D01*
X83294267Y-56781431D01*
X83294265Y-56781432D01*
X83107858Y-56911954D01*
X82946954Y-57072858D01*
X82816432Y-57259265D01*
X82816431Y-57259267D01*
X82720261Y-57465502D01*
X82720258Y-57465511D01*
X82661366Y-57685302D01*
X82661364Y-57685313D01*
X82641532Y-57911998D01*
X82641532Y-57912001D01*
X81905500Y-57912001D01*
X81905500Y-53269450D01*
X81925185Y-53202411D01*
X81941814Y-53181774D01*
X83532178Y-51591410D01*
X83593499Y-51557927D01*
X83651946Y-51559317D01*
X83720308Y-51577635D01*
X83877780Y-51591412D01*
X83946998Y-51597468D01*
X83947000Y-51597468D01*
X83947002Y-51597468D01*
X84016220Y-51591412D01*
X84173692Y-51577635D01*
X84393496Y-51518739D01*
X84599734Y-51422568D01*
X84786139Y-51292047D01*
X84947047Y-51131139D01*
X85077568Y-50944734D01*
X85173739Y-50738496D01*
X85232635Y-50518692D01*
X85252468Y-50292000D01*
X85251039Y-50275671D01*
X85240115Y-50150809D01*
X85232635Y-50065308D01*
X85173739Y-49845504D01*
X85077568Y-49639266D01*
X84947047Y-49452861D01*
X84947045Y-49452858D01*
X84786141Y-49291954D01*
X84599734Y-49161432D01*
X84599732Y-49161431D01*
X84393497Y-49065261D01*
X84393488Y-49065258D01*
X84173697Y-49006366D01*
X84173693Y-49006365D01*
X84173692Y-49006365D01*
X84173691Y-49006364D01*
X84173686Y-49006364D01*
X83947002Y-48986532D01*
X83946998Y-48986532D01*
X83720313Y-49006364D01*
X83720302Y-49006366D01*
X83500511Y-49065258D01*
X83500502Y-49065261D01*
X83294267Y-49161431D01*
X83294265Y-49161432D01*
X83107858Y-49291954D01*
X82946954Y-49452858D01*
X82816432Y-49639265D01*
X82816431Y-49639267D01*
X82720261Y-49845502D01*
X82720258Y-49845511D01*
X82661366Y-50065302D01*
X82661364Y-50065313D01*
X82641532Y-50291998D01*
X82641532Y-50292000D01*
X82661364Y-50518686D01*
X82661365Y-50518691D01*
X82661366Y-50518697D01*
X82679680Y-50587048D01*
X82678017Y-50656897D01*
X82647586Y-50706821D01*
X80896208Y-52458199D01*
X80883951Y-52468020D01*
X80884134Y-52468241D01*
X80878123Y-52473213D01*
X80830772Y-52523636D01*
X80809889Y-52544519D01*
X80809877Y-52544532D01*
X80805621Y-52550017D01*
X80801837Y-52554447D01*
X80769937Y-52588418D01*
X80769936Y-52588420D01*
X80760284Y-52605976D01*
X80749610Y-52622226D01*
X80737329Y-52638061D01*
X80737324Y-52638068D01*
X80718815Y-52680838D01*
X80716245Y-52686084D01*
X80693803Y-52726906D01*
X80688822Y-52746307D01*
X80682521Y-52764710D01*
X80674562Y-52783102D01*
X80674561Y-52783105D01*
X80667271Y-52829127D01*
X80666087Y-52834846D01*
X80654501Y-52879972D01*
X80654500Y-52879982D01*
X80654500Y-52900016D01*
X80652973Y-52919415D01*
X80649840Y-52939194D01*
X80649840Y-52939195D01*
X80654225Y-52985583D01*
X80654500Y-52991421D01*
X80654500Y-60014546D01*
X80634815Y-60081585D01*
X80618181Y-60102227D01*
X79025228Y-61695181D01*
X78963905Y-61728666D01*
X78937547Y-61731500D01*
X77298743Y-61731500D01*
X77283122Y-61729775D01*
X77283095Y-61730061D01*
X77275333Y-61729326D01*
X77206172Y-61731500D01*
X77176649Y-61731500D01*
X77169778Y-61732367D01*
X77163959Y-61732825D01*
X77117374Y-61734289D01*
X77117368Y-61734290D01*
X77098126Y-61739880D01*
X77079087Y-61743823D01*
X77059217Y-61746334D01*
X77059203Y-61746337D01*
X77015883Y-61763488D01*
X77010358Y-61765380D01*
X76965613Y-61778380D01*
X76965610Y-61778381D01*
X76948366Y-61788579D01*
X76930905Y-61797133D01*
X76912274Y-61804510D01*
X76912262Y-61804517D01*
X76874570Y-61831902D01*
X76869687Y-61835109D01*
X76829580Y-61858829D01*
X76815414Y-61872995D01*
X76800624Y-61885627D01*
X76784414Y-61897404D01*
X76784411Y-61897407D01*
X76754710Y-61933309D01*
X76750777Y-61937631D01*
X73310228Y-65378181D01*
X73248905Y-65411666D01*
X73222547Y-65414500D01*
X72360332Y-65414500D01*
X72293293Y-65394815D01*
X72247538Y-65342011D01*
X72237594Y-65272853D01*
X72266619Y-65209297D01*
X72325397Y-65171523D01*
X72347079Y-65167210D01*
X72354483Y-65166414D01*
X72489328Y-65116120D01*
X72489327Y-65116120D01*
X72489331Y-65116119D01*
X72604546Y-65029869D01*
X72690796Y-64914654D01*
X72741091Y-64779806D01*
X72747500Y-64720196D01*
X72747499Y-62624451D01*
X72741091Y-62564840D01*
X72690796Y-62429992D01*
X72690795Y-62429991D01*
X72690793Y-62429987D01*
X72604547Y-62314778D01*
X72604544Y-62314775D01*
X72489335Y-62228529D01*
X72489328Y-62228525D01*
X72354482Y-62178231D01*
X72354483Y-62178231D01*
X72294883Y-62171824D01*
X72294881Y-62171823D01*
X72294873Y-62171823D01*
X72294864Y-62171823D01*
X70199129Y-62171823D01*
X70199123Y-62171824D01*
X70139516Y-62178231D01*
X70004671Y-62228525D01*
X70004664Y-62228529D01*
X69889455Y-62314775D01*
X69889452Y-62314778D01*
X69803206Y-62429987D01*
X69803202Y-62429994D01*
X69752908Y-62564840D01*
X69749933Y-62592516D01*
X69746501Y-62624446D01*
X69746500Y-62624458D01*
X69746500Y-64720193D01*
X69746501Y-64720199D01*
X69752908Y-64779806D01*
X69803202Y-64914651D01*
X69803206Y-64914658D01*
X69889452Y-65029867D01*
X69889455Y-65029870D01*
X70004664Y-65116116D01*
X70004671Y-65116120D01*
X70049618Y-65132884D01*
X70139517Y-65166414D01*
X70146930Y-65167211D01*
X70211479Y-65193948D01*
X70251327Y-65251341D01*
X70253821Y-65321166D01*
X70218169Y-65381255D01*
X70155690Y-65412530D01*
X70133673Y-65414500D01*
X69805737Y-65414500D01*
X69790120Y-65412776D01*
X69790093Y-65413062D01*
X69782331Y-65412327D01*
X69713203Y-65414500D01*
X69683650Y-65414500D01*
X69682929Y-65414590D01*
X69676757Y-65415369D01*
X69670945Y-65415826D01*
X69624372Y-65417290D01*
X69624369Y-65417291D01*
X69605126Y-65422881D01*
X69586083Y-65426825D01*
X69566204Y-65429336D01*
X69566203Y-65429337D01*
X69522878Y-65446490D01*
X69517352Y-65448382D01*
X69472608Y-65461383D01*
X69472604Y-65461385D01*
X69455365Y-65471580D01*
X69437898Y-65480137D01*
X69419269Y-65487512D01*
X69419267Y-65487513D01*
X69381564Y-65514906D01*
X69376682Y-65518112D01*
X69336580Y-65541828D01*
X69322408Y-65556000D01*
X69307623Y-65568628D01*
X69291412Y-65580407D01*
X69261709Y-65616310D01*
X69257777Y-65620631D01*
X66960228Y-67918181D01*
X66898905Y-67951666D01*
X66872547Y-67954500D01*
X66559485Y-67954500D01*
X66492446Y-67934815D01*
X66447103Y-67882905D01*
X66408568Y-67800267D01*
X66408567Y-67800265D01*
X66278045Y-67613858D01*
X66117141Y-67452954D01*
X65930734Y-67322432D01*
X65930732Y-67322431D01*
X65724497Y-67226261D01*
X65724488Y-67226258D01*
X65504697Y-67167366D01*
X65504693Y-67167365D01*
X65504692Y-67167365D01*
X65504691Y-67167364D01*
X65504686Y-67167364D01*
X65278002Y-67147532D01*
X65277998Y-67147532D01*
X65051313Y-67167364D01*
X65051302Y-67167366D01*
X64831511Y-67226258D01*
X64831502Y-67226261D01*
X64625267Y-67322431D01*
X64625265Y-67322432D01*
X64438858Y-67452954D01*
X64277954Y-67613858D01*
X64147432Y-67800265D01*
X64147431Y-67800267D01*
X64051261Y-68006502D01*
X64051258Y-68006511D01*
X63992366Y-68226302D01*
X63992364Y-68226313D01*
X63972532Y-68452998D01*
X63972532Y-68453001D01*
X63992364Y-68679686D01*
X63992366Y-68679697D01*
X64051258Y-68899488D01*
X64051261Y-68899497D01*
X64147431Y-69105732D01*
X64147432Y-69105734D01*
X64277954Y-69292141D01*
X64438858Y-69453045D01*
X64599623Y-69565613D01*
X64643248Y-69620189D01*
X64652500Y-69667188D01*
X64652500Y-70424500D01*
X64632815Y-70491539D01*
X64580011Y-70537294D01*
X64528500Y-70548500D01*
X63595129Y-70548500D01*
X63595123Y-70548501D01*
X63535516Y-70554908D01*
X63400671Y-70605202D01*
X63400664Y-70605206D01*
X63285455Y-70691452D01*
X63285452Y-70691455D01*
X63199206Y-70806664D01*
X63199202Y-70806671D01*
X63148908Y-70941517D01*
X63146309Y-70965697D01*
X63142501Y-71001123D01*
X63142500Y-71001135D01*
X63142500Y-72237869D01*
X63122815Y-72304908D01*
X63106181Y-72325550D01*
X61574208Y-73857522D01*
X61561951Y-73867343D01*
X61562134Y-73867564D01*
X61556123Y-73872536D01*
X61508772Y-73922959D01*
X61487889Y-73943842D01*
X61487877Y-73943855D01*
X61483621Y-73949340D01*
X61479837Y-73953770D01*
X61447937Y-73987741D01*
X61447936Y-73987743D01*
X61438284Y-74005299D01*
X61427610Y-74021549D01*
X61415329Y-74037384D01*
X61415324Y-74037391D01*
X61396815Y-74080161D01*
X61394245Y-74085407D01*
X61371803Y-74126229D01*
X61366822Y-74145630D01*
X61360521Y-74164033D01*
X61352562Y-74182425D01*
X61352561Y-74182428D01*
X61345271Y-74228450D01*
X61344087Y-74234169D01*
X61332501Y-74279295D01*
X61332500Y-74279305D01*
X61332500Y-74299339D01*
X61330973Y-74318738D01*
X61327840Y-74338517D01*
X61327840Y-74338518D01*
X61332225Y-74384906D01*
X61332500Y-74390744D01*
X61332500Y-78048301D01*
X61312815Y-78115340D01*
X61260011Y-78161095D01*
X61190853Y-78171039D01*
X61127297Y-78142014D01*
X61089523Y-78083236D01*
X61088725Y-78080394D01*
X61043741Y-77912511D01*
X61043738Y-77912502D01*
X61012179Y-77844824D01*
X60947568Y-77706266D01*
X60817047Y-77519861D01*
X60817045Y-77519858D01*
X60656141Y-77358954D01*
X60469734Y-77228432D01*
X60469732Y-77228431D01*
X60263497Y-77132261D01*
X60263488Y-77132258D01*
X60043697Y-77073366D01*
X60043693Y-77073365D01*
X60043692Y-77073365D01*
X60043691Y-77073364D01*
X60043686Y-77073364D01*
X59817002Y-77053532D01*
X59816998Y-77053532D01*
X59590313Y-77073364D01*
X59590302Y-77073366D01*
X59370511Y-77132258D01*
X59370502Y-77132261D01*
X59164267Y-77228431D01*
X59164265Y-77228432D01*
X58977858Y-77358954D01*
X58816954Y-77519858D01*
X58686432Y-77706265D01*
X58686431Y-77706267D01*
X58590261Y-77912502D01*
X58590258Y-77912511D01*
X58531366Y-78132302D01*
X58531364Y-78132313D01*
X58511532Y-78358998D01*
X58511532Y-78359001D01*
X55205148Y-78359001D01*
X54880901Y-70739001D01*
X58511532Y-70739001D01*
X58531364Y-70965686D01*
X58531366Y-70965697D01*
X58590258Y-71185488D01*
X58590261Y-71185497D01*
X58686431Y-71391732D01*
X58686432Y-71391734D01*
X58816954Y-71578141D01*
X58977858Y-71739045D01*
X58977861Y-71739047D01*
X59164266Y-71869568D01*
X59370504Y-71965739D01*
X59590308Y-72024635D01*
X59752230Y-72038801D01*
X59816998Y-72044468D01*
X59817000Y-72044468D01*
X59817002Y-72044468D01*
X59873672Y-72039509D01*
X60043692Y-72024635D01*
X60263496Y-71965739D01*
X60469734Y-71869568D01*
X60656139Y-71739047D01*
X60817047Y-71578139D01*
X60947568Y-71391734D01*
X61043739Y-71185496D01*
X61102635Y-70965692D01*
X61122468Y-70739000D01*
X61102635Y-70512308D01*
X61043739Y-70292504D01*
X60947568Y-70086266D01*
X60817047Y-69899861D01*
X60817045Y-69899858D01*
X60656141Y-69738954D01*
X60469734Y-69608432D01*
X60469732Y-69608431D01*
X60263497Y-69512261D01*
X60263488Y-69512258D01*
X60043697Y-69453366D01*
X60043693Y-69453365D01*
X60043692Y-69453365D01*
X60043691Y-69453364D01*
X60043686Y-69453364D01*
X59817002Y-69433532D01*
X59816998Y-69433532D01*
X59590313Y-69453364D01*
X59590302Y-69453366D01*
X59370511Y-69512258D01*
X59370502Y-69512261D01*
X59164267Y-69608431D01*
X59164265Y-69608432D01*
X58977858Y-69738954D01*
X58816954Y-69899858D01*
X58686432Y-70086265D01*
X58686431Y-70086267D01*
X58590261Y-70292502D01*
X58590258Y-70292511D01*
X58531366Y-70512302D01*
X58531364Y-70512313D01*
X58511532Y-70738998D01*
X58511532Y-70739001D01*
X54880901Y-70739001D01*
X54706729Y-66645855D01*
X54723546Y-66578041D01*
X54774357Y-66530083D01*
X54843030Y-66517208D01*
X54884904Y-66534219D01*
X54904312Y-66535134D01*
X55729554Y-65709891D01*
X55790877Y-65676406D01*
X55860568Y-65681390D01*
X55916502Y-65723261D01*
X55918242Y-65725644D01*
X55933893Y-65747623D01*
X55933895Y-65747625D01*
X56080041Y-65886975D01*
X56114976Y-65947484D01*
X56111651Y-66017274D01*
X56082152Y-66064399D01*
X55255564Y-66890986D01*
X55480474Y-67054393D01*
X55480485Y-67054400D01*
X55745109Y-67199878D01*
X55745117Y-67199882D01*
X56025889Y-67311047D01*
X56025892Y-67311048D01*
X56318399Y-67386150D01*
X56617995Y-67423999D01*
X56618007Y-67424000D01*
X56919993Y-67424000D01*
X56920004Y-67423999D01*
X57219600Y-67386150D01*
X57512107Y-67311048D01*
X57512110Y-67311047D01*
X57792882Y-67199882D01*
X57792890Y-67199878D01*
X58057514Y-67054400D01*
X58057525Y-67054393D01*
X58282433Y-66890986D01*
X58282434Y-66890986D01*
X57453234Y-66061787D01*
X57419749Y-66000464D01*
X57424733Y-65930773D01*
X57464263Y-65876636D01*
X57531540Y-65823729D01*
X57625723Y-65715035D01*
X57684496Y-65677264D01*
X57754365Y-65677263D01*
X57807113Y-65708560D01*
X58633686Y-66535133D01*
X58714483Y-66437469D01*
X58876292Y-66182497D01*
X58876295Y-66182491D01*
X59004872Y-65909252D01*
X59004874Y-65909247D01*
X59098194Y-65622040D01*
X59154783Y-65325390D01*
X59154784Y-65325383D01*
X59173745Y-65024005D01*
X59173745Y-65023994D01*
X59154784Y-64722616D01*
X59154783Y-64722609D01*
X59098194Y-64425959D01*
X59004874Y-64138752D01*
X59004872Y-64138747D01*
X58876295Y-63865508D01*
X58876292Y-63865502D01*
X58714486Y-63610535D01*
X58633685Y-63512864D01*
X57808444Y-64338107D01*
X57747121Y-64371592D01*
X57677429Y-64366608D01*
X57621496Y-64324736D01*
X57619755Y-64322352D01*
X57604108Y-64300378D01*
X57604104Y-64300374D01*
X57457957Y-64161023D01*
X57423022Y-64100514D01*
X57426347Y-64030724D01*
X57455846Y-63983599D01*
X57939445Y-63500001D01*
X59375645Y-63500001D01*
X59395477Y-63726686D01*
X59395479Y-63726697D01*
X59454371Y-63946488D01*
X59454374Y-63946497D01*
X59550544Y-64152732D01*
X59550545Y-64152734D01*
X59681067Y-64339141D01*
X59841971Y-64500045D01*
X59841974Y-64500047D01*
X60028379Y-64630568D01*
X60234617Y-64726739D01*
X60454421Y-64785635D01*
X60616343Y-64799801D01*
X60681111Y-64805468D01*
X60681113Y-64805468D01*
X60681115Y-64805468D01*
X60737920Y-64800498D01*
X60907805Y-64785635D01*
X61127609Y-64726739D01*
X61333847Y-64630568D01*
X61520252Y-64500047D01*
X61677387Y-64342911D01*
X61738709Y-64309428D01*
X61808400Y-64314412D01*
X61864334Y-64356283D01*
X61885742Y-64402070D01*
X61887021Y-64407480D01*
X61937315Y-64542328D01*
X61937319Y-64542335D01*
X62023565Y-64657544D01*
X62023568Y-64657547D01*
X62138777Y-64743793D01*
X62138784Y-64743797D01*
X62273630Y-64794091D01*
X62273629Y-64794091D01*
X62280557Y-64794835D01*
X62333240Y-64800500D01*
X64028985Y-64800499D01*
X64088596Y-64794091D01*
X64223444Y-64743796D01*
X64338659Y-64657546D01*
X64424909Y-64542331D01*
X64475204Y-64407483D01*
X64481613Y-64347873D01*
X64481613Y-64249499D01*
X64501298Y-64182461D01*
X64554102Y-64136706D01*
X64605613Y-64125500D01*
X64941257Y-64125500D01*
X64956877Y-64127224D01*
X64956904Y-64126939D01*
X64964660Y-64127671D01*
X64964667Y-64127673D01*
X65033814Y-64125500D01*
X65063350Y-64125500D01*
X65070228Y-64124630D01*
X65076041Y-64124172D01*
X65122627Y-64122709D01*
X65141869Y-64117117D01*
X65160912Y-64113174D01*
X65180792Y-64110664D01*
X65224122Y-64093507D01*
X65229646Y-64091617D01*
X65233396Y-64090527D01*
X65274390Y-64078618D01*
X65291629Y-64068422D01*
X65309103Y-64059862D01*
X65327727Y-64052488D01*
X65327727Y-64052487D01*
X65327732Y-64052486D01*
X65365449Y-64025082D01*
X65370305Y-64021892D01*
X65410420Y-63998170D01*
X65424589Y-63983999D01*
X65439379Y-63971368D01*
X65455587Y-63959594D01*
X65485299Y-63923676D01*
X65489212Y-63919376D01*
X72348770Y-57059819D01*
X72410094Y-57026334D01*
X72436452Y-57023500D01*
X73725812Y-57023500D01*
X73792851Y-57043185D01*
X73827387Y-57076377D01*
X73939954Y-57237141D01*
X74100858Y-57398045D01*
X74100861Y-57398047D01*
X74287266Y-57528568D01*
X74345865Y-57555893D01*
X74398305Y-57602065D01*
X74417457Y-57669258D01*
X74397242Y-57736139D01*
X74345867Y-57780657D01*
X74287515Y-57807867D01*
X74101179Y-57938342D01*
X73940342Y-58099179D01*
X73809865Y-58285517D01*
X73713734Y-58491673D01*
X73713730Y-58491682D01*
X73661127Y-58687999D01*
X73661128Y-58688000D01*
X74429424Y-58688000D01*
X74496463Y-58707685D01*
X74542218Y-58760489D01*
X74552162Y-58829647D01*
X74551897Y-58831397D01*
X74535014Y-58937996D01*
X74535014Y-58938003D01*
X74551897Y-59044603D01*
X74542942Y-59113896D01*
X74497946Y-59167348D01*
X74431194Y-59187987D01*
X74429424Y-59188000D01*
X73661128Y-59188000D01*
X73713730Y-59384317D01*
X73713734Y-59384326D01*
X73809865Y-59590482D01*
X73940342Y-59776820D01*
X74101179Y-59937657D01*
X74287517Y-60068134D01*
X74493673Y-60164265D01*
X74493682Y-60164269D01*
X74689999Y-60216872D01*
X74690000Y-60216871D01*
X74690000Y-59448575D01*
X74709685Y-59381536D01*
X74762489Y-59335781D01*
X74831647Y-59325837D01*
X74833331Y-59326091D01*
X74865699Y-59331218D01*
X74908515Y-59338000D01*
X74908519Y-59338000D01*
X74971485Y-59338000D01*
X75014300Y-59331218D01*
X75046602Y-59326102D01*
X75115894Y-59335056D01*
X75169347Y-59380052D01*
X75189987Y-59446803D01*
X75190000Y-59448575D01*
X75190000Y-60216872D01*
X75386317Y-60164269D01*
X75386326Y-60164265D01*
X75592482Y-60068134D01*
X75778820Y-59937657D01*
X75936975Y-59779502D01*
X76868223Y-59779502D01*
X76887293Y-59997475D01*
X76887293Y-59997479D01*
X76943922Y-60208822D01*
X76943924Y-60208826D01*
X76943925Y-60208830D01*
X76960077Y-60243468D01*
X77036397Y-60407138D01*
X77036398Y-60407139D01*
X77161902Y-60586377D01*
X77316623Y-60741098D01*
X77495861Y-60866602D01*
X77694170Y-60959075D01*
X77905523Y-61015707D01*
X78088426Y-61031708D01*
X78123498Y-61034777D01*
X78123500Y-61034777D01*
X78123502Y-61034777D01*
X78151754Y-61032305D01*
X78341477Y-61015707D01*
X78552830Y-60959075D01*
X78751139Y-60866602D01*
X78930377Y-60741098D01*
X79085098Y-60586377D01*
X79210602Y-60407139D01*
X79303075Y-60208830D01*
X79359707Y-59997477D01*
X79378777Y-59779500D01*
X79378570Y-59777139D01*
X79373850Y-59723187D01*
X79359707Y-59561523D01*
X79303075Y-59350170D01*
X79210602Y-59151862D01*
X79210600Y-59151859D01*
X79210599Y-59151857D01*
X79085099Y-58972624D01*
X79010497Y-58898022D01*
X78930377Y-58817902D01*
X78792478Y-58721344D01*
X78751138Y-58692397D01*
X78599324Y-58621605D01*
X78546885Y-58575432D01*
X78527733Y-58508239D01*
X78547949Y-58441358D01*
X78599325Y-58396841D01*
X78750884Y-58326168D01*
X78750886Y-58326167D01*
X78930054Y-58200712D01*
X79084712Y-58046054D01*
X79210166Y-57866887D01*
X79302601Y-57668659D01*
X79302605Y-57668650D01*
X79350608Y-57489500D01*
X78585547Y-57489500D01*
X78518508Y-57469815D01*
X78472753Y-57417011D01*
X78462809Y-57347853D01*
X78465342Y-57335057D01*
X78467479Y-57326614D01*
X78467482Y-57326608D01*
X78477128Y-57210198D01*
X78460349Y-57143938D01*
X78462975Y-57074119D01*
X78502931Y-57016802D01*
X78567532Y-56990186D01*
X78580555Y-56989500D01*
X79350608Y-56989500D01*
X79350608Y-56989499D01*
X79302605Y-56810349D01*
X79302601Y-56810340D01*
X79210166Y-56612112D01*
X79210164Y-56612108D01*
X79084716Y-56432950D01*
X79084711Y-56432944D01*
X78930054Y-56278287D01*
X78750887Y-56152833D01*
X78599324Y-56082158D01*
X78546885Y-56035986D01*
X78527733Y-55968792D01*
X78547949Y-55901911D01*
X78599322Y-55857395D01*
X78751139Y-55786602D01*
X78930377Y-55661098D01*
X79085098Y-55506377D01*
X79210602Y-55327139D01*
X79303075Y-55128830D01*
X79359707Y-54917477D01*
X79378777Y-54699500D01*
X79378570Y-54697139D01*
X79367212Y-54567309D01*
X79359707Y-54481523D01*
X79308525Y-54290511D01*
X79303077Y-54270177D01*
X79303076Y-54270176D01*
X79303075Y-54270170D01*
X79210602Y-54071862D01*
X79210600Y-54071859D01*
X79210599Y-54071857D01*
X79085099Y-53892624D01*
X79012505Y-53820030D01*
X78930377Y-53737902D01*
X78792478Y-53641344D01*
X78751138Y-53612397D01*
X78651984Y-53566161D01*
X78552830Y-53519925D01*
X78552826Y-53519924D01*
X78552822Y-53519922D01*
X78341477Y-53463293D01*
X78123502Y-53444223D01*
X78123498Y-53444223D01*
X77978182Y-53456936D01*
X77905523Y-53463293D01*
X77905520Y-53463293D01*
X77694177Y-53519922D01*
X77694168Y-53519926D01*
X77495861Y-53612398D01*
X77495857Y-53612400D01*
X77316621Y-53737902D01*
X77161902Y-53892621D01*
X77036400Y-54071857D01*
X77036398Y-54071861D01*
X76943926Y-54270168D01*
X76943922Y-54270177D01*
X76887293Y-54481520D01*
X76887293Y-54481524D01*
X76868223Y-54699497D01*
X76868223Y-54699502D01*
X76887293Y-54917475D01*
X76887293Y-54917479D01*
X76943922Y-55128822D01*
X76943924Y-55128826D01*
X76943925Y-55128830D01*
X76969416Y-55183496D01*
X77036397Y-55327138D01*
X77036398Y-55327139D01*
X77161902Y-55506377D01*
X77316623Y-55661098D01*
X77495861Y-55786602D01*
X77588025Y-55829579D01*
X77647675Y-55857394D01*
X77700114Y-55903566D01*
X77719266Y-55970760D01*
X77699050Y-56037641D01*
X77647675Y-56082158D01*
X77496112Y-56152833D01*
X77496108Y-56152835D01*
X77316950Y-56278283D01*
X77316944Y-56278288D01*
X77162288Y-56432944D01*
X77162283Y-56432950D01*
X77036835Y-56612108D01*
X77036833Y-56612112D01*
X76944398Y-56810340D01*
X76944394Y-56810349D01*
X76896391Y-56989499D01*
X76896392Y-56989500D01*
X77661453Y-56989500D01*
X77728492Y-57009185D01*
X77774247Y-57061989D01*
X77784191Y-57131147D01*
X77781658Y-57143943D01*
X77779517Y-57152396D01*
X77769871Y-57268799D01*
X77769871Y-57268802D01*
X77769872Y-57268802D01*
X77784510Y-57326608D01*
X77786651Y-57335060D01*
X77784025Y-57404881D01*
X77744069Y-57462198D01*
X77679468Y-57488814D01*
X77666445Y-57489500D01*
X76896392Y-57489500D01*
X76944394Y-57668650D01*
X76944398Y-57668659D01*
X77036833Y-57866887D01*
X77162287Y-58046054D01*
X77316945Y-58200712D01*
X77496113Y-58326167D01*
X77496115Y-58326168D01*
X77647674Y-58396841D01*
X77700114Y-58443013D01*
X77719266Y-58510206D01*
X77699051Y-58577088D01*
X77647676Y-58621605D01*
X77523097Y-58679697D01*
X77504121Y-58688547D01*
X77495858Y-58692400D01*
X77495857Y-58692400D01*
X77316621Y-58817902D01*
X77161902Y-58972621D01*
X77036400Y-59151857D01*
X77036398Y-59151861D01*
X76943926Y-59350168D01*
X76943922Y-59350177D01*
X76887293Y-59561520D01*
X76887293Y-59561523D01*
X76884257Y-59596231D01*
X76868223Y-59779497D01*
X76868223Y-59779502D01*
X75936975Y-59779502D01*
X75939657Y-59776820D01*
X76070134Y-59590482D01*
X76166265Y-59384326D01*
X76166269Y-59384317D01*
X76218872Y-59188000D01*
X75450576Y-59188000D01*
X75383537Y-59168315D01*
X75337782Y-59115511D01*
X75327838Y-59046353D01*
X75328103Y-59044603D01*
X75344986Y-58938003D01*
X75344986Y-58937996D01*
X75328103Y-58831397D01*
X75337058Y-58762104D01*
X75382054Y-58708652D01*
X75448806Y-58688013D01*
X75450576Y-58688000D01*
X76218872Y-58688000D01*
X76218872Y-58687999D01*
X76166269Y-58491682D01*
X76166265Y-58491673D01*
X76070134Y-58285517D01*
X75939657Y-58099179D01*
X75778820Y-57938342D01*
X75592482Y-57807865D01*
X75534133Y-57780657D01*
X75481694Y-57734484D01*
X75462542Y-57667291D01*
X75482758Y-57600410D01*
X75534129Y-57555895D01*
X75592734Y-57528568D01*
X75779139Y-57398047D01*
X75940047Y-57237139D01*
X76070568Y-57050734D01*
X76166739Y-56844496D01*
X76225635Y-56624692D01*
X76242634Y-56430384D01*
X76245468Y-56398001D01*
X76245468Y-56397998D01*
X76235775Y-56287206D01*
X76225635Y-56171308D01*
X76166739Y-55951504D01*
X76070568Y-55745266D01*
X75967464Y-55598017D01*
X75940045Y-55558858D01*
X75779141Y-55397954D01*
X75592734Y-55267432D01*
X75592728Y-55267429D01*
X75534725Y-55240382D01*
X75482285Y-55194210D01*
X75463133Y-55127017D01*
X75483348Y-55060135D01*
X75534725Y-55015618D01*
X75592734Y-54988568D01*
X75779139Y-54858047D01*
X75940047Y-54697139D01*
X76070568Y-54510734D01*
X76166739Y-54304496D01*
X76225635Y-54084692D01*
X76245468Y-53858000D01*
X76241397Y-53811474D01*
X76239338Y-53787935D01*
X76225635Y-53631308D01*
X76174486Y-53440415D01*
X76166741Y-53411511D01*
X76166738Y-53411502D01*
X76070568Y-53205266D01*
X75940047Y-53018861D01*
X75940045Y-53018858D01*
X75779141Y-52857954D01*
X75645973Y-52764710D01*
X75592734Y-52727432D01*
X75534722Y-52700380D01*
X75482284Y-52654208D01*
X75463133Y-52587014D01*
X75483349Y-52520133D01*
X75534721Y-52475619D01*
X75592734Y-52448568D01*
X75779139Y-52318047D01*
X75940047Y-52157139D01*
X76070568Y-51970734D01*
X76166739Y-51764496D01*
X76225635Y-51544692D01*
X76245468Y-51318000D01*
X76244863Y-51311090D01*
X76239801Y-51253230D01*
X76225635Y-51091308D01*
X76176656Y-50908516D01*
X76166741Y-50871511D01*
X76166738Y-50871502D01*
X76104712Y-50738488D01*
X76070568Y-50665266D01*
X75940047Y-50478861D01*
X75940045Y-50478858D01*
X75779140Y-50317953D01*
X75618377Y-50205386D01*
X75574752Y-50150809D01*
X75565500Y-50103811D01*
X75565500Y-46353001D01*
X76909500Y-46353001D01*
X76909501Y-46353018D01*
X76920000Y-46455796D01*
X76920001Y-46455799D01*
X76975185Y-46622331D01*
X76975187Y-46622336D01*
X76988954Y-46644656D01*
X77067288Y-46771656D01*
X77191344Y-46895712D01*
X77340666Y-46987814D01*
X77507203Y-47042999D01*
X77609991Y-47053500D01*
X78410008Y-47053499D01*
X78410016Y-47053498D01*
X78410019Y-47053498D01*
X78484192Y-47045921D01*
X78512797Y-47042999D01*
X78679334Y-46987814D01*
X78828656Y-46895712D01*
X78952712Y-46771656D01*
X78992094Y-46707806D01*
X79044040Y-46661083D01*
X79113003Y-46649860D01*
X79177085Y-46677703D01*
X79195102Y-46696251D01*
X79210272Y-46715541D01*
X79369030Y-46853105D01*
X79369041Y-46853114D01*
X79550960Y-46958144D01*
X79550967Y-46958147D01*
X79749487Y-47026856D01*
X79760000Y-47028367D01*
X79760000Y-46162330D01*
X79779685Y-46095291D01*
X79832489Y-46049536D01*
X79901647Y-46039592D01*
X79924262Y-46045048D01*
X79947424Y-46053000D01*
X80041072Y-46053000D01*
X80041073Y-46053000D01*
X80115592Y-46040565D01*
X80184955Y-46048947D01*
X80238777Y-46093500D01*
X80259968Y-46160078D01*
X80260000Y-46162874D01*
X80260000Y-47024257D01*
X80371409Y-46997229D01*
X80562507Y-46909959D01*
X80733619Y-46788110D01*
X80733625Y-46788104D01*
X80878594Y-46636065D01*
X80905214Y-46594643D01*
X80958017Y-46548887D01*
X81027175Y-46538943D01*
X81090731Y-46567967D01*
X81107000Y-46585029D01*
X81209905Y-46715883D01*
X81209909Y-46715887D01*
X81368746Y-46853521D01*
X81550750Y-46958601D01*
X81550752Y-46958601D01*
X81550756Y-46958604D01*
X81749367Y-47027344D01*
X81957398Y-47057254D01*
X82167330Y-47047254D01*
X82371576Y-46997704D01*
X82458200Y-46958144D01*
X82562743Y-46910401D01*
X82562746Y-46910399D01*
X82562753Y-46910396D01*
X82733952Y-46788486D01*
X82734317Y-46788104D01*
X82878985Y-46636379D01*
X82888010Y-46622336D01*
X82992613Y-46459572D01*
X83070725Y-46264457D01*
X83110500Y-46058085D01*
X83110500Y-45350575D01*
X83095528Y-45193782D01*
X83036316Y-44992125D01*
X82940011Y-44805318D01*
X82940009Y-44805316D01*
X82940008Y-44805313D01*
X82810094Y-44640116D01*
X82810090Y-44640112D01*
X82651253Y-44502478D01*
X82469249Y-44397398D01*
X82469245Y-44397396D01*
X82469244Y-44397396D01*
X82270633Y-44328656D01*
X82062602Y-44298746D01*
X82062598Y-44298746D01*
X81852672Y-44308745D01*
X81648421Y-44358296D01*
X81648417Y-44358298D01*
X81457256Y-44445598D01*
X81457251Y-44445601D01*
X81286046Y-44567515D01*
X81286040Y-44567520D01*
X81141016Y-44719618D01*
X81114172Y-44761388D01*
X81061367Y-44807142D01*
X80992208Y-44817085D01*
X80928653Y-44788059D01*
X80912387Y-44770999D01*
X80809731Y-44640462D01*
X80809728Y-44640459D01*
X80650969Y-44502894D01*
X80650958Y-44502885D01*
X80469039Y-44397855D01*
X80469032Y-44397852D01*
X80270516Y-44329144D01*
X80260000Y-44327632D01*
X80260000Y-45193669D01*
X80240315Y-45260708D01*
X80187511Y-45306463D01*
X80118353Y-45316407D01*
X80095740Y-45310951D01*
X80072578Y-45303000D01*
X80072576Y-45303000D01*
X79978927Y-45303000D01*
X79978926Y-45303000D01*
X79904408Y-45315434D01*
X79835043Y-45307052D01*
X79781222Y-45262498D01*
X79760031Y-45195919D01*
X79760000Y-45193125D01*
X79760000Y-44331740D01*
X79759999Y-44331740D01*
X79648594Y-44358768D01*
X79648582Y-44358772D01*
X79457497Y-44446037D01*
X79457496Y-44446038D01*
X79286380Y-44567889D01*
X79286374Y-44567895D01*
X79188520Y-44670522D01*
X79128011Y-44705457D01*
X79058220Y-44702132D01*
X79001306Y-44661604D01*
X78993238Y-44650048D01*
X78987325Y-44640462D01*
X78952712Y-44584344D01*
X78828656Y-44460288D01*
X78727431Y-44397852D01*
X78679336Y-44368187D01*
X78679331Y-44368185D01*
X78649488Y-44358296D01*
X78512797Y-44313001D01*
X78512795Y-44313000D01*
X78410010Y-44302500D01*
X77609998Y-44302500D01*
X77609980Y-44302501D01*
X77507203Y-44313000D01*
X77507200Y-44313001D01*
X77340668Y-44368185D01*
X77340663Y-44368187D01*
X77191342Y-44460289D01*
X77067289Y-44584342D01*
X76975187Y-44733663D01*
X76975185Y-44733666D01*
X76975186Y-44733666D01*
X76920001Y-44900203D01*
X76920001Y-44900204D01*
X76920000Y-44900204D01*
X76909500Y-45002983D01*
X76909500Y-46353001D01*
X75565500Y-46353001D01*
X75565500Y-46066742D01*
X75567224Y-46051122D01*
X75566939Y-46051096D01*
X75567671Y-46043340D01*
X75567673Y-46043333D01*
X75565500Y-45974185D01*
X75565500Y-45944650D01*
X75564631Y-45937772D01*
X75564172Y-45931943D01*
X75562709Y-45885372D01*
X75557122Y-45866144D01*
X75553174Y-45847084D01*
X75550663Y-45827204D01*
X75533512Y-45783887D01*
X75531619Y-45778358D01*
X75518618Y-45733609D01*
X75518616Y-45733606D01*
X75508423Y-45716371D01*
X75499861Y-45698894D01*
X75492487Y-45680270D01*
X75492486Y-45680268D01*
X75465079Y-45642545D01*
X75461888Y-45637686D01*
X75438172Y-45597583D01*
X75438165Y-45597574D01*
X75424006Y-45583415D01*
X75411368Y-45568619D01*
X75399594Y-45552413D01*
X75363688Y-45522709D01*
X75359376Y-45518786D01*
X73525803Y-43685212D01*
X73515980Y-43672950D01*
X73515759Y-43673134D01*
X73510786Y-43667123D01*
X73503371Y-43660160D01*
X73460364Y-43619773D01*
X73449919Y-43609328D01*
X73439475Y-43598883D01*
X73433986Y-43594625D01*
X73429561Y-43590847D01*
X73395582Y-43558938D01*
X73395580Y-43558936D01*
X73395577Y-43558935D01*
X73378029Y-43549288D01*
X73361763Y-43538604D01*
X73345933Y-43526325D01*
X73303168Y-43507818D01*
X73297922Y-43505248D01*
X73257093Y-43482803D01*
X73257092Y-43482802D01*
X73237693Y-43477822D01*
X73219281Y-43471518D01*
X73200898Y-43463562D01*
X73200892Y-43463560D01*
X73154874Y-43456272D01*
X73149152Y-43455087D01*
X73104021Y-43443500D01*
X73104019Y-43443500D01*
X73083984Y-43443500D01*
X73064586Y-43441973D01*
X73056718Y-43440727D01*
X73044805Y-43438840D01*
X73044804Y-43438840D01*
X72998416Y-43443225D01*
X72992578Y-43443500D01*
X62566743Y-43443500D01*
X62551122Y-43441775D01*
X62551096Y-43442061D01*
X62543334Y-43441327D01*
X62543333Y-43441327D01*
X62474186Y-43443500D01*
X62444649Y-43443500D01*
X62437766Y-43444369D01*
X62431949Y-43444826D01*
X62385373Y-43446290D01*
X62366129Y-43451881D01*
X62347079Y-43455825D01*
X62327211Y-43458334D01*
X62283884Y-43475488D01*
X62278358Y-43477379D01*
X62233614Y-43490379D01*
X62233610Y-43490381D01*
X62216366Y-43500579D01*
X62198905Y-43509133D01*
X62180274Y-43516510D01*
X62180262Y-43516517D01*
X62142570Y-43543902D01*
X62137687Y-43547109D01*
X62097580Y-43570829D01*
X62083414Y-43584995D01*
X62068624Y-43597627D01*
X62052414Y-43609404D01*
X62052411Y-43609407D01*
X62022715Y-43645303D01*
X62018782Y-43649625D01*
X61862204Y-43806203D01*
X61849942Y-43816026D01*
X61850126Y-43816248D01*
X61844120Y-43821216D01*
X61796771Y-43871637D01*
X61775889Y-43892519D01*
X61775877Y-43892532D01*
X61771621Y-43898017D01*
X61767837Y-43902447D01*
X61735937Y-43936418D01*
X61735936Y-43936420D01*
X61726284Y-43953976D01*
X61715610Y-43970226D01*
X61703329Y-43986061D01*
X61703324Y-43986068D01*
X61684815Y-44028838D01*
X61682245Y-44034084D01*
X61659803Y-44074906D01*
X61654822Y-44094307D01*
X61648521Y-44112710D01*
X61640562Y-44131102D01*
X61640561Y-44131106D01*
X61637064Y-44153184D01*
X61607133Y-44216318D01*
X61579688Y-44239322D01*
X61427342Y-44333289D01*
X61303289Y-44457342D01*
X61211187Y-44606663D01*
X61211185Y-44606668D01*
X61192981Y-44661604D01*
X61156001Y-44773203D01*
X61156001Y-44773204D01*
X61156000Y-44773204D01*
X61145500Y-44875983D01*
X61145500Y-46226001D01*
X61145501Y-46226018D01*
X61156000Y-46328796D01*
X61156001Y-46328799D01*
X61211185Y-46495331D01*
X61211187Y-46495336D01*
X61219848Y-46509378D01*
X61303288Y-46644656D01*
X61427344Y-46768712D01*
X61576666Y-46860814D01*
X61743203Y-46915999D01*
X61845991Y-46926500D01*
X62646008Y-46926499D01*
X62646016Y-46926498D01*
X62646019Y-46926498D01*
X62702302Y-46920748D01*
X62748797Y-46915999D01*
X62915334Y-46860814D01*
X63064656Y-46768712D01*
X63188712Y-46644656D01*
X63227815Y-46581258D01*
X63279761Y-46534535D01*
X63348723Y-46523312D01*
X63412806Y-46551155D01*
X63430822Y-46569703D01*
X63445908Y-46588886D01*
X63577704Y-46703088D01*
X63615477Y-46761865D01*
X63620500Y-46796800D01*
X63620500Y-48161255D01*
X63618775Y-48176872D01*
X63619061Y-48176899D01*
X63618326Y-48184665D01*
X63620500Y-48253814D01*
X63620500Y-48283343D01*
X63620501Y-48283360D01*
X63621368Y-48290231D01*
X63621826Y-48296050D01*
X63623290Y-48342624D01*
X63624105Y-48345431D01*
X63628880Y-48361867D01*
X63632824Y-48380911D01*
X63635336Y-48400791D01*
X63652490Y-48444119D01*
X63654382Y-48449647D01*
X63667381Y-48494388D01*
X63677580Y-48511634D01*
X63686138Y-48529103D01*
X63693514Y-48547732D01*
X63720898Y-48585423D01*
X63724106Y-48590307D01*
X63747827Y-48630416D01*
X63747833Y-48630424D01*
X63761990Y-48644580D01*
X63774628Y-48659376D01*
X63786405Y-48675586D01*
X63786406Y-48675587D01*
X63822309Y-48705288D01*
X63826620Y-48709210D01*
X64962912Y-49845502D01*
X65983181Y-50865771D01*
X66016666Y-50927094D01*
X66019500Y-50953452D01*
X66019500Y-52165870D01*
X66019501Y-52165876D01*
X66025908Y-52225483D01*
X66076202Y-52360328D01*
X66076206Y-52360335D01*
X66162452Y-52475544D01*
X66162455Y-52475547D01*
X66277664Y-52561793D01*
X66277671Y-52561797D01*
X66322618Y-52578561D01*
X66412517Y-52612091D01*
X66447596Y-52615862D01*
X66512144Y-52642599D01*
X66551993Y-52699991D01*
X66554488Y-52769816D01*
X66518836Y-52829905D01*
X66505464Y-52840725D01*
X66480858Y-52857954D01*
X66319954Y-53018858D01*
X66189432Y-53205265D01*
X66189431Y-53205267D01*
X66093261Y-53411502D01*
X66093258Y-53411511D01*
X66034366Y-53631302D01*
X66034364Y-53631313D01*
X66014532Y-53857998D01*
X66014532Y-53858001D01*
X66034364Y-54084686D01*
X66034366Y-54084697D01*
X66068451Y-54211906D01*
X66066788Y-54281756D01*
X66027625Y-54339618D01*
X65963396Y-54367122D01*
X65952578Y-54367938D01*
X65941373Y-54368290D01*
X65922129Y-54373881D01*
X65903079Y-54377825D01*
X65883211Y-54380334D01*
X65839884Y-54397488D01*
X65834358Y-54399379D01*
X65789614Y-54412379D01*
X65789610Y-54412381D01*
X65772366Y-54422579D01*
X65754905Y-54431133D01*
X65736274Y-54438510D01*
X65736262Y-54438517D01*
X65698570Y-54465902D01*
X65693687Y-54469109D01*
X65653580Y-54492829D01*
X65639414Y-54506995D01*
X65624624Y-54519627D01*
X65608414Y-54531404D01*
X65608411Y-54531407D01*
X65578710Y-54567309D01*
X65574777Y-54571631D01*
X64640208Y-55506199D01*
X64627951Y-55516020D01*
X64628134Y-55516241D01*
X64622123Y-55521213D01*
X64574772Y-55571636D01*
X64553889Y-55592519D01*
X64553877Y-55592532D01*
X64549621Y-55598017D01*
X64545837Y-55602447D01*
X64513937Y-55636418D01*
X64513936Y-55636420D01*
X64504284Y-55653976D01*
X64493610Y-55670226D01*
X64481329Y-55686061D01*
X64481324Y-55686068D01*
X64462815Y-55728838D01*
X64460245Y-55734084D01*
X64437803Y-55774906D01*
X64432822Y-55794307D01*
X64426521Y-55812710D01*
X64418562Y-55831102D01*
X64418561Y-55831105D01*
X64411271Y-55877127D01*
X64410087Y-55882846D01*
X64398501Y-55927972D01*
X64398500Y-55927982D01*
X64398500Y-55948016D01*
X64396973Y-55967415D01*
X64393840Y-55987194D01*
X64393840Y-55987195D01*
X64398225Y-56033583D01*
X64398500Y-56039421D01*
X64398500Y-56164619D01*
X64378815Y-56231658D01*
X64326011Y-56277413D01*
X64256853Y-56287357D01*
X64231168Y-56280801D01*
X64113485Y-56236909D01*
X64113483Y-56236908D01*
X64053883Y-56230501D01*
X64053881Y-56230500D01*
X64053873Y-56230500D01*
X64053864Y-56230500D01*
X62358129Y-56230500D01*
X62358123Y-56230501D01*
X62298516Y-56236908D01*
X62163671Y-56287202D01*
X62163664Y-56287206D01*
X62048455Y-56373452D01*
X62048452Y-56373455D01*
X61962206Y-56488664D01*
X61962202Y-56488671D01*
X61911909Y-56623513D01*
X61910632Y-56628922D01*
X61876058Y-56689638D01*
X61814147Y-56722023D01*
X61744556Y-56715796D01*
X61702274Y-56688087D01*
X61545141Y-56530954D01*
X61358734Y-56400432D01*
X61358732Y-56400431D01*
X61152497Y-56304261D01*
X61152488Y-56304258D01*
X60932697Y-56245366D01*
X60932693Y-56245365D01*
X60932692Y-56245365D01*
X60932691Y-56245364D01*
X60932686Y-56245364D01*
X60706002Y-56225532D01*
X60705998Y-56225532D01*
X60479313Y-56245364D01*
X60479302Y-56245366D01*
X60259511Y-56304258D01*
X60259502Y-56304261D01*
X60053267Y-56400431D01*
X60053265Y-56400432D01*
X59866858Y-56530954D01*
X59705954Y-56691858D01*
X59575432Y-56878265D01*
X59575431Y-56878267D01*
X59479261Y-57084502D01*
X59479258Y-57084511D01*
X59420366Y-57304302D01*
X59420364Y-57304313D01*
X59400532Y-57530998D01*
X59400532Y-57531001D01*
X59420364Y-57757686D01*
X59420366Y-57757697D01*
X59479258Y-57977488D01*
X59479261Y-57977497D01*
X59575431Y-58183732D01*
X59575432Y-58183734D01*
X59705954Y-58370141D01*
X59866858Y-58531045D01*
X59866861Y-58531047D01*
X60053266Y-58661568D01*
X60259504Y-58757739D01*
X60479308Y-58816635D01*
X60628036Y-58829647D01*
X60705998Y-58836468D01*
X60706000Y-58836468D01*
X60706002Y-58836468D01*
X60783964Y-58829647D01*
X60932692Y-58816635D01*
X61152496Y-58757739D01*
X61358734Y-58661568D01*
X61545139Y-58531047D01*
X61702274Y-58373911D01*
X61763596Y-58340428D01*
X61833287Y-58345412D01*
X61889221Y-58387283D01*
X61910629Y-58433070D01*
X61911908Y-58438480D01*
X61962202Y-58573328D01*
X61962206Y-58573335D01*
X62048452Y-58688544D01*
X62048455Y-58688547D01*
X62163664Y-58774793D01*
X62163671Y-58774797D01*
X62298517Y-58825091D01*
X62298516Y-58825091D01*
X62305444Y-58825835D01*
X62358127Y-58831500D01*
X64053872Y-58831499D01*
X64113483Y-58825091D01*
X64150276Y-58811367D01*
X64219967Y-58806384D01*
X64281290Y-58839869D01*
X64314775Y-58901192D01*
X64309791Y-58970883D01*
X64281290Y-59015231D01*
X61095934Y-62200586D01*
X61034611Y-62234071D01*
X60976161Y-62232680D01*
X60907810Y-62214366D01*
X60907806Y-62214365D01*
X60907805Y-62214365D01*
X60794458Y-62204448D01*
X60681114Y-62194532D01*
X60681111Y-62194532D01*
X60454426Y-62214364D01*
X60454415Y-62214366D01*
X60234624Y-62273258D01*
X60234615Y-62273261D01*
X60028380Y-62369431D01*
X60028378Y-62369432D01*
X59841971Y-62499954D01*
X59681067Y-62660858D01*
X59550545Y-62847265D01*
X59550544Y-62847267D01*
X59454374Y-63053502D01*
X59454371Y-63053511D01*
X59395479Y-63273302D01*
X59395477Y-63273313D01*
X59375645Y-63499998D01*
X59375645Y-63500001D01*
X57939445Y-63500001D01*
X58282434Y-63157012D01*
X58057530Y-62993609D01*
X58057520Y-62993602D01*
X57792890Y-62848121D01*
X57792882Y-62848117D01*
X57512110Y-62736952D01*
X57512107Y-62736951D01*
X57219600Y-62661849D01*
X56920004Y-62624000D01*
X56617995Y-62624000D01*
X56318399Y-62661849D01*
X56025892Y-62736951D01*
X56025889Y-62736952D01*
X55745117Y-62848117D01*
X55745109Y-62848121D01*
X55480479Y-62993602D01*
X55480461Y-62993614D01*
X55255565Y-63157010D01*
X55255564Y-63157012D01*
X56084765Y-63986212D01*
X56118250Y-64047535D01*
X56113266Y-64117226D01*
X56073737Y-64171363D01*
X56006458Y-64224272D01*
X56006453Y-64224277D01*
X55912278Y-64332960D01*
X55853500Y-64370734D01*
X55783630Y-64370734D01*
X55730885Y-64339438D01*
X54904312Y-63512864D01*
X54823517Y-63610529D01*
X54804805Y-63640015D01*
X54752263Y-63686070D01*
X54683162Y-63696407D01*
X54619442Y-63667745D01*
X54581333Y-63609184D01*
X54576221Y-63578847D01*
X54199982Y-54737001D01*
X56987532Y-54737001D01*
X57007364Y-54963686D01*
X57007366Y-54963697D01*
X57066258Y-55183488D01*
X57066261Y-55183497D01*
X57162431Y-55389732D01*
X57162432Y-55389734D01*
X57292954Y-55576141D01*
X57453858Y-55737045D01*
X57453861Y-55737047D01*
X57640266Y-55867568D01*
X57846504Y-55963739D01*
X58066308Y-56022635D01*
X58224694Y-56036492D01*
X58292998Y-56042468D01*
X58293000Y-56042468D01*
X58293002Y-56042468D01*
X58361306Y-56036492D01*
X58519692Y-56022635D01*
X58739496Y-55963739D01*
X58945734Y-55867568D01*
X59132139Y-55737047D01*
X59293047Y-55576139D01*
X59423568Y-55389734D01*
X59519739Y-55183496D01*
X59578635Y-54963692D01*
X59598468Y-54737000D01*
X59578635Y-54510308D01*
X59519739Y-54290504D01*
X59423568Y-54084266D01*
X59293047Y-53897861D01*
X59293045Y-53897858D01*
X59132141Y-53736954D01*
X58945734Y-53606432D01*
X58945732Y-53606431D01*
X58739497Y-53510261D01*
X58739488Y-53510258D01*
X58519697Y-53451366D01*
X58519693Y-53451365D01*
X58519692Y-53451365D01*
X58519691Y-53451364D01*
X58519686Y-53451364D01*
X58293002Y-53431532D01*
X58292998Y-53431532D01*
X58066313Y-53451364D01*
X58066302Y-53451366D01*
X57846511Y-53510258D01*
X57846502Y-53510261D01*
X57640267Y-53606431D01*
X57640265Y-53606432D01*
X57453858Y-53736954D01*
X57292954Y-53897858D01*
X57162432Y-54084265D01*
X57162431Y-54084267D01*
X57066261Y-54290502D01*
X57066258Y-54290511D01*
X57007366Y-54510302D01*
X57007364Y-54510313D01*
X56987532Y-54736998D01*
X56987532Y-54737001D01*
X54199982Y-54737001D01*
X54075687Y-51816001D01*
X59375645Y-51816001D01*
X59395477Y-52042686D01*
X59395479Y-52042697D01*
X59454371Y-52262488D01*
X59454374Y-52262497D01*
X59550544Y-52468732D01*
X59550545Y-52468734D01*
X59681067Y-52655141D01*
X59841971Y-52816045D01*
X59841974Y-52816047D01*
X60028379Y-52946568D01*
X60234617Y-53042739D01*
X60454421Y-53101635D01*
X60616343Y-53115801D01*
X60681111Y-53121468D01*
X60681113Y-53121468D01*
X60681115Y-53121468D01*
X60737920Y-53116498D01*
X60907805Y-53101635D01*
X61127609Y-53042739D01*
X61333847Y-52946568D01*
X61520252Y-52816047D01*
X61677387Y-52658911D01*
X61738709Y-52625428D01*
X61808400Y-52630412D01*
X61864334Y-52672283D01*
X61885742Y-52718070D01*
X61887021Y-52723480D01*
X61887021Y-52723482D01*
X61887022Y-52723483D01*
X61888495Y-52727431D01*
X61937315Y-52858328D01*
X61937319Y-52858335D01*
X62023565Y-52973544D01*
X62023568Y-52973547D01*
X62138777Y-53059793D01*
X62138784Y-53059797D01*
X62273630Y-53110091D01*
X62273629Y-53110091D01*
X62280557Y-53110835D01*
X62333240Y-53116500D01*
X64028985Y-53116499D01*
X64088596Y-53110091D01*
X64223444Y-53059796D01*
X64338659Y-52973546D01*
X64424909Y-52858331D01*
X64475204Y-52723483D01*
X64481613Y-52663873D01*
X64481612Y-50968128D01*
X64475204Y-50908517D01*
X64461398Y-50871502D01*
X64424910Y-50773671D01*
X64424906Y-50773664D01*
X64338660Y-50658455D01*
X64338657Y-50658452D01*
X64223448Y-50572206D01*
X64223441Y-50572202D01*
X64088595Y-50521908D01*
X64088596Y-50521908D01*
X64028996Y-50515501D01*
X64028994Y-50515500D01*
X64028986Y-50515500D01*
X64028977Y-50515500D01*
X62333242Y-50515500D01*
X62333236Y-50515501D01*
X62273629Y-50521908D01*
X62138784Y-50572202D01*
X62138777Y-50572206D01*
X62023568Y-50658452D01*
X62023565Y-50658455D01*
X61937319Y-50773664D01*
X61937315Y-50773671D01*
X61887022Y-50908513D01*
X61885745Y-50913922D01*
X61851171Y-50974638D01*
X61789260Y-51007023D01*
X61719669Y-51000796D01*
X61677387Y-50973087D01*
X61520254Y-50815954D01*
X61333847Y-50685432D01*
X61333845Y-50685431D01*
X61127610Y-50589261D01*
X61127601Y-50589258D01*
X60907810Y-50530366D01*
X60907806Y-50530365D01*
X60907805Y-50530365D01*
X60907804Y-50530364D01*
X60907799Y-50530364D01*
X60681115Y-50510532D01*
X60681111Y-50510532D01*
X60454426Y-50530364D01*
X60454415Y-50530366D01*
X60234624Y-50589258D01*
X60234615Y-50589261D01*
X60028380Y-50685431D01*
X60028378Y-50685432D01*
X59841971Y-50815954D01*
X59681067Y-50976858D01*
X59550545Y-51163265D01*
X59550544Y-51163267D01*
X59454374Y-51369502D01*
X59454371Y-51369511D01*
X59395479Y-51589302D01*
X59395477Y-51589313D01*
X59375645Y-51815998D01*
X59375645Y-51816001D01*
X54075687Y-51816001D01*
X53865097Y-46866999D01*
X57014127Y-46866999D01*
X57014128Y-46867000D01*
X57782424Y-46867000D01*
X57849463Y-46886685D01*
X57895218Y-46939489D01*
X57905162Y-47008647D01*
X57904897Y-47010397D01*
X57888014Y-47116996D01*
X57888014Y-47117003D01*
X57904897Y-47223603D01*
X57895942Y-47292896D01*
X57850946Y-47346348D01*
X57784194Y-47366987D01*
X57782424Y-47367000D01*
X57014128Y-47367000D01*
X57066730Y-47563317D01*
X57066734Y-47563326D01*
X57162865Y-47769482D01*
X57293342Y-47955820D01*
X57454179Y-48116657D01*
X57640517Y-48247134D01*
X57846673Y-48343265D01*
X57846682Y-48343269D01*
X58042999Y-48395872D01*
X58043000Y-48395871D01*
X58043000Y-47627575D01*
X58062685Y-47560536D01*
X58115489Y-47514781D01*
X58184647Y-47504837D01*
X58186331Y-47505091D01*
X58218699Y-47510218D01*
X58261515Y-47517000D01*
X58261519Y-47517000D01*
X58324485Y-47517000D01*
X58367300Y-47510218D01*
X58399602Y-47505102D01*
X58468894Y-47514056D01*
X58522347Y-47559052D01*
X58542987Y-47625803D01*
X58543000Y-47627575D01*
X58543000Y-48395872D01*
X58739317Y-48343269D01*
X58739326Y-48343265D01*
X58945482Y-48247134D01*
X59131820Y-48116657D01*
X59292657Y-47955820D01*
X59423134Y-47769482D01*
X59519265Y-47563326D01*
X59519269Y-47563317D01*
X59571872Y-47367000D01*
X58803576Y-47367000D01*
X58736537Y-47347315D01*
X58690782Y-47294511D01*
X58680838Y-47225353D01*
X58681103Y-47223603D01*
X58697986Y-47117003D01*
X58697986Y-47116996D01*
X58681103Y-47010397D01*
X58690058Y-46941104D01*
X58735054Y-46887652D01*
X58801806Y-46867013D01*
X58803576Y-46867000D01*
X59571872Y-46867000D01*
X59571872Y-46866999D01*
X59519269Y-46670682D01*
X59519265Y-46670673D01*
X59423134Y-46464517D01*
X59292657Y-46278179D01*
X59131820Y-46117342D01*
X58945482Y-45986865D01*
X58739328Y-45890734D01*
X58543000Y-45838127D01*
X58543000Y-46606424D01*
X58523315Y-46673463D01*
X58470511Y-46719218D01*
X58401353Y-46729162D01*
X58399602Y-46728897D01*
X58324486Y-46717000D01*
X58324481Y-46717000D01*
X58261519Y-46717000D01*
X58261514Y-46717000D01*
X58186398Y-46728897D01*
X58117104Y-46719942D01*
X58063652Y-46674946D01*
X58043013Y-46608194D01*
X58043000Y-46606424D01*
X58043000Y-45838127D01*
X57846671Y-45890734D01*
X57640517Y-45986865D01*
X57454179Y-46117342D01*
X57293342Y-46278179D01*
X57162865Y-46464517D01*
X57066734Y-46670673D01*
X57066730Y-46670682D01*
X57014127Y-46866999D01*
X53865097Y-46866999D01*
X53750383Y-44171156D01*
X53756541Y-44126956D01*
X53761252Y-44112710D01*
X53770857Y-44083664D01*
X53835814Y-43891947D01*
X53838726Y-43884842D01*
X53888700Y-43781674D01*
X53959921Y-43642519D01*
X53963342Y-43636651D01*
X54031536Y-43533202D01*
X54117515Y-43412618D01*
X54121108Y-43408055D01*
X54203742Y-43312797D01*
X54205840Y-43310500D01*
X54305581Y-43206767D01*
X54309162Y-43203330D01*
X54404495Y-43118952D01*
X54407590Y-43116389D01*
X54520775Y-43028790D01*
X54524015Y-43026449D01*
X54629621Y-42955313D01*
X54633818Y-42952726D01*
X54759283Y-42882170D01*
X54761992Y-42880736D01*
X54874927Y-42824634D01*
X54880303Y-42822275D01*
X55018551Y-42769302D01*
X55135818Y-42729223D01*
X55142325Y-42727391D01*
X55294904Y-42693343D01*
X55407309Y-42670838D01*
X55414933Y-42669799D01*
X55616845Y-42654996D01*
X55682990Y-42650633D01*
X55687058Y-42650500D01*
X87682954Y-42650500D01*
X87687031Y-42650634D01*
G37*
%TD.AperFunction*%
%TD*%
M02*
