%TF.GenerationSoftware,KiCad,Pcbnew,7.0.7*%
%TF.CreationDate,2023-09-20T21:46:06-04:00*%
%TF.ProjectId,DIYmic,4449596d-6963-42e6-9b69-6361645f7063,rev?*%
%TF.SameCoordinates,Original*%
%TF.FileFunction,Drillmap*%
%TF.FilePolarity,Positive*%
%FSLAX45Y45*%
G04 Gerber Fmt 4.5, Leading zero omitted, Abs format (unit mm)*
G04 Created by KiCad (PCBNEW 7.0.7) date 2023-09-20 21:46:06*
%MOMM*%
%LPD*%
G01*
G04 APERTURE LIST*
%ADD10C,0.100000*%
%ADD11C,0.200000*%
G04 APERTURE END LIST*
D10*
X5560000Y-8765000D02*
G75*
G03*
X5709613Y-8965011I208500J0D01*
G01*
X8627441Y-8964996D02*
G75*
G03*
X8777000Y-8765000I-58941J199996D01*
G01*
X8962050Y-4414617D02*
G75*
G03*
X8768500Y-4265000I-193550J-50383D01*
G01*
X5568500Y-4265000D02*
G75*
G03*
X5374892Y-4414842I0J-200000D01*
G01*
X8962050Y-4414617D02*
X8777000Y-8765000D01*
X7168500Y-8965000D02*
X8627441Y-8964996D01*
X5568500Y-4265000D02*
X8768500Y-4265000D01*
X7168500Y-8965000D02*
X5709613Y-8965012D01*
X5560000Y-8765000D02*
X5374892Y-4414842D01*
D11*
X5630668Y-9281495D02*
X5630668Y-9081495D01*
X5630668Y-9081495D02*
X5678287Y-9081495D01*
X5678287Y-9081495D02*
X5706859Y-9091019D01*
X5706859Y-9091019D02*
X5725906Y-9110067D01*
X5725906Y-9110067D02*
X5735430Y-9129114D01*
X5735430Y-9129114D02*
X5744954Y-9167210D01*
X5744954Y-9167210D02*
X5744954Y-9195781D01*
X5744954Y-9195781D02*
X5735430Y-9233876D01*
X5735430Y-9233876D02*
X5725906Y-9252924D01*
X5725906Y-9252924D02*
X5706859Y-9271972D01*
X5706859Y-9271972D02*
X5678287Y-9281495D01*
X5678287Y-9281495D02*
X5630668Y-9281495D01*
X5830668Y-9281495D02*
X5830668Y-9148162D01*
X5830668Y-9186257D02*
X5840192Y-9167210D01*
X5840192Y-9167210D02*
X5849716Y-9157686D01*
X5849716Y-9157686D02*
X5868764Y-9148162D01*
X5868764Y-9148162D02*
X5887811Y-9148162D01*
X5954478Y-9281495D02*
X5954478Y-9148162D01*
X5954478Y-9081495D02*
X5944954Y-9091019D01*
X5944954Y-9091019D02*
X5954478Y-9100543D01*
X5954478Y-9100543D02*
X5964002Y-9091019D01*
X5964002Y-9091019D02*
X5954478Y-9081495D01*
X5954478Y-9081495D02*
X5954478Y-9100543D01*
X6078287Y-9281495D02*
X6059240Y-9271972D01*
X6059240Y-9271972D02*
X6049716Y-9252924D01*
X6049716Y-9252924D02*
X6049716Y-9081495D01*
X6183049Y-9281495D02*
X6164002Y-9271972D01*
X6164002Y-9271972D02*
X6154478Y-9252924D01*
X6154478Y-9252924D02*
X6154478Y-9081495D01*
X6411621Y-9281495D02*
X6411621Y-9081495D01*
X6411621Y-9081495D02*
X6478287Y-9224352D01*
X6478287Y-9224352D02*
X6544954Y-9081495D01*
X6544954Y-9081495D02*
X6544954Y-9281495D01*
X6725906Y-9281495D02*
X6725906Y-9176733D01*
X6725906Y-9176733D02*
X6716383Y-9157686D01*
X6716383Y-9157686D02*
X6697335Y-9148162D01*
X6697335Y-9148162D02*
X6659240Y-9148162D01*
X6659240Y-9148162D02*
X6640192Y-9157686D01*
X6725906Y-9271972D02*
X6706859Y-9281495D01*
X6706859Y-9281495D02*
X6659240Y-9281495D01*
X6659240Y-9281495D02*
X6640192Y-9271972D01*
X6640192Y-9271972D02*
X6630668Y-9252924D01*
X6630668Y-9252924D02*
X6630668Y-9233876D01*
X6630668Y-9233876D02*
X6640192Y-9214829D01*
X6640192Y-9214829D02*
X6659240Y-9205305D01*
X6659240Y-9205305D02*
X6706859Y-9205305D01*
X6706859Y-9205305D02*
X6725906Y-9195781D01*
X6821145Y-9148162D02*
X6821145Y-9348162D01*
X6821145Y-9157686D02*
X6840192Y-9148162D01*
X6840192Y-9148162D02*
X6878287Y-9148162D01*
X6878287Y-9148162D02*
X6897335Y-9157686D01*
X6897335Y-9157686D02*
X6906859Y-9167210D01*
X6906859Y-9167210D02*
X6916383Y-9186257D01*
X6916383Y-9186257D02*
X6916383Y-9243400D01*
X6916383Y-9243400D02*
X6906859Y-9262448D01*
X6906859Y-9262448D02*
X6897335Y-9271972D01*
X6897335Y-9271972D02*
X6878287Y-9281495D01*
X6878287Y-9281495D02*
X6840192Y-9281495D01*
X6840192Y-9281495D02*
X6821145Y-9271972D01*
X7002097Y-9262448D02*
X7011621Y-9271972D01*
X7011621Y-9271972D02*
X7002097Y-9281495D01*
X7002097Y-9281495D02*
X6992573Y-9271972D01*
X6992573Y-9271972D02*
X7002097Y-9262448D01*
X7002097Y-9262448D02*
X7002097Y-9281495D01*
X7002097Y-9157686D02*
X7011621Y-9167210D01*
X7011621Y-9167210D02*
X7002097Y-9176733D01*
X7002097Y-9176733D02*
X6992573Y-9167210D01*
X6992573Y-9167210D02*
X7002097Y-9157686D01*
X7002097Y-9157686D02*
X7002097Y-9176733D01*
M02*
